<?xml version="1.0" encoding="UTF-8" standalone="no"?>
<!-- Created with Inkscape (http://www.inkscape.org/) -->

<svg
   xmlns:dc="http://purl.org/dc/elements/1.1/"
   xmlns:cc="http://creativecommons.org/ns#"
   xmlns:rdf="http://www.w3.org/1999/02/22-rdf-syntax-ns#"
   xmlns:svg="http://www.w3.org/2000/svg"
   xmlns="http://www.w3.org/2000/svg"
   xmlns:sodipodi="http://sodipodi.sourceforge.net/DTD/sodipodi-0.dtd"
   xmlns:inkscape="http://www.inkscape.org/namespaces/inkscape"
   width="297mm"
   height="210mm"
   viewBox="0 0 297 210"
   version="1.1"
   id="svg8"
   inkscape:version="0.92.4 (5da689c313, 2019-01-14)"
   sodipodi:docname="fir_transpose_mcm.svg">
  <defs
     id="defs2" />
  <sodipodi:namedview
     id="base"
     pagecolor="#ffffff"
     bordercolor="#666666"
     borderopacity="1.0"
     inkscape:pageopacity="0.0"
     inkscape:pageshadow="2"
     inkscape:zoom="0.71417785"
     inkscape:cx="557.82478"
     inkscape:cy="379.61888"
     inkscape:document-units="mm"
     inkscape:current-layer="layer1"
     showgrid="false"
     inkscape:window-width="1872"
     inkscape:window-height="1008"
     inkscape:window-x="24"
     inkscape:window-y="24"
     inkscape:window-maximized="0" />
  <metadata
     id="metadata5">
    <rdf:RDF>
      <cc:Work
         rdf:about="">
        <dc:format>image/svg+xml</dc:format>
        <dc:type
           rdf:resource="http://purl.org/dc/dcmitype/StillImage" />
        <dc:title></dc:title>
      </cc:Work>
    </rdf:RDF>
  </metadata>
  <g
     inkscape:label="Layer 1"
     inkscape:groupmode="layer"
     id="layer1"
     transform="translate(0,-87)">
    <path
       style="fill:#002b5c;stroke-width:0.26458332"
       id="path1200"
       d="m 9.1123836,160.21729 c 0.9142354,-0.0238 1.7512674,0.26311 2.5145694,0.74517 0.887144,0.73053 1.04534,1.4807 0.796909,2.56591 -0.305217,0.69388 -0.778688,1.41023 -1.444785,1.81503 -3.5535214,2.15954 -2.4621801,1.76005 -4.3655514,2.38054 -0.7624278,0.0603 -0.3920834,0.066 -1.1111518,-0.006 0,0 3.1195731,-2.2413 3.1195731,-2.2413 v 0 c 0.6519147,4.8e-4 0.316795,0.032 1.0038284,-0.1096 1.4080857,-0.59333 1.2655617,-0.562 -2.1934633,1.39441 -0.1768504,0.10002 0.3374856,-0.22741 0.4946063,-0.35623 0.4151765,-0.34039 0.7675936,-0.75046 1.0229373,-1.22299 0.304743,-0.92212 0.26209,-1.50775 -0.5557763,-2.1297 -0.7488965,-0.43137 -1.5636142,-0.60868 -2.4292372,-0.54839 0,0 3.1475415,-2.28682 3.1475415,-2.28682 z"
       inkscape:connector-curvature="0" />
    <path
       style="fill:#002b5c;stroke-width:0.26458332"
       id="path1202"
       d="m 13.369153,162.71218 c -0.654956,-0.0167 -1.332275,0.13218 -1.918156,0.43116 -0.171343,0.0874 -0.661403,0.39278 -0.492139,0.30139 0.950853,-0.51344 1.891684,-1.04523 2.837526,-1.56785 -0.842734,0.88635 -0.702842,1.37106 0.157135,2.13882 0.653112,0.37648 0.309062,0.2211 1.033369,0.46342 0,0 -3.170669,2.13437 -3.170669,2.13437 v 0 c -0.782535,-0.32217 -0.408532,-0.1284 -1.122154,-0.58101 -0.9544237,-0.89588 -1.2747434,-1.57767 -0.452882,-2.72687 1.910801,-1.16924 3.894743,-2.98306 6.30732,-2.83514 0,0 -3.17935,2.24171 -3.17935,2.24171 z"
       inkscape:connector-curvature="0" />
    <g
       id="g1226"
       style="fill:#0078ae"
       transform="translate(-30.162513,121.17939)">
      <path
         inkscape:connector-curvature="0"
         d="m 82.510322,102.69627 c 1.426475,-0.24876 2.862273,-0.43787 4.298482,-0.62331 1.316339,-0.12217 2.653101,-0.358 3.970186,-0.13506 1.020509,0.39048 0.524206,1.18649 0.07612,1.83575 -1.003546,1.25968 -2.196518,2.34725 -3.367495,3.44643 -1.002488,0.96206 -1.965806,1.97783 -2.714876,3.15261 -0.42059,0.75401 -0.223586,1.00855 0.53731,1.30136 1.166122,0.31599 2.375424,0.28054 3.564123,0.14454 0.833228,-0.0593 1.650106,-0.25961 2.478357,-0.35108 0.33256,-0.0367 0.881182,-0.0487 1.219309,-0.06 0.480449,-0.007 0.960932,-0.005 1.441384,-7.4e-4 0,0 -3.127907,2.2647 -3.127907,2.2647 v 0 c -0.466357,-0.0117 -0.932958,-0.0213 -1.399358,-0.002 -1.235024,0.0612 -2.446522,0.3013 -3.676433,0.42135 -1.242748,0.0974 -2.513301,0.11763 -3.710228,-0.28452 -0.847241,-0.42632 -1.304943,-0.93273 -0.838724,-1.88154 0.73378,-1.23045 1.722057,-2.27633 2.742766,-3.27408 1.148673,-1.07658 2.317189,-2.13884 3.325318,-3.35265 0.06479,-0.0827 0.695201,-0.84943 0.638376,-0.98008 -0.04263,-0.098 -0.300278,-0.14436 -0.343969,-0.15784 -1.27926,-0.16461 -2.568718,0.0408 -3.841726,0.17402 -1.45883,0.19612 -2.921159,0.3836 -4.357989,0.71017 0,0 3.086973,-2.34763 3.086973,-2.34763 z"
         id="path1208"
         style="fill:#0078ae;stroke-width:0.26458332" />
      <path
         inkscape:connector-curvature="0"
         d="m 83.509251,107.97519 c 1.311013,-0.22177 2.636356,-0.3672 3.960045,-0.49444 1.729312,-0.18317 3.457924,-0.37207 5.165048,-0.70805 0.674875,-0.10766 1.333648,-0.29052 1.994641,-0.45978 0,0 -3.038764,2.322 -3.038764,2.322 v 0 c -0.655759,0.1552 -1.311986,0.31021 -1.977353,0.41989 -1.71442,0.30667 -3.446616,0.48675 -5.177099,0.67728 -1.35268,0.14528 -2.705216,0.31269 -4.040979,0.57411 0,0 3.114461,-2.33101 3.114461,-2.33101 z"
         id="path1210"
         style="fill:#0078ae;stroke-width:0.26458332" />
      <path
         inkscape:connector-curvature="0"
         d="m 94.249763,98.282529 c 0.830601,-0.0994 1.652582,-0.269875 2.482802,-0.382758 0.300728,-0.03866 0.601387,-0.0791 0.903377,-0.106802 0,0 -3.147554,2.329721 -3.147554,2.329721 v 0 c -0.284282,0.0243 -0.568095,0.0541 -0.850964,0.0916 -0.836639,0.11823 -1.666229,0.27654 -2.502122,0.39923 0,0 3.114461,-2.331021 3.114461,-2.331021 z"
         id="path1212"
         style="fill:#0078ae;stroke-width:0.26458332" />
      <path
         inkscape:connector-curvature="0"
         d="m 101.0175,93.838268 c 0.004,0.934778 0.26163,1.837152 0.4477,2.745824 0.16713,1.014617 0.27524,2.037375 0.41552,3.056264 0,0 -3.405998,1.791364 -3.405998,1.791364 v 0 c -0.124423,-1.01392 -0.239607,-2.02899 -0.389615,-3.03907 -0.187452,-0.928268 -0.450056,-1.84146 -0.534133,-2.788097 0,0 3.466526,-1.766285 3.466526,-1.766285 z"
         id="path1214"
         style="fill:#0078ae;stroke-width:0.26458332" />
      <path
         inkscape:connector-curvature="0"
         d="m 78.507081,91.98011 c 0.136864,1.630952 0.4459,3.241205 0.662062,4.862759 0.486563,3.440921 0.560414,6.918681 0.706707,10.385171 0.10885,3.58754 0.333679,7.16801 0.69996,10.73807 0.172932,1.61985 0.08952,0.84709 0.249764,2.31835 0,0 -3.31802,1.7288 -3.31802,1.7288 v 0 c -0.110252,-1.49464 -0.04992,-0.71043 -0.182547,-2.35252 -0.301802,-3.592 -0.51132,-7.18918 -0.634457,-10.79208 -0.156467,-3.43835 -0.251148,-6.89013 -0.802275,-10.294668 -0.246745,-1.59818 -0.582472,-3.179644 -0.821963,-4.778773 0,0 3.440769,-1.815109 3.440769,-1.815109 z"
         id="path1216"
         style="fill:#0078ae;stroke-width:0.26458332" />
      <path
         inkscape:connector-curvature="0"
         d="m 76.508794,90.58058 c 1.558753,0.50721 3.181919,0.650107 4.810427,0.682166 3.422271,-0.05863 6.810229,-0.61823 10.193872,-1.08617 3.761173,-0.502304 7.538627,-0.860107 11.315057,-1.222613 2.69619,-0.261559 5.37302,-0.678586 8.05552,-1.047581 0.89761,-0.112729 1.79439,-0.234866 2.69452,-0.326404 0.32822,-0.09111 0.55334,0.34452 0.17224,0.581207 -1.15116,0.666334 -2.30233,1.332668 -3.4535,1.999002 -0.0339,0.02453 -0.13821,0.09437 -0.10184,0.0736 1.08298,-0.618656 2.16161,-1.244906 3.2423,-1.867578 0.0282,-0.01624 -0.0565,0.03216 -0.0848,0.04827 -3.48193,1.984439 -2.15885,1.680548 -3.55286,1.989734 -0.11088,0.02441 -0.21755,0.05563 -0.327,0.01959 6.61556,-3.556819 3.39794,-2.658701 3.02723,-1.348077 -0.15832,0.559756 -0.16609,1.166371 -0.20555,1.740979 -0.0974,2.718111 -0.21191,5.435582 -0.28832,8.154482 -0.13295,3.385163 -0.0405,6.769593 0.13723,10.150573 0.12951,2.23058 0.2404,4.46214 0.33608,6.69442 0.01,0.68967 -0.0328,1.37989 -0.12287,2.06359 -0.0245,0.11509 -0.0385,0.23192 -0.0522,0.34864 4.444,-8.7822 -2.58451,2.95209 -3.62997,2.03191 -0.26521,-0.27908 0.22706,0.0179 -0.16657,0.017 -0.40718,0.30911 -1.02056,0.41035 -1.51626,0.50465 -1.82347,0.3491 -3.64335,0.71095 -5.47955,0.98711 -3.073156,0.45387 -6.159433,0.80366 -9.242051,1.18419 -2.769939,0.35539 -5.557369,0.52732 -8.346191,0.63947 0,0 3.012704,-2.20517 3.012704,-2.20517 v 0 c 2.757866,-0.0839 5.513052,-0.25739 8.251103,-0.60919 3.099821,-0.38091 6.202175,-0.74305 9.287245,-1.23388 1.86829,-0.311 3.7242,-0.68884 5.57484,-1.09158 0.54181,-0.14599 0.35707,-0.0811 0.83559,-0.26218 0.19398,-0.0734 0.43851,-0.20341 0.65092,-0.22607 0.0475,-0.005 0.0952,0.009 0.1428,0.013 0.0171,2.6e-4 0.1421,-0.009 0.16119,0.007 0.25709,0.21812 0.0983,0.14686 0.0539,0.026 0.004,-0.0561 0.0671,-0.0498 0.11903,-0.0676 -1.07369,0.67945 -2.14739,1.3589 -3.22108,2.03835 0.01,-0.13267 0.0297,-0.26428 0.0501,-0.39573 0.17431,-0.66346 0.21872,-1.35415 0.25618,-2.03624 -0.015,-2.25285 -0.0871,-4.50464 -0.19859,-6.75479 -0.15638,-3.39229 -0.24281,-6.78661 -0.13336,-10.18238 0.0519,-2.696027 0.14287,-5.391462 0.13797,-8.088164 0.0149,-0.595249 0.0154,-1.193166 0.0999,-1.783956 0.0146,-0.102146 0.0931,-0.563143 0.14029,-0.593453 1.13443,-0.728074 2.32717,-1.361025 3.49076,-2.041537 0.074,-0.05363 0.16706,-0.06684 0.24754,-0.10942 1.17862,-0.634135 0.4145,-0.224067 -3.17598,1.8361 -0.0297,0.01706 0.0545,-0.04192 0.0842,-0.05913 1.14733,-0.665859 2.29453,-1.331975 3.44643,-1.989878 0.0386,-0.02203 0.16199,-0.07198 0.12383,-0.04925 -1.07601,0.640858 -2.15916,1.269638 -3.23874,1.904457 0.37607,-0.442571 0.70347,0.337459 0.31687,0.263413 -0.85691,0.05719 -1.71105,0.150646 -2.56378,0.251384 -2.65036,0.334864 -5.29615,0.711763 -7.957045,0.957179 -3.761904,0.347733 -7.524864,0.694498 -11.26871,1.208237 -3.432059,0.484352 -6.868716,1.063332 -10.3417,1.12258 -1.708608,-0.03803 -3.34142,-0.215149 -4.996159,-0.655173 0,0 3.196918,-2.205107 3.196918,-2.205107 z"
         id="path1218"
         style="fill:#0078ae;stroke-width:0.26458332" />
    </g>
    <g
       id="g1240"
       transform="translate(50.270859,121.17939)"
       style="fill:#0078ae">
      <path
         style="fill:#0078ae;stroke-width:0.26458332"
         id="path1228"
         d="m 82.510322,102.69627 c 1.426475,-0.24876 2.862273,-0.43787 4.298482,-0.62331 1.316339,-0.12217 2.653101,-0.358 3.970186,-0.13506 1.020509,0.39048 0.524206,1.18649 0.07612,1.83575 -1.003546,1.25968 -2.196518,2.34725 -3.367495,3.44643 -1.002488,0.96206 -1.965806,1.97783 -2.714876,3.15261 -0.42059,0.75401 -0.223586,1.00855 0.53731,1.30136 1.166122,0.31599 2.375424,0.28054 3.564123,0.14454 0.833228,-0.0593 1.650106,-0.25961 2.478357,-0.35108 0.33256,-0.0367 0.881182,-0.0487 1.219309,-0.06 0.480449,-0.007 0.960932,-0.005 1.441384,-7.4e-4 0,0 -3.127907,2.2647 -3.127907,2.2647 v 0 c -0.466357,-0.0117 -0.932958,-0.0213 -1.399358,-0.002 -1.235024,0.0612 -2.446522,0.3013 -3.676433,0.42135 -1.242748,0.0974 -2.513301,0.11763 -3.710228,-0.28452 -0.847241,-0.42632 -1.304943,-0.93273 -0.838724,-1.88154 0.73378,-1.23045 1.722057,-2.27633 2.742766,-3.27408 1.148673,-1.07658 2.317189,-2.13884 3.325318,-3.35265 0.06479,-0.0827 0.695201,-0.84943 0.638376,-0.98008 -0.04263,-0.098 -0.300278,-0.14436 -0.343969,-0.15784 -1.27926,-0.16461 -2.568718,0.0408 -3.841726,0.17402 -1.45883,0.19612 -2.921159,0.3836 -4.357989,0.71017 0,0 3.086973,-2.34763 3.086973,-2.34763 z"
         inkscape:connector-curvature="0" />
      <path
         style="fill:#0078ae;stroke-width:0.26458332"
         id="path1230"
         d="m 83.509251,107.97519 c 1.311013,-0.22177 2.636356,-0.3672 3.960045,-0.49444 1.729312,-0.18317 3.457924,-0.37207 5.165048,-0.70805 0.674875,-0.10766 1.333648,-0.29052 1.994641,-0.45978 0,0 -3.038764,2.322 -3.038764,2.322 v 0 c -0.655759,0.1552 -1.311986,0.31021 -1.977353,0.41989 -1.71442,0.30667 -3.446616,0.48675 -5.177099,0.67728 -1.35268,0.14528 -2.705216,0.31269 -4.040979,0.57411 0,0 3.114461,-2.33101 3.114461,-2.33101 z"
         inkscape:connector-curvature="0" />
      <path
         style="fill:#0078ae;stroke-width:0.26458332"
         id="path1232"
         d="m 94.249763,98.282529 c 0.830601,-0.0994 1.652582,-0.269875 2.482802,-0.382758 0.300728,-0.03866 0.601387,-0.0791 0.903377,-0.106802 0,0 -3.147554,2.329721 -3.147554,2.329721 v 0 c -0.284282,0.0243 -0.568095,0.0541 -0.850964,0.0916 -0.836639,0.11823 -1.666229,0.27654 -2.502122,0.39923 0,0 3.114461,-2.331021 3.114461,-2.331021 z"
         inkscape:connector-curvature="0" />
      <path
         style="fill:#0078ae;stroke-width:0.26458332"
         id="path1234"
         d="m 101.0175,93.838268 c 0.004,0.934778 0.26163,1.837152 0.4477,2.745824 0.16713,1.014617 0.27524,2.037375 0.41552,3.056264 0,0 -3.405998,1.791364 -3.405998,1.791364 v 0 c -0.124423,-1.01392 -0.239607,-2.02899 -0.389615,-3.03907 -0.187452,-0.928268 -0.450056,-1.84146 -0.534133,-2.788097 0,0 3.466526,-1.766285 3.466526,-1.766285 z"
         inkscape:connector-curvature="0" />
      <path
         style="fill:#0078ae;stroke-width:0.26458332"
         id="path1236"
         d="m 78.507081,91.98011 c 0.136864,1.630952 0.4459,3.241205 0.662062,4.862759 0.486563,3.440921 0.560414,6.918681 0.706707,10.385171 0.10885,3.58754 0.333679,7.16801 0.69996,10.73807 0.172932,1.61985 0.08952,0.84709 0.249764,2.31835 0,0 -3.31802,1.7288 -3.31802,1.7288 v 0 c -0.110252,-1.49464 -0.04992,-0.71043 -0.182547,-2.35252 -0.301802,-3.592 -0.51132,-7.18918 -0.634457,-10.79208 -0.156467,-3.43835 -0.251148,-6.89013 -0.802275,-10.294668 -0.246745,-1.59818 -0.582472,-3.179644 -0.821963,-4.778773 0,0 3.440769,-1.815109 3.440769,-1.815109 z"
         inkscape:connector-curvature="0" />
      <path
         style="fill:#0078ae;stroke-width:0.26458332"
         id="path1238"
         d="m 76.508794,90.58058 c 1.558753,0.50721 3.181919,0.650107 4.810427,0.682166 3.422271,-0.05863 6.810229,-0.61823 10.193872,-1.08617 3.761173,-0.502304 7.538627,-0.860107 11.315057,-1.222613 2.69619,-0.261559 5.37302,-0.678586 8.05552,-1.047581 0.89761,-0.112729 1.79439,-0.234866 2.69452,-0.326404 0.32822,-0.09111 0.55334,0.34452 0.17224,0.581207 -1.15116,0.666334 -2.30233,1.332668 -3.4535,1.999002 -0.0339,0.02453 -0.13821,0.09437 -0.10184,0.0736 1.08298,-0.618656 2.16161,-1.244906 3.2423,-1.867578 0.0282,-0.01624 -0.0565,0.03216 -0.0848,0.04827 -3.48193,1.984439 -2.15885,1.680548 -3.55286,1.989734 -0.11088,0.02441 -0.21755,0.05563 -0.327,0.01959 6.61556,-3.556819 3.39794,-2.658701 3.02723,-1.348077 -0.15832,0.559756 -0.16609,1.166371 -0.20555,1.740979 -0.0974,2.718111 -0.21191,5.435582 -0.28832,8.154482 -0.13295,3.385163 -0.0405,6.769593 0.13723,10.150573 0.12951,2.23058 0.2404,4.46214 0.33608,6.69442 0.01,0.68967 -0.0328,1.37989 -0.12287,2.06359 -0.0245,0.11509 -0.0385,0.23192 -0.0522,0.34864 4.444,-8.7822 -2.58451,2.95209 -3.62997,2.03191 -0.26521,-0.27908 0.22706,0.0179 -0.16657,0.017 -0.40718,0.30911 -1.02056,0.41035 -1.51626,0.50465 -1.82347,0.3491 -3.64335,0.71095 -5.47955,0.98711 -3.073156,0.45387 -6.159433,0.80366 -9.242051,1.18419 -2.769939,0.35539 -5.557369,0.52732 -8.346191,0.63947 0,0 3.012704,-2.20517 3.012704,-2.20517 v 0 c 2.757866,-0.0839 5.513052,-0.25739 8.251103,-0.60919 3.099821,-0.38091 6.202175,-0.74305 9.287245,-1.23388 1.86829,-0.311 3.7242,-0.68884 5.57484,-1.09158 0.54181,-0.14599 0.35707,-0.0811 0.83559,-0.26218 0.19398,-0.0734 0.43851,-0.20341 0.65092,-0.22607 0.0475,-0.005 0.0952,0.009 0.1428,0.013 0.0171,2.6e-4 0.1421,-0.009 0.16119,0.007 0.25709,0.21812 0.0983,0.14686 0.0539,0.026 0.004,-0.0561 0.0671,-0.0498 0.11903,-0.0676 -1.07369,0.67945 -2.14739,1.3589 -3.22108,2.03835 0.01,-0.13267 0.0297,-0.26428 0.0501,-0.39573 0.17431,-0.66346 0.21872,-1.35415 0.25618,-2.03624 -0.015,-2.25285 -0.0871,-4.50464 -0.19859,-6.75479 -0.15638,-3.39229 -0.24281,-6.78661 -0.13336,-10.18238 0.0519,-2.696027 0.14287,-5.391462 0.13797,-8.088164 0.0149,-0.595249 0.0154,-1.193166 0.0999,-1.783956 0.0146,-0.102146 0.0931,-0.563143 0.14029,-0.593453 1.13443,-0.728074 2.32717,-1.361025 3.49076,-2.041537 0.074,-0.05363 0.16706,-0.06684 0.24754,-0.10942 1.17862,-0.634135 0.4145,-0.224067 -3.17598,1.8361 -0.0297,0.01706 0.0545,-0.04192 0.0842,-0.05913 1.14733,-0.665859 2.29453,-1.331975 3.44643,-1.989878 0.0386,-0.02203 0.16199,-0.07198 0.12383,-0.04925 -1.07601,0.640858 -2.15916,1.269638 -3.23874,1.904457 0.37607,-0.442571 0.70347,0.337459 0.31687,0.263413 -0.85691,0.05719 -1.71105,0.150646 -2.56378,0.251384 -2.65036,0.334864 -5.29615,0.711763 -7.957045,0.957179 -3.761904,0.347733 -7.524864,0.694498 -11.26871,1.208237 -3.432059,0.484352 -6.868716,1.063332 -10.3417,1.12258 -1.708608,-0.03803 -3.34142,-0.215149 -4.996159,-0.655173 0,0 3.196918,-2.205107 3.196918,-2.205107 z"
         inkscape:connector-curvature="0" />
    </g>
    <g
       transform="translate(126.47106,121.17939)"
       id="g1254"
       style="fill:#0078ae">
      <path
         inkscape:connector-curvature="0"
         d="m 82.510322,102.69627 c 1.426475,-0.24876 2.862273,-0.43787 4.298482,-0.62331 1.316339,-0.12217 2.653101,-0.358 3.970186,-0.13506 1.020509,0.39048 0.524206,1.18649 0.07612,1.83575 -1.003546,1.25968 -2.196518,2.34725 -3.367495,3.44643 -1.002488,0.96206 -1.965806,1.97783 -2.714876,3.15261 -0.42059,0.75401 -0.223586,1.00855 0.53731,1.30136 1.166122,0.31599 2.375424,0.28054 3.564123,0.14454 0.833228,-0.0593 1.650106,-0.25961 2.478357,-0.35108 0.33256,-0.0367 0.881182,-0.0487 1.219309,-0.06 0.480449,-0.007 0.960932,-0.005 1.441384,-7.4e-4 0,0 -3.127907,2.2647 -3.127907,2.2647 v 0 c -0.466357,-0.0117 -0.932958,-0.0213 -1.399358,-0.002 -1.235024,0.0612 -2.446522,0.3013 -3.676433,0.42135 -1.242748,0.0974 -2.513301,0.11763 -3.710228,-0.28452 -0.847241,-0.42632 -1.304943,-0.93273 -0.838724,-1.88154 0.73378,-1.23045 1.722057,-2.27633 2.742766,-3.27408 1.148673,-1.07658 2.317189,-2.13884 3.325318,-3.35265 0.06479,-0.0827 0.695201,-0.84943 0.638376,-0.98008 -0.04263,-0.098 -0.300278,-0.14436 -0.343969,-0.15784 -1.27926,-0.16461 -2.568718,0.0408 -3.841726,0.17402 -1.45883,0.19612 -2.921159,0.3836 -4.357989,0.71017 0,0 3.086973,-2.34763 3.086973,-2.34763 z"
         id="path1242"
         style="fill:#0078ae;stroke-width:0.26458332" />
      <path
         inkscape:connector-curvature="0"
         d="m 83.509251,107.97519 c 1.311013,-0.22177 2.636356,-0.3672 3.960045,-0.49444 1.729312,-0.18317 3.457924,-0.37207 5.165048,-0.70805 0.674875,-0.10766 1.333648,-0.29052 1.994641,-0.45978 0,0 -3.038764,2.322 -3.038764,2.322 v 0 c -0.655759,0.1552 -1.311986,0.31021 -1.977353,0.41989 -1.71442,0.30667 -3.446616,0.48675 -5.177099,0.67728 -1.35268,0.14528 -2.705216,0.31269 -4.040979,0.57411 0,0 3.114461,-2.33101 3.114461,-2.33101 z"
         id="path1244"
         style="fill:#0078ae;stroke-width:0.26458332" />
      <path
         inkscape:connector-curvature="0"
         d="m 94.249763,98.282529 c 0.830601,-0.0994 1.652582,-0.269875 2.482802,-0.382758 0.300728,-0.03866 0.601387,-0.0791 0.903377,-0.106802 0,0 -3.147554,2.329721 -3.147554,2.329721 v 0 c -0.284282,0.0243 -0.568095,0.0541 -0.850964,0.0916 -0.836639,0.11823 -1.666229,0.27654 -2.502122,0.39923 0,0 3.114461,-2.331021 3.114461,-2.331021 z"
         id="path1246"
         style="fill:#0078ae;stroke-width:0.26458332" />
      <path
         inkscape:connector-curvature="0"
         d="m 101.0175,93.838268 c 0.004,0.934778 0.26163,1.837152 0.4477,2.745824 0.16713,1.014617 0.27524,2.037375 0.41552,3.056264 0,0 -3.405998,1.791364 -3.405998,1.791364 v 0 c -0.124423,-1.01392 -0.239607,-2.02899 -0.389615,-3.03907 -0.187452,-0.928268 -0.450056,-1.84146 -0.534133,-2.788097 0,0 3.466526,-1.766285 3.466526,-1.766285 z"
         id="path1248"
         style="fill:#0078ae;stroke-width:0.26458332" />
      <path
         inkscape:connector-curvature="0"
         d="m 78.507081,91.98011 c 0.136864,1.630952 0.4459,3.241205 0.662062,4.862759 0.486563,3.440921 0.560414,6.918681 0.706707,10.385171 0.10885,3.58754 0.333679,7.16801 0.69996,10.73807 0.172932,1.61985 0.08952,0.84709 0.249764,2.31835 0,0 -3.31802,1.7288 -3.31802,1.7288 v 0 c -0.110252,-1.49464 -0.04992,-0.71043 -0.182547,-2.35252 -0.301802,-3.592 -0.51132,-7.18918 -0.634457,-10.79208 -0.156467,-3.43835 -0.251148,-6.89013 -0.802275,-10.294668 -0.246745,-1.59818 -0.582472,-3.179644 -0.821963,-4.778773 0,0 3.440769,-1.815109 3.440769,-1.815109 z"
         id="path1250"
         style="fill:#0078ae;stroke-width:0.26458332" />
      <path
         inkscape:connector-curvature="0"
         d="m 76.508794,90.58058 c 1.558753,0.50721 3.181919,0.650107 4.810427,0.682166 3.422271,-0.05863 6.810229,-0.61823 10.193872,-1.08617 3.761173,-0.502304 7.538627,-0.860107 11.315057,-1.222613 2.69619,-0.261559 5.37302,-0.678586 8.05552,-1.047581 0.89761,-0.112729 1.79439,-0.234866 2.69452,-0.326404 0.32822,-0.09111 0.55334,0.34452 0.17224,0.581207 -1.15116,0.666334 -2.30233,1.332668 -3.4535,1.999002 -0.0339,0.02453 -0.13821,0.09437 -0.10184,0.0736 1.08298,-0.618656 2.16161,-1.244906 3.2423,-1.867578 0.0282,-0.01624 -0.0565,0.03216 -0.0848,0.04827 -3.48193,1.984439 -2.15885,1.680548 -3.55286,1.989734 -0.11088,0.02441 -0.21755,0.05563 -0.327,0.01959 6.61556,-3.556819 3.39794,-2.658701 3.02723,-1.348077 -0.15832,0.559756 -0.16609,1.166371 -0.20555,1.740979 -0.0974,2.718111 -0.21191,5.435582 -0.28832,8.154482 -0.13295,3.385163 -0.0405,6.769593 0.13723,10.150573 0.12951,2.23058 0.2404,4.46214 0.33608,6.69442 0.01,0.68967 -0.0328,1.37989 -0.12287,2.06359 -0.0245,0.11509 -0.0385,0.23192 -0.0522,0.34864 4.444,-8.7822 -2.58451,2.95209 -3.62997,2.03191 -0.26521,-0.27908 0.22706,0.0179 -0.16657,0.017 -0.40718,0.30911 -1.02056,0.41035 -1.51626,0.50465 -1.82347,0.3491 -3.64335,0.71095 -5.47955,0.98711 -3.073156,0.45387 -6.159433,0.80366 -9.242051,1.18419 -2.769939,0.35539 -5.557369,0.52732 -8.346191,0.63947 0,0 3.012704,-2.20517 3.012704,-2.20517 v 0 c 2.757866,-0.0839 5.513052,-0.25739 8.251103,-0.60919 3.099821,-0.38091 6.202175,-0.74305 9.287245,-1.23388 1.86829,-0.311 3.7242,-0.68884 5.57484,-1.09158 0.54181,-0.14599 0.35707,-0.0811 0.83559,-0.26218 0.19398,-0.0734 0.43851,-0.20341 0.65092,-0.22607 0.0475,-0.005 0.0952,0.009 0.1428,0.013 0.0171,2.6e-4 0.1421,-0.009 0.16119,0.007 0.25709,0.21812 0.0983,0.14686 0.0539,0.026 0.004,-0.0561 0.0671,-0.0498 0.11903,-0.0676 -1.07369,0.67945 -2.14739,1.3589 -3.22108,2.03835 0.01,-0.13267 0.0297,-0.26428 0.0501,-0.39573 0.17431,-0.66346 0.21872,-1.35415 0.25618,-2.03624 -0.015,-2.25285 -0.0871,-4.50464 -0.19859,-6.75479 -0.15638,-3.39229 -0.24281,-6.78661 -0.13336,-10.18238 0.0519,-2.696027 0.14287,-5.391462 0.13797,-8.088164 0.0149,-0.595249 0.0154,-1.193166 0.0999,-1.783956 0.0146,-0.102146 0.0931,-0.563143 0.14029,-0.593453 1.13443,-0.728074 2.32717,-1.361025 3.49076,-2.041537 0.074,-0.05363 0.16706,-0.06684 0.24754,-0.10942 1.17862,-0.634135 0.4145,-0.224067 -3.17598,1.8361 -0.0297,0.01706 0.0545,-0.04192 0.0842,-0.05913 1.14733,-0.665859 2.29453,-1.331975 3.44643,-1.989878 0.0386,-0.02203 0.16199,-0.07198 0.12383,-0.04925 -1.07601,0.640858 -2.15916,1.269638 -3.23874,1.904457 0.37607,-0.442571 0.70347,0.337459 0.31687,0.263413 -0.85691,0.05719 -1.71105,0.150646 -2.56378,0.251384 -2.65036,0.334864 -5.29615,0.711763 -7.957045,0.957179 -3.761904,0.347733 -7.524864,0.694498 -11.26871,1.208237 -3.432059,0.484352 -6.868716,1.063332 -10.3417,1.12258 -1.708608,-0.03803 -3.34142,-0.215149 -4.996159,-0.655173 0,0 3.196918,-2.205107 3.196918,-2.205107 z"
         id="path1252"
         style="fill:#0078ae;stroke-width:0.26458332" />
    </g>
    <g
       id="g1379"
       transform="translate(-16.933338,5.8208285)">
      <path
         inkscape:connector-curvature="0"
         d="m 117.89906,220.77654 c 1.58211,0.34907 3.20974,0.29547 4.8189,0.28639 2.01158,-0.0566 4.02012,-0.0429 6.03038,0.0392 0.6949,0.006 1.39039,0.0872 2.05938,0.27752 0,0 -3.21373,2.20266 -3.21373,2.20266 v 0 c -0.62661,-0.17455 -1.27444,-0.24553 -1.92385,-0.2661 -1.99114,-0.10926 -3.98165,-0.10886 -5.97504,-0.0536 -1.66778,0.0154 -3.34851,0.0468 -4.99296,-0.28097 0,0 3.19692,-2.2051 3.19692,-2.2051 z"
         id="path1370"
         style="fill:#a7a9ac;stroke-width:0.26458332" />
      <path
         inkscape:connector-curvature="0"
         d="m 119.6329,217.16865 c 1.0772,-1.48685 2.42832,-1.93692 4.35385,-2.73169 0.1123,-0.0464 0.15202,0.18955 0.22803,0.28432 0.0463,0.12511 0.10642,0.24595 0.13901,0.37531 0.0859,0.34111 0.113,0.83861 0.12908,1.1734 0.0465,0.96743 0.005,1.93092 -0.0292,2.898 -0.13316,2.18803 -0.27517,4.37939 -0.61712,6.54611 -0.0854,0.6085 -0.28232,1.17246 -0.53804,1.72532 0,0 -3.51075,1.57444 -3.51075,1.57444 v 0 c 0.3229,-0.51245 0.55337,-1.04096 0.66079,-1.64561 0.40075,-2.14896 0.56451,-4.33085 0.66937,-6.5126 0.0297,-1.35925 0.13439,-2.78461 -0.22813,-4.10923 -1.25574,-0.30186 -0.006,0.0115 3.16249,-1.8566 0.0667,-0.0393 -0.15304,0.0365 -0.21912,0.0768 -0.25266,0.15408 -0.44053,0.43076 -0.63698,0.64301 0,0 -3.56326,1.55904 -3.56326,1.55904 z"
         id="path1372"
         style="fill:#a7a9ac;stroke-width:0.26458332" />
      <path
         inkscape:connector-curvature="0"
         d="m 124.01178,213.80282 c 0.021,-0.87336 -0.31568,-1.69464 -1.07052,-2.18523 -0.17503,-0.11376 -0.37646,-0.18052 -0.56469,-0.27077 -0.22763,-0.0517 -0.45039,-0.13452 -0.68291,-0.1552 -0.96337,-0.0857 -1.97837,0.22814 -2.84975,0.59949 -0.38866,0.16563 -1.49832,0.77912 -1.13655,0.56092 0.63584,-0.38353 1.30697,-0.70525 1.96045,-1.05788 -2.24608,1.58368 -4.12058,3.68325 -5.23865,6.21241 -0.23229,0.52545 -0.40075,1.07685 -0.60113,1.61528 -0.60753,2.20351 -0.7428,4.50507 -0.10569,6.7222 0.40276,1.40157 0.63971,1.62179 1.37283,2.85341 0.34624,0.37791 0.65265,0.79662 1.03872,1.13375 1.23965,1.08253 2.82316,1.66914 4.43901,1.87754 1.50733,0.1944 2.17552,0.0582 3.6895,-0.0649 1.94663,-0.29393 3.83422,-0.89806 5.59723,-1.77531 0.56354,-0.28042 1.56214,-0.3097 1.64112,-0.93419 0.074,-0.58549 -1.21397,1.15909 -1.61479,0.72593 -0.37994,-0.41061 0.81664,-0.76481 1.22496,-1.14721 1.38629,-1.55877 2.18307,-3.45184 2.30006,-5.53984 0.0733,-1.30817 -0.0705,-1.76669 -0.2751,-3.05139 -0.48224,-1.94176 -1.37512,-3.73066 -2.76084,-5.18678 -0.32619,-0.34277 -0.69557,-0.64168 -1.04335,-0.96253 0,0 3.12596,-1.93035 3.12596,-1.93035 v 0 c 0.35462,0.335 0.73139,0.64801 1.06387,1.00501 1.41208,1.51623 2.33342,3.36404 2.84125,5.36355 0.0886,0.52101 0.21097,1.03739 0.26571,1.56303 0.21608,2.07509 -0.12348,4.24309 -1.20457,6.05374 -0.27646,0.46304 -0.6383,0.86944 -0.95745,1.30416 -2.40081,2.34926 -1.06431,1.20972 -5.76372,4.06069 -2.23926,1.35847 -4.73977,2.22366 -7.33073,2.58359 -1.5559,0.0992 -2.23015,0.2266 -3.77557,-0.004 -1.68095,-0.25124 -3.30993,-0.90165 -4.58473,-2.04848 -0.39861,-0.35859 -0.71456,-0.79955 -1.07185,-1.19933 -0.276,-0.46887 -0.59364,-0.91559 -0.82799,-1.4066 -1.26987,-2.66066 -1.26623,-5.65525 -0.56563,-8.46411 0.19354,-0.5511 0.35519,-1.11446 0.58063,-1.6533 1.07223,-2.56282 2.89799,-4.72283 5.11332,-6.37353 1.94294,-1.14927 5.75661,-4.04475 8.58336,-3.58787 0.2539,0.041 0.49327,0.14589 0.73991,0.21883 0.20741,0.11541 0.42891,0.2085 0.62222,0.34622 0.80466,0.57327 1.21518,1.4726 1.28768,2.43569 0,0 -3.46158,1.76376 -3.46158,1.76376 z"
         id="path1374"
         style="fill:#a7a9ac;stroke-width:0.26458332" />
    </g>
    <g
       id="g1387"
       transform="translate(58.737531,5.8208285)">
      <path
         style="fill:#a7a9ac;stroke-width:0.26458332"
         id="path1381"
         d="m 117.89906,220.77654 c 1.58211,0.34907 3.20974,0.29547 4.8189,0.28639 2.01158,-0.0566 4.02012,-0.0429 6.03038,0.0392 0.6949,0.006 1.39039,0.0872 2.05938,0.27752 0,0 -3.21373,2.20266 -3.21373,2.20266 v 0 c -0.62661,-0.17455 -1.27444,-0.24553 -1.92385,-0.2661 -1.99114,-0.10926 -3.98165,-0.10886 -5.97504,-0.0536 -1.66778,0.0154 -3.34851,0.0468 -4.99296,-0.28097 0,0 3.19692,-2.2051 3.19692,-2.2051 z"
         inkscape:connector-curvature="0" />
      <path
         style="fill:#a7a9ac;stroke-width:0.26458332"
         id="path1383"
         d="m 119.6329,217.16865 c 1.0772,-1.48685 2.42832,-1.93692 4.35385,-2.73169 0.1123,-0.0464 0.15202,0.18955 0.22803,0.28432 0.0463,0.12511 0.10642,0.24595 0.13901,0.37531 0.0859,0.34111 0.113,0.83861 0.12908,1.1734 0.0465,0.96743 0.005,1.93092 -0.0292,2.898 -0.13316,2.18803 -0.27517,4.37939 -0.61712,6.54611 -0.0854,0.6085 -0.28232,1.17246 -0.53804,1.72532 0,0 -3.51075,1.57444 -3.51075,1.57444 v 0 c 0.3229,-0.51245 0.55337,-1.04096 0.66079,-1.64561 0.40075,-2.14896 0.56451,-4.33085 0.66937,-6.5126 0.0297,-1.35925 0.13439,-2.78461 -0.22813,-4.10923 -1.25574,-0.30186 -0.006,0.0115 3.16249,-1.8566 0.0667,-0.0393 -0.15304,0.0365 -0.21912,0.0768 -0.25266,0.15408 -0.44053,0.43076 -0.63698,0.64301 0,0 -3.56326,1.55904 -3.56326,1.55904 z"
         inkscape:connector-curvature="0" />
      <path
         style="fill:#a7a9ac;stroke-width:0.26458332"
         id="path1385"
         d="m 124.01178,213.80282 c 0.021,-0.87336 -0.31568,-1.69464 -1.07052,-2.18523 -0.17503,-0.11376 -0.37646,-0.18052 -0.56469,-0.27077 -0.22763,-0.0517 -0.45039,-0.13452 -0.68291,-0.1552 -0.96337,-0.0857 -1.97837,0.22814 -2.84975,0.59949 -0.38866,0.16563 -1.49832,0.77912 -1.13655,0.56092 0.63584,-0.38353 1.30697,-0.70525 1.96045,-1.05788 -2.24608,1.58368 -4.12058,3.68325 -5.23865,6.21241 -0.23229,0.52545 -0.40075,1.07685 -0.60113,1.61528 -0.60753,2.20351 -0.7428,4.50507 -0.10569,6.7222 0.40276,1.40157 0.63971,1.62179 1.37283,2.85341 0.34624,0.37791 0.65265,0.79662 1.03872,1.13375 1.23965,1.08253 2.82316,1.66914 4.43901,1.87754 1.50733,0.1944 2.17552,0.0582 3.6895,-0.0649 1.94663,-0.29393 3.83422,-0.89806 5.59723,-1.77531 0.56354,-0.28042 1.56214,-0.3097 1.64112,-0.93419 0.074,-0.58549 -1.21397,1.15909 -1.61479,0.72593 -0.37994,-0.41061 0.81664,-0.76481 1.22496,-1.14721 1.38629,-1.55877 2.18307,-3.45184 2.30006,-5.53984 0.0733,-1.30817 -0.0705,-1.76669 -0.2751,-3.05139 -0.48224,-1.94176 -1.37512,-3.73066 -2.76084,-5.18678 -0.32619,-0.34277 -0.69557,-0.64168 -1.04335,-0.96253 0,0 3.12596,-1.93035 3.12596,-1.93035 v 0 c 0.35462,0.335 0.73139,0.64801 1.06387,1.00501 1.41208,1.51623 2.33342,3.36404 2.84125,5.36355 0.0886,0.52101 0.21097,1.03739 0.26571,1.56303 0.21608,2.07509 -0.12348,4.24309 -1.20457,6.05374 -0.27646,0.46304 -0.6383,0.86944 -0.95745,1.30416 -2.40081,2.34926 -1.06431,1.20972 -5.76372,4.06069 -2.23926,1.35847 -4.73977,2.22366 -7.33073,2.58359 -1.5559,0.0992 -2.23015,0.2266 -3.77557,-0.004 -1.68095,-0.25124 -3.30993,-0.90165 -4.58473,-2.04848 -0.39861,-0.35859 -0.71456,-0.79955 -1.07185,-1.19933 -0.276,-0.46887 -0.59364,-0.91559 -0.82799,-1.4066 -1.26987,-2.66066 -1.26623,-5.65525 -0.56563,-8.46411 0.19354,-0.5511 0.35519,-1.11446 0.58063,-1.6533 1.07223,-2.56282 2.89799,-4.72283 5.11332,-6.37353 1.94294,-1.14927 5.75661,-4.04475 8.58336,-3.58787 0.2539,0.041 0.49327,0.14589 0.73991,0.21883 0.20741,0.11541 0.42891,0.2085 0.62222,0.34622 0.80466,0.57327 1.21518,1.4726 1.28768,2.43569 0,0 -3.46158,1.76376 -3.46158,1.76376 z"
         inkscape:connector-curvature="0" />
    </g>
    <g
       transform="translate(133.35027,5.8208285)"
       id="g1395">
      <path
         inkscape:connector-curvature="0"
         d="m 117.89906,220.77654 c 1.58211,0.34907 3.20974,0.29547 4.8189,0.28639 2.01158,-0.0566 4.02012,-0.0429 6.03038,0.0392 0.6949,0.006 1.39039,0.0872 2.05938,0.27752 0,0 -3.21373,2.20266 -3.21373,2.20266 v 0 c -0.62661,-0.17455 -1.27444,-0.24553 -1.92385,-0.2661 -1.99114,-0.10926 -3.98165,-0.10886 -5.97504,-0.0536 -1.66778,0.0154 -3.34851,0.0468 -4.99296,-0.28097 0,0 3.19692,-2.2051 3.19692,-2.2051 z"
         id="path1389"
         style="fill:#a7a9ac;stroke-width:0.26458332" />
      <path
         inkscape:connector-curvature="0"
         d="m 119.6329,217.16865 c 1.0772,-1.48685 2.42832,-1.93692 4.35385,-2.73169 0.1123,-0.0464 0.15202,0.18955 0.22803,0.28432 0.0463,0.12511 0.10642,0.24595 0.13901,0.37531 0.0859,0.34111 0.113,0.83861 0.12908,1.1734 0.0465,0.96743 0.005,1.93092 -0.0292,2.898 -0.13316,2.18803 -0.27517,4.37939 -0.61712,6.54611 -0.0854,0.6085 -0.28232,1.17246 -0.53804,1.72532 0,0 -3.51075,1.57444 -3.51075,1.57444 v 0 c 0.3229,-0.51245 0.55337,-1.04096 0.66079,-1.64561 0.40075,-2.14896 0.56451,-4.33085 0.66937,-6.5126 0.0297,-1.35925 0.13439,-2.78461 -0.22813,-4.10923 -1.25574,-0.30186 -0.006,0.0115 3.16249,-1.8566 0.0667,-0.0393 -0.15304,0.0365 -0.21912,0.0768 -0.25266,0.15408 -0.44053,0.43076 -0.63698,0.64301 0,0 -3.56326,1.55904 -3.56326,1.55904 z"
         id="path1391"
         style="fill:#a7a9ac;stroke-width:0.26458332" />
      <path
         inkscape:connector-curvature="0"
         d="m 124.01178,213.80282 c 0.021,-0.87336 -0.31568,-1.69464 -1.07052,-2.18523 -0.17503,-0.11376 -0.37646,-0.18052 -0.56469,-0.27077 -0.22763,-0.0517 -0.45039,-0.13452 -0.68291,-0.1552 -0.96337,-0.0857 -1.97837,0.22814 -2.84975,0.59949 -0.38866,0.16563 -1.49832,0.77912 -1.13655,0.56092 0.63584,-0.38353 1.30697,-0.70525 1.96045,-1.05788 -2.24608,1.58368 -4.12058,3.68325 -5.23865,6.21241 -0.23229,0.52545 -0.40075,1.07685 -0.60113,1.61528 -0.60753,2.20351 -0.7428,4.50507 -0.10569,6.7222 0.40276,1.40157 0.63971,1.62179 1.37283,2.85341 0.34624,0.37791 0.65265,0.79662 1.03872,1.13375 1.23965,1.08253 2.82316,1.66914 4.43901,1.87754 1.50733,0.1944 2.17552,0.0582 3.6895,-0.0649 1.94663,-0.29393 3.83422,-0.89806 5.59723,-1.77531 0.56354,-0.28042 1.56214,-0.3097 1.64112,-0.93419 0.074,-0.58549 -1.21397,1.15909 -1.61479,0.72593 -0.37994,-0.41061 0.81664,-0.76481 1.22496,-1.14721 1.38629,-1.55877 2.18307,-3.45184 2.30006,-5.53984 0.0733,-1.30817 -0.0705,-1.76669 -0.2751,-3.05139 -0.48224,-1.94176 -1.37512,-3.73066 -2.76084,-5.18678 -0.32619,-0.34277 -0.69557,-0.64168 -1.04335,-0.96253 0,0 3.12596,-1.93035 3.12596,-1.93035 v 0 c 0.35462,0.335 0.73139,0.64801 1.06387,1.00501 1.41208,1.51623 2.33342,3.36404 2.84125,5.36355 0.0886,0.52101 0.21097,1.03739 0.26571,1.56303 0.21608,2.07509 -0.12348,4.24309 -1.20457,6.05374 -0.27646,0.46304 -0.6383,0.86944 -0.95745,1.30416 -2.40081,2.34926 -1.06431,1.20972 -5.76372,4.06069 -2.23926,1.35847 -4.73977,2.22366 -7.33073,2.58359 -1.5559,0.0992 -2.23015,0.2266 -3.77557,-0.004 -1.68095,-0.25124 -3.30993,-0.90165 -4.58473,-2.04848 -0.39861,-0.35859 -0.71456,-0.79955 -1.07185,-1.19933 -0.276,-0.46887 -0.59364,-0.91559 -0.82799,-1.4066 -1.26987,-2.66066 -1.26623,-5.65525 -0.56563,-8.46411 0.19354,-0.5511 0.35519,-1.11446 0.58063,-1.6533 1.07223,-2.56282 2.89799,-4.72283 5.11332,-6.37353 1.94294,-1.14927 5.75661,-4.04475 8.58336,-3.58787 0.2539,0.041 0.49327,0.14589 0.73991,0.21883 0.20741,0.11541 0.42891,0.2085 0.62222,0.34622 0.80466,0.57327 1.21518,1.4726 1.28768,2.43569 0,0 -3.46158,1.76376 -3.46158,1.76376 z"
         id="path1393"
         style="fill:#a7a9ac;stroke-width:0.26458332" />
    </g>
    <path
       style="fill:#002b5c;stroke-width:0.26458332"
       id="path1423"
       d="m 269.19845,229.27654 c 1.27836,-1.69491 3.34872,-2.79896 5.43327,-3.1452 1.38065,-0.15492 2.77357,-0.14089 4.16092,-0.1443 1.45428,-0.002 2.90459,0.13622 4.35715,0.2012 1.18497,0.0982 2.36559,-0.0108 3.54521,-0.11506 0.21262,-0.0528 0.43995,-0.0165 0.65355,-0.0644 0.15478,-0.0347 0.28225,-0.12617 0.39142,-0.23455 -1.08095,0.62985 -2.16191,1.2597 -3.24289,1.88955 0.19891,-0.12837 0.2998,-0.35195 0.48892,-0.48794 0.13978,-0.11919 0.25892,-0.2326 0.33174,-0.40253 -0.0635,-0.16497 -0.0979,-0.34978 -0.17796,-0.50748 -0.0788,-0.0982 -0.16931,-0.20483 -0.28803,-0.25014 -0.28929,-0.11964 -0.61346,-0.22863 -0.87439,-0.40484 -0.28639,-0.21783 -0.53639,-0.48369 -0.75541,-0.7681 -0.33547,-0.5757 -0.73668,-1.10449 -1.16626,-1.61211 -0.42304,-0.41046 -0.8183,-0.84778 -1.26995,-1.22738 -0.25225,-0.16234 -0.4677,-0.51282 -0.79616,-0.40702 -1.21967,0.70521 2.15138,-1.30344 3.2511,-1.91314 0.0287,-0.0159 0.0206,0.0636 0.0406,0.0897 0.0392,0.0513 0.0881,0.0945 0.13441,0.13955 0.22582,0.21949 0.21431,0.19821 0.47947,0.40593 0.77373,0.53455 1.47953,1.15196 2.18827,1.76773 0.742,0.69772 1.46629,1.42199 2.29547,2.01683 0.46149,0.36864 1.02759,0.6206 1.44931,1.03801 0.99123,1.55033 -2.46952,2.36538 -3.95772,2.34965 -0.1974,-0.004 -0.39523,-0.001 -0.59235,-0.0142 -0.0188,0.003 -0.10022,-0.01 -0.11049,0.002 -0.0206,0.024 -0.0573,0.10531 -0.0296,0.0901 3.12547,-1.71189 4.12544,-2.72296 3.0606,-1.6765 -0.6721,0.79768 -1.17372,1.71515 -1.72194,2.59754 -0.80677,1.32115 -1.74019,2.55623 -2.67218,3.78978 -0.31523,0.42955 -0.65096,0.84415 -0.96497,1.27461 -0.0625,0.0857 -0.18446,0.33055 -0.27971,0.40448 -0.0409,-0.10109 -0.0817,-0.20217 -0.12253,-0.30326 0,0 -3.16246,2.31546 -3.16246,2.31546 v 0 c -0.0782,-0.0997 -0.15645,-0.19942 -0.23466,-0.29913 -0.005,-0.6027 0.99867,-1.37877 1.27225,-1.88938 0.93051,-1.22382 1.88613,-2.43265 2.67906,-3.75355 0.53793,-0.87321 1.01193,-1.78779 1.63568,-2.60464 0.76216,-1.28322 2.34641,-2.49885 3.83681,-2.23709 0.18468,0.007 0.36946,0.0134 0.5543,0.008 1.58416,-0.0763 1.74908,-1.06877 -2.60236,1.90862 -0.0315,0.0216 0.17092,0.19008 0.0828,0.0793 -0.40235,-0.40236 -0.93736,-0.65699 -1.3712,-1.02135 -0.81502,-0.62668 -1.54641,-1.3499 -2.30037,-2.04736 -0.70953,-0.61152 -1.43084,-1.20512 -2.20337,-1.73649 -0.22566,-0.1774 -0.33385,-0.24983 -0.52985,-0.44821 -1.25939,-1.27465 1.12845,-2.81313 3.07649,-2.60706 0.3587,0.12194 0.62947,0.39087 0.91507,0.63001 0.44682,0.40972 0.86381,0.84855 1.28188,1.2873 0.43113,0.51163 0.83267,1.04438 1.19433,1.60776 0.19976,0.23979 0.42391,0.46951 0.68855,0.63784 0.29784,0.13334 0.59359,0.27207 0.88775,0.41219 0.15698,0.1207 0.29483,0.25012 0.39492,0.42428 0.10811,0.19828 0.14745,0.42495 0.24537,0.63061 0.075,0.27821 0.0217,0.52585 -0.18126,0.73579 -0.14176,0.17782 -0.37918,0.27222 -0.478,0.50592 -2.48806,1.48596 -2.52984,2.07894 -4.52011,2.16688 -1.17891,0.0842 -2.35892,0.14161 -3.54007,0.0505 -1.4441,-0.0758 -2.88727,-0.20766 -4.33438,-0.19251 -1.38409,0.0107 -2.78009,-0.002 -4.14877,0.23025 -0.17018,0.0427 -0.34322,0.0754 -0.51054,0.1282 -0.14897,0.0471 -0.56865,0.25413 -0.43641,0.17093 5.67473,-3.57066 2.95235,-2.01625 2.13297,-1.03047 0,0 -3.56325,1.55905 -3.56325,1.55905 z"
       inkscape:connector-curvature="0" />
    <path
       style="fill:#002b5c;stroke-width:0.26458332"
       id="path1425"
       d="m 280.36992,241.45367 c -0.55747,0.76485 -0.6858,1.48607 -0.48239,2.40132 0.45493,1.10936 1.43831,1.58858 2.5553,1.80313 0.42889,0.007 0.56372,0.0545 0.96319,-0.10892 0.14089,-0.0576 0.52871,-0.30193 0.39502,-0.22915 -0.97187,0.52906 -1.91109,1.12128 -2.90965,1.59807 -0.14798,0.0707 0.22982,-0.23517 0.3289,-0.36583 0.10568,-0.13932 0.18889,-0.29431 0.28335,-0.44147 0.38436,-0.73853 0.60843,-1.5899 0.42936,-2.41666 -0.0681,-0.12969 -0.18695,-0.30204 -0.36348,-0.22203 -0.0493,0.0223 -0.17428,0.127 -0.12674,0.10127 3.13285,-1.69459 4.11562,-2.52382 2.96635,-1.57893 -0.54808,0.90691 0.0406,1.95259 0.46461,2.78293 0.95335,1.57956 2.03883,3.06418 2.87221,4.71505 0.51972,1.31533 0.78388,2.79564 0.18193,4.13632 -0.10488,0.23359 -0.25675,0.44308 -0.38516,0.66461 -0.52538,0.57374 -0.53083,0.66854 -1.23486,1.06232 -1.35647,0.75874 -2.70653,1.53345 -4.10607,2.20951 -0.70009,0.33818 -2.49425,0.49192 -3.28157,0.58067 -1.10705,0.0912 -2.21673,0.18646 -3.32886,0.15449 -0.50781,-0.0146 -1.07426,-0.0409 -1.56353,-0.21225 -0.17745,-0.0621 -0.33292,-0.17492 -0.49937,-0.26238 -0.0992,-0.13904 -0.23199,-0.25945 -0.29774,-0.41711 -0.34909,-0.83697 0.35415,-1.64871 0.81407,-2.25987 0,0 3.49523,-1.49641 3.49523,-1.49641 v 0 c -0.30546,0.36991 -1.15104,1.23742 -0.98782,1.79857 0.03,0.10311 0.12186,0.17682 0.1828,0.26523 0.14025,0.0661 0.2726,0.15249 0.42074,0.1982 0.45111,0.13922 1.00698,0.16976 1.46711,0.18126 1.09585,0.0274 2.18996,-0.07 3.27946,-0.17306 0.90149,-0.12197 1.38964,-0.1608 2.26581,-0.38365 0.33404,-0.085 1.25058,-0.52793 0.98817,-0.30445 -0.71091,0.60549 -1.59607,0.97073 -2.37509,1.48568 -0.22897,0.15134 0.49816,-0.2365 0.72314,-0.39371 0.20648,-0.14427 0.37496,-0.33642 0.56242,-0.50463 0.14004,-0.19745 0.30258,-0.38074 0.42013,-0.59234 0.67776,-1.21982 0.46249,-2.63014 -0.0138,-3.87378 -0.81891,-1.65847 -1.91619,-3.12998 -2.89454,-4.69328 -0.52379,-0.97016 -1.0809,-2.01574 -0.73575,-3.14354 0.79176,-1.46061 0.18542,-0.46078 3.71573,-2.28643 0.25868,-0.13378 0.71935,0.43966 0.78351,0.62553 0.22238,0.90836 0.0377,1.84816 -0.33454,2.69581 -1.0087,1.87832 -1.38618,1.5191 -4.22132,3.1563 -0.44837,0.25893 -1.00801,0.19457 -1.49008,0.12592 -1.27799,-0.3477 -2.22496,-0.90346 -2.78903,-2.15565 -0.25178,-0.96126 -0.23114,-1.80037 0.29948,-2.66762 0,0 3.56325,-1.55904 3.56325,-1.55904 z"
       inkscape:connector-curvature="0" />
    <path
       style="fill:#002b5c;stroke-width:0.26458332"
       id="path1458"
       d="m 37.079208,185.55033 c -0.24212,1.15885 -0.655376,2.27222 -0.986774,3.40687 -0.616154,2.012 -0.731674,4.11913 -0.836457,6.20645 -0.02175,3.05455 -0.308088,6.08758 -0.745937,9.10737 -0.47077,3.02084 -1.100574,6.01374 -1.634072,9.02383 -0.321294,1.80525 -0.611563,3.61544 -0.920673,5.42284 -0.221155,1.34874 -0.477298,2.69211 -0.734499,4.03451 -0.239022,0.96173 -0.409758,1.93984 -0.726255,2.88043 -0.170201,0.53463 -0.493062,0.97522 -0.823701,1.41705 -1.082169,1.3627 -1.877554,1.16547 -3.925398,2.57986 -1.031294,0.71229 2.16907,-1.25651 3.253608,-1.88476 -0.313187,0.26088 0.07153,-0.10089 -0.107008,0.2043 -0.01603,0.0274 -0.05811,0.0257 -0.08681,0.0393 -2.020683,0.95685 -3.251419,2.94584 -3.598959,1.45597 -0.01975,-0.0909 -0.01134,-0.18472 -0.02783,-0.27588 -1.174888,-4.70575 3.378499,-1.70752 4.375539,-1.28524 1.218089,0.36946 2.523193,0.2726 3.777932,0.20028 1.98261,-0.17308 3.967766,-0.17944 5.955361,-0.13885 1.119817,0.0631 2.304756,-0.0117 3.377033,0.37067 0.05014,-0.0408 0.29632,0.24892 0.329012,0.22838 0.02839,-0.0178 -0.02016,-0.0726 -0.0016,-0.10056 0.05134,-0.0775 0.165444,-0.0851 0.245972,-0.13165 0.606251,-0.1418 1.156719,-0.43833 1.682951,-0.76149 -5.113009,3.73027 -3.908599,2.21829 -2.74361,1.56262 1.767123,-0.46146 2.487099,-2.47834 3.934738,-1.76747 0.103095,-0.008 0.194855,0.17159 0.287837,0.17879 0.02569,0.002 0.04514,-0.0288 0.07081,-0.0309 0.0562,0.003 0.111003,-0.003 0.164512,-0.0161 0.733896,-1.0676 -2.208374,1.30503 -3.325249,1.93541 -0.03052,0.0172 -0.01672,-0.13393 0.0032,-0.1051 0.0594,0.13874 0.07399,0.14584 -0.0024,0.0486 -0.413433,-0.36272 -0.720453,-0.80645 -0.996778,-1.28001 -0.366769,-0.67921 -0.558237,-1.42647 -0.770332,-2.16296 -0.159097,-0.61963 -0.587465,-1.01772 -1.164627,-1.24872 -0.0039,-2.6e-4 -0.327263,-0.0404 -0.366152,-0.006 -0.03322,0.0293 -0.05073,0.15506 -0.01278,0.13223 1.109096,-0.66715 2.160323,-1.42766 3.271017,-2.09215 0.01659,-0.01 0.21086,0.16217 0.348462,0.27901 0.863465,0.64424 1.722035,1.29339 2.528347,2.00867 0.562348,0.488 0.998964,1.10225 1.552197,1.59688 0.08316,0.0738 0.210894,0.17893 0.300641,0.18288 0.04756,0.11526 0.117149,0.22374 0.142676,0.34578 0.0085,0.0405 -0.01071,0.094 -0.04628,0.11512 -1.154102,0.68601 -2.334289,1.32714 -3.500178,1.9929 -0.250129,0.14284 -0.492683,0.27891 -0.754348,0.40114 -0.102087,0.0551 -0.406699,0.22336 -0.306261,0.16531 9.997231,-5.77803 -8.394083,4.82914 1.434566,-0.79982 -1.124305,0.72231 -2.170404,1.55192 -3.113606,2.49742 -0.490689,0.48879 -0.907527,1.03364 -1.255599,1.63015 0,0 -3.518577,1.57607 -3.518577,1.57607 v 0 c 0.33184,-0.64369 0.746093,-1.22754 1.259033,-1.74325 0.91517,-0.97603 1.946674,-1.81682 3.05041,-2.57316 12.143216,-7.09695 -2.500175,1.41407 1.537332,-0.92261 3.58139,-2.0727 2.393868,-1.45689 3.935021,-2.24775 0.09832,-0.0525 0.196644,-0.10501 0.294966,-0.15751 0.09074,-0.0507 0.180612,-0.10294 0.272224,-0.15202 0.06992,-0.0375 0.280855,-0.14747 0.212286,-0.10757 -1.064665,0.6194 -2.133934,1.23086 -3.2009,1.84629 0.03252,0.0102 0.07433,0.006 0.09755,0.0307 0.07715,0.0829 0.127926,0.187 0.191891,0.28049 -0.111394,-0.11166 -0.243903,-0.20166 -0.348702,-0.32061 -0.507995,-0.52681 -0.934654,-1.12881 -1.485254,-1.61705 -0.813261,-0.70838 -1.67554,-1.35293 -2.558518,-1.97178 -0.268852,-0.20884 -0.512408,-0.38925 -0.478386,-0.41757 2.533952,-2.10943 2.116125,-2.68606 3.751937,-2.09123 0.630209,0.33745 1.13034,0.83102 1.322668,1.5399 0.195252,0.70764 0.379056,1.42237 0.72312,2.07613 0.270383,0.4581 0.587856,0.85339 1.003445,1.18763 1.026716,0.94413 -2.726811,5.68197 -3.207983,2.4533 -0.06772,-0.0198 -0.137694,-0.0314 -0.204438,-0.0549 -0.132477,-0.0561 -0.236966,-0.16707 -0.381682,-0.20167 -0.16813,-0.0403 -0.388784,0.0237 -0.33256,-0.01 4.454667,-2.66353 3.768777,-3.03518 3.282804,-1.86115 -1.065086,1.0833 -3.77888,0.26762 -3.913672,2.33675 -0.555683,0.29905 -1.13847,0.53206 -1.74245,0.71528 -0.431036,0.0758 -0.378426,-0.0468 -0.713716,-0.21209 -1.029018,-0.32796 -2.144792,-0.28057 -3.209634,-0.34517 -1.987479,-0.0432 -3.971253,-0.0114 -5.952546,0.17151 -1.31881,0.0649 -2.687629,0.16499 -3.949733,-0.30076 -0.03409,-0.0159 -0.975958,-0.45576 -0.891117,-0.5114 0.745081,-0.48861 4.049455,-0.80968 3.319938,-1.93854 -0.0515,-0.0295 -0.06996,0.01 -0.08753,0.0622 -0.289047,1.41904 5.430417,-2.48568 -3.449711,1.93615 -0.04601,0.0229 -0.0071,-0.11627 0.03064,-0.15113 0.02462,-0.0227 0.07456,0.0639 0.09369,0.0364 0.04182,-0.0601 0.02147,-0.1449 0.0322,-0.21736 1.139253,-0.68156 2.345554,-1.26187 3.417762,-2.04468 1.013622,-0.74004 -2.159148,1.28002 -3.241221,1.91579 -0.03838,0.0225 0.07843,-0.0444 0.109846,-0.076 0.145681,-0.14622 0.280085,-0.30874 0.412099,-0.46764 0.376274,-0.36742 0.691896,-0.81993 0.905253,-1.30018 0.379135,-0.91521 0.546423,-1.8899 0.792673,-2.84567 0.292455,-1.33835 0.512998,-2.69295 0.768149,-4.03887 0.328086,-1.82079 0.635289,-3.64535 0.988515,-5.46155 0.60692,-3.00545 1.23139,-6.00987 1.703459,-9.04003 0.435986,-2.99961 0.727832,-6.01393 0.713055,-9.04936 0.07313,-2.0926 0.133035,-4.21152 0.706985,-6.24007 0.302064,-1.10862 0.700424,-2.19268 0.926227,-3.32073 0,0 3.490889,-1.71674 3.490889,-1.71674 z"
       inkscape:connector-curvature="0" />
    <path
       style="fill:#002b5c;stroke-width:0.26458332"
       id="path1460"
       d="m 83.334399,228.06011 c 1.529982,0.16987 3.07201,0.19134 4.609676,0.22143 1.756352,0.0276 3.512958,0.0246 5.26945,0.0178 0.8001,0.0235 1.654966,-0.10578 2.426327,0.17312 1.270984,1.03538 -2.366902,1.74841 -3.254608,2.21092 -0.01558,0.008 -0.239027,-0.15636 -0.332843,-0.22359 -0.491662,-0.25525 -0.894543,-0.6355 -1.312643,-0.99167 -0.424942,-0.43061 -0.785077,-0.91895 -1.23117,-1.32849 -0.427865,-0.3697 -0.840756,-0.75612 -1.316752,-1.06328 -0.01357,-0.003 -0.205742,-0.0635 -0.242435,-0.0318 -0.02881,0.0249 -0.06158,0.12896 -0.02817,0.11071 1.096158,-0.59886 4.348271,-2.45994 3.247387,-1.86982 0.512485,0.51368 1.185148,0.83812 1.803863,1.20494 0.86854,0.46428 1.659774,1.05429 2.299081,1.80447 0.356648,0.50216 0.722686,1.12604 0.491307,1.76312 -0.0437,0.12033 -0.121081,0.22561 -0.18162,0.33842 -0.309825,0.32265 -0.334317,0.39079 -0.746789,0.62666 -1.27671,0.73009 -2.549777,1.46815 -3.852987,2.14981 -0.207277,0.10842 -0.44378,0.14837 -0.668017,0.21497 -0.505778,0.1502 -1.017114,0.28102 -1.525175,0.42331 -0.941946,0.2491 -0.486241,0.11954 -1.367875,0.386 0,0 3.018785,-2.32679 3.018785,-2.32679 v 0 c 0.873712,-0.24482 0.423611,-0.12153 1.350563,-0.36894 0.257283,-0.0735 0.515382,-0.14423 0.77185,-0.22053 0.251677,-0.0749 0.504288,-0.1473 0.752502,-0.23295 0.221064,-0.0763 0.849572,-0.38161 0.654523,-0.25259 -0.877636,0.58051 -1.812504,1.06955 -2.7129,1.6141 -0.143816,0.087 0.299133,-0.15394 0.442789,-0.24119 0.116062,-0.0705 0.223528,-0.15423 0.335293,-0.23136 0.599024,-0.62701 0.388056,-0.98711 -0.06105,-1.65427 -0.621274,-0.71377 -1.390618,-1.25909 -2.224572,-1.70213 -0.676301,-0.39488 -1.416515,-0.74308 -1.951037,-1.32945 -0.04852,-0.0791 -0.109617,-0.15176 -0.145563,-0.23732 -0.616236,-1.46666 2.594281,-2.94553 3.817958,-2.02963 0.47112,0.34297 0.899155,0.73804 1.336064,1.12286 0.428183,0.41755 0.800822,0.88558 1.225127,1.30678 0.410858,0.34587 0.813019,0.69872 1.296688,0.94283 1.365224,0.78276 1.066787,-0.46257 -2.93148,2.22665 -0.04999,0.0336 0.144936,0.12081 0.01474,0.0877 -0.740415,-0.18828 -1.513588,-0.11839 -2.269117,-0.14014 -1.748067,-0.01 -3.496198,-0.0182 -5.244107,-0.0446 -1.576285,-0.0288 -3.153974,-0.0597 -4.726406,-0.18089 0,0 3.163345,-2.24525 3.163345,-2.24525 z"
       inkscape:connector-curvature="0" />
    <path
       style="fill:#002b5c;stroke-width:0.26458332"
       id="path1462"
       d="m 120.7081,226.9067 c 1.03731,-0.0604 2.0819,0.01 3.12096,0.0356 1.23227,0.029 2.46493,0.0344 3.69748,0.0313 0.70004,-0.003 1.40007,-0.008 2.10011,-0.01 0.21021,-0.0391 0.44532,0.0404 0.65408,-0.005 0.0691,-0.0151 0.15998,-0.0944 0.21503,-0.1374 -1.09469,0.70526 -2.18937,1.41051 -3.28406,2.11577 -0.55171,-0.0994 -1.09587,-0.23196 -1.64598,-0.34028 -0.55948,-0.14154 -1.01704,-0.502 -1.37905,-0.93979 -0.28762,-0.39447 -0.56871,-0.78692 -0.9482,-1.09719 -0.0692,-0.12598 -0.28795,-0.13802 -0.37144,-0.24214 -0.83671,-1.04337 2.2616,-1.4314 3.4334,-2.07606 0.57498,0.32374 1.16496,0.60781 1.64397,1.06854 0.44098,0.34975 0.65651,0.81546 0.77222,1.35193 0.13402,0.68775 -0.0684,1.29886 -0.44466,1.86729 -0.27453,0.3434 -0.65085,0.56105 -1.01658,0.79095 0,0 -3.59176,1.38822 -3.59176,1.38822 v 0 c 0.35738,-0.21023 0.72698,-0.40348 1.05776,-0.65529 0.4072,-0.44633 0.66476,-0.93901 0.566,-1.56064 -0.0786,-0.47108 -0.25731,-0.84186 -0.64094,-1.14629 -0.46411,-0.41984 -1.03954,-0.68345 -1.5975,-0.95719 1.0606,-0.6979 2.14375,-1.36267 3.18179,-2.09369 0.0328,-0.0231 -0.0609,-0.059 -0.0694,-0.0982 -0.0345,-0.15953 0.39072,0.4419 0.38136,0.30668 0.37199,0.34393 0.66966,0.74575 0.97515,1.14841 0.32839,0.37266 0.72797,0.644 1.22488,0.7338 0.61567,0.13363 1.31367,0.17967 1.83235,0.55729 -2.7271,1.98437 -2.12091,2.3601 -4.08708,2.30099 -0.68962,-0.002 -1.37923,-0.006 -2.0688,-0.0153 -1.22793,-0.0146 -2.45588,-0.0274 -3.6837,-0.0496 -1.04557,-0.0207 -2.10391,-0.0984 -3.14186,0.0583 0,0 3.11446,-2.33101 3.11446,-2.33101 z"
       inkscape:connector-curvature="0" />
    <path
       style="fill:#002b5c;stroke-width:0.26458332"
       id="path1464"
       d="m 164.01642,225.8039 c 0.97639,0.33097 2.03218,0.34254 3.05394,0.37668 0.77864,0.0391 1.54771,-0.12135 2.31929,-0.20289 0.18311,-0.0767 0.43931,0.0151 0.62107,-0.0638 0.035,-0.0152 0.10895,-0.10512 0.0767,-0.0848 -3.39165,2.13549 -2.09527,2.61553 -3.45982,2.06046 -0.59129,-0.11895 -1.0607,-0.44286 -1.40588,-0.92789 -0.26114,-0.3635 -0.47528,-0.75607 -0.74266,-1.11588 -0.16299,-0.20943 -0.34006,-0.4081 -0.53002,-0.59343 -1.00909,-0.9371 -0.21597,-0.1835 3.4651,-2.01564 0.0791,-0.0394 0.15277,0.0891 0.2272,0.1368 0.28628,0.18346 0.56666,0.37829 0.84609,0.57192 0.66916,0.47996 1.35642,0.92169 2.07092,1.33076 0.50363,0.32119 0.92148,0.46677 0.87932,1.13012 -1.26218,1.64621 -3.4994,2.14473 -5.371,2.77847 -0.50769,0.1705 -0.99297,0.39773 -1.48617,0.60475 0,0 3.0153,-2.37814 3.0153,-2.37814 v 0 c 0.49513,-0.20485 0.98914,-0.41415 1.49907,-0.58041 0.32491,-0.10838 0.65285,-0.20802 0.97491,-0.3246 0.13385,-0.0485 0.26655,-0.1004 0.39691,-0.15757 0.10533,-0.0462 0.40848,-0.21104 0.30961,-0.15227 -3.0608,1.81926 -4.26609,2.06457 -2.91802,1.76895 0.57159,0.0875 -0.50679,-0.5765 -0.5431,-0.58761 -0.70814,-0.43087 -1.39928,-0.88247 -2.08274,-1.35145 -1.87809,-1.23999 -1.69738,-0.2769 2.0363,-2.84308 0.0119,-0.008 0.0188,0.0218 0.0282,0.0327 0.18234,0.21256 0.36201,0.42751 0.53454,0.64815 0.2578,0.36598 0.47945,0.75374 0.73442,1.12115 0.32782,0.44577 0.82012,0.59666 1.32375,0.7796 1.27962,0.85434 0.35356,0.14009 -2.87945,2.47516 -0.0799,0.0577 -0.65485,-0.0431 -0.73076,0.0492 -0.77079,0.0863 -1.54359,0.1978 -2.32133,0.13282 -1.06346,-0.0526 -2.14516,-0.10745 -3.16209,-0.45058 0,0 3.22043,-2.16766 3.22043,-2.16766 z"
       inkscape:connector-curvature="0" />
    <path
       style="fill:#002b5c;stroke-width:0.26458332"
       id="path1466"
       d="m 196.73945,227.17683 c 1.30738,-0.0872 2.61707,-0.13211 3.92673,-0.16689 1.13178,0.0267 2.25299,-0.1205 3.37883,-0.20675 0.61806,-0.13585 1.67596,0.0667 2.23636,-0.16698 -1.9582,1.39071 -2.54808,2.37182 -4.41516,2.01541 -0.48441,-0.0351 -0.83424,-0.28743 -1.20172,-0.57697 -0.39746,-0.35178 -0.80127,-0.70396 -1.25928,-0.97544 -0.19184,-0.0902 -0.38181,-0.21614 -0.59457,-0.25341 1.13309,-0.68746 2.23258,-1.43363 3.39926,-2.0624 0.0677,-0.0365 0.12811,0.0854 0.19335,0.12622 0.42018,0.26301 0.82993,0.52884 1.22946,0.82306 0.53415,0.40661 1.08507,0.79533 1.51952,1.31256 0.44758,0.6924 0.34881,1.04494 -0.19431,1.63641 -1.76756,1.41929 -3.80571,2.48839 -5.91457,3.30975 0,0 2.99766,-2.35713 2.99766,-2.35713 v 0 c 0.20147,-0.0826 0.40484,-0.16073 0.6044,-0.24784 0.19883,-0.0868 0.77479,-0.38817 0.59048,-0.27372 -0.89005,0.55267 -1.8072,1.06046 -2.71097,1.59042 -0.15953,0.0935 0.32276,-0.18112 0.47828,-0.2812 0.13296,-0.0856 0.25756,-0.18351 0.38634,-0.27527 0.44429,-0.35325 0.81726,-0.52949 0.43226,-1.09941 -0.41415,-0.48989 -0.93871,-0.86083 -1.44691,-1.24618 -2.12377,-1.50863 -2.28981,-0.40872 1.68725,-3.14974 0.20788,0.10853 0.41638,0.21643 0.6119,0.3467 0.44606,0.3064 0.86015,0.65467 1.27878,0.99674 0.33809,0.24005 0.66368,0.39433 1.08808,0.41839 2.39564,0.21435 1.35046,0.50397 -1.86573,2.57693 -0.74024,0.0152 -1.48073,0.0325 -2.21892,0.0947 -1.12016,0.0917 -2.23901,0.19139 -3.36466,0.17127 -1.32344,0.0342 -2.64996,0.0724 -3.96503,0.23542 0,0 3.11289,-2.31469 3.11289,-2.31469 z"
       inkscape:connector-curvature="0" />
    <path
       style="fill:#002b5c;stroke-width:0.26458332"
       id="path1468"
       d="m 239.93275,227.17304 c 1.087,0.0263 2.17431,0.0431 3.2616,0.0519 0.79042,0.003 1.58126,0.0139 2.37158,-0.004 1.44134,-0.0343 1.05226,-0.44748 -3.07039,1.80109 1.1193,-0.88467 0.22907,-0.18787 3.54713,-2.02911 0.0421,-0.0234 0.16634,-0.0199 0.21295,-0.0407 1.178,-0.52406 -2.16925,1.39418 -3.24953,2.09798 -0.2488,-0.0221 -0.43387,-0.14796 -0.62088,-0.30753 -0.29281,-0.29699 -0.62251,-0.547 -0.94493,-0.8106 -0.45631,-0.29226 -0.87623,-0.63576 -1.25346,-1.02403 -1.0091,-1.47712 2.00798,-3.04228 3.49713,-2.51365 0.4448,0.0781 0.80387,0.32169 1.16642,0.57703 0.53162,0.34298 1.07097,0.66265 1.6288,0.9606 0.39497,0.2478 1.05638,0.35117 1.30573,0.79613 0.0428,0.0763 0.054,0.1665 0.0809,0.24975 -0.01,0.0852 -0.004,0.17383 -0.0295,0.25561 -0.0468,0.14794 -0.19971,0.32743 -0.32777,0.40411 -1.59428,0.95462 -2.68752,1.76857 -4.24323,2.33825 0.73791,-0.53009 -1.77856,0.94979 -1.00349,0.50132 5.35383,-3.09788 3.40054,-2.02695 2.29108,-1.26237 -0.41319,0.31332 -0.21038,0.15321 -0.60853,0.48015 0,0 -3.57879,1.44832 -3.57879,1.44832 v 0 c 0.3926,-0.34436 0.19294,-0.17473 0.59912,-0.50876 1.63467,-1.23827 3.4558,-2.23961 5.33833,-3.04822 0.11048,-0.0485 0.22248,-0.0937 0.33144,-0.14551 1.98052,-0.94156 -4.58251,2.63227 -2.22754,1.3477 0.086,-0.0589 0.0786,-0.0299 -0.0567,-0.14545 -0.31911,-0.27244 -0.74641,-0.38477 -1.10243,-0.59643 -0.57152,-0.30248 -1.12553,-0.63296 -1.6712,-0.98 -0.3325,-0.21075 -0.66228,-0.4004 -1.06943,-0.40175 -1.27967,0.51743 0.62276,-0.24646 3.14478,-1.82222 0.0339,-0.0212 -0.38224,-0.23413 -0.14283,0.0385 0.36184,0.38078 0.7857,0.68951 1.21725,0.98644 0.32701,0.2549 0.6486,0.51388 0.95885,0.78875 0.22521,0.14231 0.50153,0.18289 0.68315,0.39343 -1.05407,0.7635 -2.10143,1.53635 -3.16222,2.29049 -0.007,0.005 -0.3245,0.12678 -0.23238,0.0734 3.17233,-1.83812 4.37271,-2.43156 3.1585,-1.8289 -3.49997,1.93905 -2.18911,1.99372 -3.71961,1.92482 -0.77153,-0.0272 -1.54399,-0.0239 -2.31579,-0.0391 -1.09186,-0.016 -2.18871,-0.0566 -3.27819,0.0252 0,0 3.11414,-2.32226 3.11414,-2.32226 z"
       inkscape:connector-curvature="0" />
    <path
       style="fill:#002b5c;stroke-width:0.26458332"
       id="path1470"
       d="m 108.01778,184.59953 c -0.37586,1.34206 -0.40095,2.7483 -0.38343,4.13197 0.0598,1.89621 -0.18365,3.77124 -0.44403,5.64357 -0.337,1.94908 -0.5395,3.91406 -0.64767,5.88791 -0.0913,1.66788 0.0403,3.33685 0.11309,5.00293 0.0373,1.3314 -0.0824,2.65474 -0.22662,3.97596 -0.0987,0.82352 -0.15006,1.65116 -0.17292,2.47993 -0.039,0.46987 0.0771,0.92385 0.1745,1.37812 0.0718,0.18146 0.21323,0.45358 0.43651,0.37648 0.36489,-0.0697 0.69249,-0.24162 1.00095,-0.44695 -5.62695,3.20214 -3.48387,2.27164 -2.52102,1.28826 0.34012,-0.34737 0.64132,-0.73339 0.95268,-1.10596 0.27212,-0.35314 0.55926,-0.69448 0.83176,-1.04731 0.10513,-0.13612 0.21341,-0.33165 0.34393,-0.45123 0.53342,1.38568 -2.69043,1.91867 3.14345,-1.34384 0.10784,-0.0603 -0.20393,0.13975 -0.30224,0.21459 -0.15808,0.12034 -0.60305,0.49182 -0.74141,0.60642 -0.8057,0.65831 -1.57061,1.35986 -2.30999,2.09121 -0.41379,0.44626 -0.89888,0.82342 -1.29131,1.28971 -4.8117,2.40553 -2.72975,2.52595 -4.15535,0.69928 -0.64172,-0.67743 -1.48502,-1.10094 -2.306996,-1.51601 -0.868895,-0.39261 -1.696765,-0.86062 -2.535283,-1.31071 0,0 3.249279,-2.11336 3.249279,-2.11336 v 0 c 0.80537,0.48297 1.62852,0.92979 2.48264,1.32295 0.87406,0.44296 1.76387,0.90229 2.43769,1.63215 1.37826,1.73982 0.1123,1.16476 -2.79615,2.73977 0.29169,-0.14999 0.50036,-0.47222 0.74027,-0.69285 0.0987,-0.0908 0.20723,-0.17068 0.30528,-0.26223 0.1094,-0.10214 0.21105,-0.21227 0.31658,-0.3184 0.74073,-0.73785 1.49236,-1.46207 2.30422,-2.12188 1.17917,-1.01914 3.9704,-3.49796 4.81902,-2.85328 0.0816,0.062 0.11394,0.17034 0.1709,0.25552 -0.0323,0.52148 -0.91761,1.21182 -1.17425,1.67902 -1.72035,2.06634 -1.68378,2.12059 -4.98434,3.75866 -0.37308,0.176 -0.77172,0.34578 -1.18886,0.23004 -0.3189,-0.16793 -0.54468,-0.41817 -0.66745,-0.76157 -0.0889,-0.48609 -0.2245,-0.97335 -0.18306,-1.47167 0.0232,-0.84435 0.0701,-1.68843 0.18724,-2.52574 0.16555,-1.30782 0.3092,-2.61748 0.28657,-3.93876 -0.0632,-1.68188 -0.18724,-3.36678 -0.10082,-5.0496 0.10895,-1.98488 0.3013,-3.96207 0.64598,-5.92148 0.25211,-1.85024 0.50793,-3.70078 0.43626,-5.57473 -0.0307,-1.40848 0.004,-2.8167 0.24535,-4.20891 0,0 3.50905,-1.64798 3.50905,-1.64798 z"
       inkscape:connector-curvature="0" />
    <path
       style="fill:#002b5c;stroke-width:0.26458332"
       id="path1472"
       d="m 185.14459,184.95412 c 0.30538,1.26623 0.47247,2.53799 0.46637,3.83998 -0.1493,1.99531 -0.53657,3.96448 -0.84803,5.93896 -0.38454,2.31093 -0.62377,4.64374 -0.81726,6.97754 -0.1191,2.02326 -0.28533,4.04315 -0.53069,6.05505 -0.17303,1.34755 -0.36466,2.69575 -0.31752,4.05669 0.0232,0.61233 0.14118,1.21761 0.12853,1.83088 -0.0497,0.47751 -0.28376,0.89008 -0.5077,1.30315 -0.79607,1.44204 3.31706,-0.57239 -3.62352,1.64971 -0.0988,0.0316 0.0825,-0.19118 0.1368,-0.27958 0.0667,-0.1086 0.14993,-0.20615 0.2249,-0.30923 0.77262,-0.89441 1.64501,-1.69088 2.50937,-2.49377 0.60357,-0.57123 1.19243,-1.15781 1.76926,-1.75598 0.1038,-0.1133 0.0769,-0.12008 0.16411,0.18483 0.0207,0.0726 -0.0442,0.25834 0.0236,0.22521 5.35383,-2.61511 3.73694,-2.20712 2.48104,-1.34721 -0.81235,0.59413 -1.5727,1.25414 -2.31431,1.93328 -0.32815,0.33401 -0.72629,0.61386 -0.98116,1.01235 -1.03254,1.06477 -2.47129,2.79592 -3.94294,2.28743 -0.39224,-0.0989 -0.75137,-0.27807 -1.09223,-0.49431 -0.66282,-0.4762 -1.18332,-1.11371 -1.69216,-1.74449 -0.50233,-0.63155 -1.03653,-1.2366 -1.54129,-1.86573 -0.0529,-0.0682 -0.10572,-0.13636 -0.15858,-0.20454 0,0 3.34091,-1.98197 3.34091,-1.98197 v 0 c 0.0482,0.067 0.0965,0.1341 0.14472,0.20115 0.49204,0.6354 1.00988,1.24968 1.51315,1.87626 0.48577,0.59491 0.9937,1.19328 1.6512,1.60534 0.29591,0.1559 0.63507,0.33832 0.98022,0.29057 1.01782,-1.08363 -4.62229,2.90331 -2.80134,1.54755 0.14587,-0.11695 0.18964,-0.26865 0.31193,-0.40953 0.20965,-0.24153 0.48678,-0.42422 0.70079,-0.66151 0.74557,-0.67947 1.49496,-1.35744 2.29985,-1.96689 1.21081,-1.00037 3.02284,-1.90656 4.18535,-2.47652 0.1809,-0.0887 0.38244,0.36848 0.39426,0.42676 0.007,0.0322 -0.0468,0.0462 -0.0703,0.0693 -0.60913,0.60422 -1.22106,1.20568 -1.83907,1.80083 -0.84008,0.79634 -1.71381,1.55719 -2.47971,2.42828 -0.0785,0.0831 -0.16149,0.16215 -0.23559,0.24918 -0.0552,0.0648 -0.0756,0.16719 -0.15157,0.20551 -1.20141,0.60566 -2.44828,1.11761 -3.65467,1.71329 -0.0268,0.0132 0.0398,0.062 0.0693,0.0571 0.0715,-0.0121 0.0329,-0.19012 0.11513,-0.18447 0.22381,-0.37298 0.46392,-0.73583 0.59378,-1.15375 0.0885,-0.59927 -0.0877,-1.21115 -0.0695,-1.81429 -0.0354,-1.39186 0.15956,-2.76782 0.35732,-4.14354 0.26828,-2.01133 0.44889,-4.03373 0.57528,-6.05881 0.19535,-2.33957 0.43029,-4.67947 0.80122,-6.99829 0.29019,-1.95237 0.65545,-3.8971 0.82206,-5.86553 0.0147,-1.25888 -0.13223,-2.4879 -0.50608,-3.69486 0,0 3.41467,-1.86131 3.41467,-1.86131 z"
       inkscape:connector-curvature="0" />
    <path
       style="fill:#002b5c;stroke-width:0.26458332"
       id="path1474"
       d="m 261.07485,185.03423 c -0.0609,1.33025 -0.3397,2.62103 -0.69494,3.89928 -0.52567,1.90772 -0.95345,3.83921 -1.34549,5.77807 -0.3449,1.88864 -0.57652,3.79628 -0.82021,5.70012 -0.18321,1.498 -0.51486,2.97399 -0.9434,4.41971 -0.35716,1.04031 -0.53034,2.1197 -0.61946,3.21162 -0.0282,0.9271 -0.1347,1.84771 -0.36397,2.7466 -0.18166,0.52728 -0.31876,1.0567 -0.24005,1.61513 0.0563,0.27588 0.16596,0.50699 0.37284,0.69723 0.16036,0.11805 0.0557,-0.0478 0.20097,0.23472 0.0187,0.0759 0.0201,0.1544 0.024,0.2321 -0.0311,-0.0657 -0.0773,-0.12621 -0.0932,-0.19715 -0.0189,-0.0845 0.71526,-0.35909 0.79895,-0.39278 1.2753,-0.84411 0.0559,-0.028 -2.65389,1.49739 -0.12657,0.0712 0.24537,-0.15563 0.36495,-0.23806 0.41631,-0.28699 0.81433,-0.6019 1.21586,-0.90887 0.35724,-0.28102 0.71499,-0.56261 1.05624,-0.86316 0.0987,-0.0869 0.24311,-0.27202 0.36828,-0.33879 0.006,0.053 0.0398,0.11065 0.0175,0.1591 -0.0467,0.1013 -1.33802,0.69063 -1.48381,0.76385 -1.49997,0.90224 0.20851,-0.12944 2.34477,-1.33605 0.16119,-0.091 -0.31455,0.19533 -0.47107,0.29419 -0.46555,0.29402 -0.93053,0.58902 -1.39562,0.88378 -0.49295,0.36179 -1.02567,0.68162 -1.45942,1.11681 -0.87041,0.95127 -3.61377,3.13458 -3.69318,1.69249 0.048,-0.0408 -0.14898,-0.28592 -0.32091,-0.50861 -0.58162,-0.73307 -1.10039,-1.50734 -1.56289,-2.32028 -0.34315,-0.61162 -0.61519,-1.25858 -0.81832,-1.92901 0,0 3.40337,-1.85275 3.40337,-1.85275 v 0 c 0.16639,0.65162 0.40769,1.27985 0.74331,1.86467 0.44617,0.79889 0.9677,1.54844 1.56062,2.24625 0.15176,0.17865 0.48086,0.47896 0.48774,0.72603 -0.13002,1.47404 -4.39993,3.02631 -3.39513,1.59566 0.4107,-0.51372 0.9624,-0.84627 1.48147,-1.24116 1.98993,-1.2811 4.00848,-2.51951 6.09881,-3.63291 0.3483,-0.17051 1.34597,-0.76963 1.7413,-0.5194 0.0949,0.0601 0.14707,0.16993 0.2206,0.25489 0.008,0.0688 0.0372,0.13826 0.0243,0.20631 -0.082,0.43405 -1.08864,1.00217 -1.38346,1.31518 -1.7244,1.33893 -3.48635,2.62519 -5.53823,3.46553 -0.4173,0.16053 -0.88433,0.47049 -1.16357,-0.0327 0.006,-0.0529 0.007,-0.10673 0.0173,-0.15877 0.19964,0.29226 -0.0119,0.005 -0.0798,-0.0426 -0.22668,-0.2654 -0.38878,-0.55934 -0.46263,-0.90387 -0.13412,-0.60622 -0.0404,-1.21329 0.18425,-1.78856 0.27988,-0.86764 0.39476,-1.7766 0.42042,-2.68646 0.0778,-1.11941 0.22789,-2.23203 0.59952,-3.29721 0.45867,-1.42884 0.81751,-2.89406 1.01574,-4.38281 0.25063,-1.91446 0.48867,-3.83254 0.82846,-5.73347 0.38938,-1.93907 0.80388,-3.87331 1.30161,-5.78796 0.34742,-1.23148 0.63539,-2.47205 0.64792,-3.75949 0,0 3.46158,-1.76376 3.46158,-1.76376 z"
       inkscape:connector-curvature="0" />
    <path
       style="fill:#68b6d9;stroke-width:0.26458332"
       id="path1519"
       d="m 33.09063,149.8795 c -1.029674,3.43906 -1.972611,6.90316 -2.984055,10.34756 -1.48453,4.92166 -2.953515,9.84767 -4.401945,14.78009 -0.547041,1.91265 -0.985378,3.85145 -1.397809,5.79639 0,0 -4.712448,2.27566 -4.712448,2.27566 v 0 c 0.4366,-1.96887 0.898368,-3.93147 1.458673,-5.86975 1.498364,-4.92366 2.986687,-9.85065 4.433986,-14.78954 0.954268,-3.37994 1.873004,-6.77381 2.6549,-10.19799 0,0 4.948698,-2.34242 4.948698,-2.34242 z"
       inkscape:connector-curvature="0" />
    <path
       style="fill:#68b6d9;stroke-width:0.26458332"
       id="path1521"
       d="m 29.973317,183.15023 c 2.41432,0.21739 4.836115,0.37086 7.256873,0.50557 4.832879,0.29546 9.674071,0.31103 14.514144,0.33265 7.330636,0.0189 14.660348,-0.16345 21.988261,-0.34527 9.161357,-0.22556 18.325558,-0.27801 27.489235,-0.30861 10.48998,0.0709 20.98102,0.0917 31.47088,-0.003 11.23025,-0.13454 22.45842,-0.41298 33.68593,-0.68989 10.45777,-0.25859 20.91844,-0.35821 31.37895,-0.4164 9.22425,-0.13972 18.4484,-0.27475 27.67332,-0.3618 7.17465,-0.0553 14.34939,-0.10123 21.52416,-0.13866 4.41754,-0.0235 8.8351,-0.0443 13.2527,-0.0517 3.18243,-0.0432 6.36988,0.0714 9.54973,-0.0849 1.54432,-0.0526 3.05083,-0.41295 4.55633,-0.72624 1.18753,-0.16507 2.36837,-0.32267 3.54455,-0.55933 0.11337,-0.0486 0.23278,-0.085 0.34014,-0.14578 0.0736,-0.0416 0.27102,-0.20105 0.19791,-0.1586 -1.06786,0.62006 -3.49932,3.43271 -4.79726,2.65293 -0.35238,-0.15499 -0.16756,-0.0844 -0.55574,-0.20827 0,0 4.55957,-3.07053 4.55957,-3.07053 v 0 c 0.44032,0.18497 0.22905,0.0827 0.63476,0.30481 2.44195,1.71779 -2.6035,3.47887 -4.7485,3.92539 -1.1684,0.20334 -2.34799,0.32156 -3.51198,0.54923 -1.49135,0.31565 -2.9987,0.57745 -4.52831,0.59053 -3.15499,0.0723 -6.31227,-0.0316 -9.46791,0.002 -4.36892,-0.009 -8.73779,-0.0335 -13.10668,-0.0539 -7.1045,-0.0286 -14.20912,-0.0537 -21.31364,-0.01 -9.19681,0.0579 -18.39261,0.19129 -27.58892,0.29849 -10.42971,0.0383 -20.85976,0.10692 -31.28688,0.36046 -11.22926,0.26411 -22.4588,0.53883 -33.6903,0.685 -10.52301,0.11123 -21.0473,0.11771 -31.570753,0.0731 -9.195758,0.0534 -18.392185,0.12532 -27.584749,0.39118 -7.387466,0.2091 -14.776273,0.43182 -22.16708,0.45882 -4.902602,0.0132 -9.80567,0.0211 -14.703578,-0.22719 -2.497937,-0.11343 -4.996238,-0.24126 -7.491443,-0.39892 0,0 4.49628,-3.17025 4.49628,-3.17025 z"
       inkscape:connector-curvature="0" />
    <path
       style="fill:#68b6d9;stroke-width:0.26458332"
       id="path1523"
       d="m 274.6362,181.95959 c -0.18023,-1.48925 -0.39799,-2.97048 -0.51525,-4.4675 -0.0855,-2.27203 0.23696,-4.53063 0.49726,-6.78161 0.27956,-2.863 0.1978,-5.72928 -0.12864,-8.58177 -0.33351,-2.58742 -0.90009,-5.12507 -1.56303,-7.64443 -0.4314,-1.83414 -0.83727,-3.33575 -1.88791,-4.91468 -0.52006,-0.66963 -1.13487,-0.9938 -1.9627,-1.05466 0,0 4.47564,-3.13152 4.47564,-3.13152 v 0 c 0.89545,0.2451 1.61504,0.67696 2.16834,1.44899 0.35102,0.54685 0.54208,0.80326 0.81618,1.40497 0.53684,1.17844 0.76753,2.4533 1.10604,3.69415 0.62963,2.55695 1.19441,5.12407 1.53506,7.73892 0.35055,2.88264 0.45265,5.7775 0.21008,8.67628 -0.23646,2.21142 -0.53353,4.42719 -0.47572,6.65642 0.11869,1.47494 0.31271,2.93605 0.59063,4.38948 0,0 -4.86598,2.56696 -4.86598,2.56696 z"
       inkscape:connector-curvature="0" />
    <path
       style="fill:#68b6d9;stroke-width:0.26458332"
       id="path1525"
       d="m 35.607717,145.35952 c 2.446205,0.17231 4.911654,0.072 7.36405,0.0574 4.823156,-0.0138 9.644044,0.20646 14.462678,0.39324 7.471219,0.34924 14.949799,0.21356 22.423702,0.0635 9.64048,-0.19829 19.27788,-0.4921 28.920853,-0.53079 10.31888,0.0114 20.63708,0.15611 30.95594,0.10413 9.85113,-0.048 19.69882,-0.31871 29.54829,-0.481 9.61792,-0.16072 19.23664,-0.30192 28.85391,-0.50013 9.1786,-0.18005 18.3535,-0.51243 27.52551,-0.89817 8.07229,-0.418 16.1464,-0.80723 24.22324,-1.12643 5.79597,-0.21999 11.59556,-0.3185 17.395,-0.38756 2.75672,-0.003 5.51476,-0.0979 8.27045,-0.005 0,0 -4.32213,3.11695 -4.32213,3.11695 v 0 c -2.70608,-0.10045 -5.41499,-0.0525 -8.12248,-0.075 -5.7256,0.002 -11.45155,0.0518 -17.17432,0.24601 -8.04406,0.28526 -16.08461,0.66281 -24.12403,1.05597 -9.15409,0.36973 -18.31142,0.67133 -27.47145,0.84642 -9.61716,0.19404 -19.23552,0.34161 -28.85333,0.49739 -9.83552,0.16063 -19.66965,0.41513 -29.50694,0.44402 -10.3207,0.0414 -20.64081,-0.10755 -30.96158,-0.0997 -9.682306,0.061 -19.358325,0.37574 -29.037066,0.62546 -7.53844,0.18388 -15.080462,0.33614 -22.618901,0.0438 -4.87585,-0.14646 -9.754981,-0.3135 -14.633498,-0.24028 -2.528861,0.0432 -5.064882,0.16667 -7.591542,0.0254 0,0 4.473644,-3.17525 4.473644,-3.17525 z"
       inkscape:connector-curvature="0" />
    <path
       style="fill:#68b6d9;stroke-width:0.26458332"
       id="path1527"
       d="m 72.139967,175.46461 c 0.993351,-1.9298 1.902494,-3.9016 2.872718,-5.8433 1.214491,-2.61199 2.778189,-5.01985 4.439986,-7.36308 0.973268,-1.16267 1.655279,-2.56572 2.665323,-3.69606 1.671196,-0.85168 3.273459,-1.8549 5.013589,-2.55504 0.4664,-0.18766 0.763376,3.19411 0.781042,3.35373 0.224833,1.11787 0.131996,2.95875 0.854446,3.89385 0.06225,0.12933 0.33963,-0.28518 0.240681,-0.23329 -1.52722,0.80089 -2.994113,1.7136 -4.522597,2.51208 -0.119899,0.0626 0.198091,-0.18637 0.278633,-0.29505 0.218151,-0.29437 0.35466,-0.64039 0.506745,-0.96918 0.549876,-1.34058 1.11887,-2.66906 1.845847,-3.92402 1.446702,-2.17522 4.281999,-5.27082 6.952719,-4.06325 1.227714,1.24141 1.469707,3.10406 1.843029,4.73773 0.519885,2.3917 1.145082,4.75616 1.86332,7.09543 0.297275,1.09036 0.774843,2.12066 1.041336,3.21897 0,0 -4.83054,2.58225 -4.83054,2.58225 v 0 c -0.168338,-1.10959 -0.684186,-2.12949 -0.926266,-3.22375 -0.683882,-2.36066 -1.284656,-4.74423 -1.854335,-7.13485 -0.3009,-1.21895 -0.623231,-3.36879 -1.66905,-4.18084 -0.105018,-0.01 -0.210648,-0.0451 -0.315058,-0.03 -0.104399,0.0151 -0.195755,0.0787 -0.293634,0.118 1.431361,-0.85075 2.86272,-1.70149 4.294078,-2.55224 0.142793,-0.082 -0.266456,0.19497 -0.386394,0.3078 -0.352269,0.3314 -0.460643,0.52571 -0.746721,0.92417 -0.770792,1.20985 -1.364123,2.50584 -1.865889,3.84933 -0.03364,0.0845 -0.376399,0.95152 -0.42926,1.06408 -0.939617,2.00073 -3.939146,4.50676 -5.773274,2.97376 -0.724099,-1.23015 -0.636929,-2.79824 -0.886116,-4.16293 -0.09943,-0.74773 -0.146513,-1.52452 -0.329991,-2.25855 -0.03222,-0.1289 -0.07121,-0.25721 -0.126723,-0.37793 -0.01569,-0.0341 -0.11471,-0.0576 -0.08245,-0.0769 1.523786,-0.91122 3.084005,-1.76009 4.626007,-2.64014 -0.502526,0.27718 -0.721701,0.64522 -1.049507,1.11621 -0.591484,0.84985 -1.225105,1.6674 -1.828622,2.50867 -1.695273,2.30658 -3.295849,4.68253 -4.494448,7.29294 -0.949886,1.90158 -1.829681,3.83513 -2.709619,5.76969 0,0 -4.999003,2.2617 -4.999003,2.2617 z"
       inkscape:connector-curvature="0" />
    <path
       style="fill:#68b6d9;stroke-width:0.26458332"
       id="path1529"
       d="m 108.05575,162.18779 c 0.21002,-0.35086 0.77913,-1.06702 0.4428,-1.51136 -0.12748,-0.16842 -0.50659,-0.20157 -0.65678,-0.23389 -2.00868,-0.0506 -3.8822,0.97089 -5.59672,1.90861 1.13466,-0.62901 2.21721,-1.36289 3.40397,-1.88701 0.42649,-0.18835 -0.74781,0.55882 -1.09673,0.86805 -0.97092,0.86047 -1.87689,1.88938 -2.45459,3.0608 -0.16985,0.34439 -0.27742,0.71613 -0.41612,1.0742 -0.47543,2.40943 0.14869,3.44655 2.12702,4.74633 1.71622,0.88585 3.63869,0.90895 5.51975,0.76121 0.28089,-0.0506 0.56177,-0.10127 0.84266,-0.15191 0,0 -4.32418,3.2416 -4.32418,3.2416 v 0 c -0.28742,0.035 -0.57484,0.07 -0.86226,0.10503 -1.9776,0.0761 -3.96232,-0.0317 -5.715049,-1.05864 -2.108441,-1.5091 -2.84543,-2.72701 -2.432561,-5.38256 0.129974,-0.38792 0.225809,-0.789 0.389917,-1.16375 1.661573,-3.79432 5.843233,-5.65617 9.166033,-7.54684 1.83018,-0.93631 3.85898,-2.01558 5.97721,-1.63581 0.18351,0.0842 0.3844,0.13791 0.55052,0.25267 0.82696,0.57134 0.61481,1.61193 0.17435,2.34844 0,0 -5.03924,2.20483 -5.03924,2.20483 z"
       inkscape:connector-curvature="0" />
    <path
       style="fill:#68b6d9;stroke-width:0.26458332"
       id="path1531"
       d="m 113.10863,174.12927 c -0.20017,-1.88292 -0.16102,-3.77217 -0.0313,-5.65746 0.17158,-2.41551 0.73679,-4.31489 2.01255,-6.36469 1.92344,-2.65284 3.66651,-3.23125 7.08239,-4.96578 0.17475,-0.0887 0.39856,-0.0495 0.58795,8e-4 0.20058,0.0533 0.36353,0.20039 0.54529,0.30059 1.17689,1.3561 1.3576,3.26256 1.56615,4.98071 0.0624,0.0185 0.33092,3.07741 0.53953,1.64535 -5.83934,3.28586 -5.29785,3.6837 -4.01637,2.01527 0.73395,-0.95557 1.40485,-1.9483 2.16584,-2.88444 2.80557,-3.36366 5.11878,-4.26979 9.1869,-6.59634 2.01898,-0.58148 2.60454,0.31976 3.20341,2.10014 0.57359,2.75987 0.45731,5.60449 0.56477,8.40774 0.0561,1.26075 0.13935,2.51999 0.22074,3.77927 0,0 -4.76989,2.4601 -4.76989,2.4601 v 0 c -0.0438,-1.27513 -0.0898,-2.55019 -0.1449,-3.82489 -0.10537,-2.73941 -0.0226,-5.51955 -0.6011,-8.21321 -0.56547,-1.64107 -1.00193,-2.00928 -2.69515,-1.31702 1.30671,-0.76838 2.61342,-1.53675 3.92013,-2.30513 -0.26059,0.15876 -0.53074,0.30279 -0.78177,0.47626 -1.18449,0.81852 -2.20146,1.86394 -3.15762,2.93102 -0.61411,0.72265 -1.15986,1.4589 -1.69964,2.23758 -0.13504,0.19481 -0.27519,0.38609 -0.40751,0.58275 -0.11027,0.16391 -0.15686,0.38749 -0.3201,0.49876 -1.61402,1.10013 -3.31257,2.07082 -4.96886,3.10624 -0.12033,-0.0338 -0.25232,-0.0397 -0.36099,-0.10144 -0.64838,-0.36853 -0.48022,-1.89621 -0.65432,-2.49505 -0.13918,-1.29492 -0.25995,-3.02078 -1.01814,-4.12684 -0.0844,-0.12315 -0.21096,-0.21133 -0.31644,-0.31699 -0.1278,-0.0265 -0.25303,-0.0858 -0.38341,-0.0795 -0.15933,0.008 -0.30887,0.0799 -0.4633,0.11985 1.34513,-0.80401 2.69025,-1.60802 4.03537,-2.41203 0.22758,-0.13358 -0.45945,0.26466 -0.66302,0.43256 -0.46694,0.38514 -0.89148,0.94693 -1.27145,1.40666 -1.34733,1.92033 -1.97034,3.7797 -2.1556,6.12671 -0.12624,1.83256 -0.18641,3.6768 0.11348,5.49765 0,0 -4.86361,2.5548 -4.86361,2.5548 z"
       inkscape:connector-curvature="0" />
    <path
       style="fill:#68b6d9;stroke-width:0.26458332"
       id="path1533"
       d="m 156.30781,160.40525 c 0.74214,2.41987 1.10814,4.93227 1.67241,7.39661 0.1119,0.40739 0.2238,0.81479 0.3357,1.22219 0,0 -4.68475,2.54241 -4.68475,2.54241 v 0 c -0.10736,-0.41742 -0.21471,-0.83483 -0.32206,-1.25225 -0.53905,-2.4163 -0.901,-4.89477 -1.77549,-7.21926 0,0 4.77419,-2.6897 4.77419,-2.6897 z"
       inkscape:connector-curvature="0" />
    <path
       style="fill:#68b6d9;stroke-width:0.26458332"
       id="path1535"
       d="m 150.89567,163.43595 c -0.0933,-0.99045 0.24642,-1.9998 1.14714,-2.53234 1.76605,-1.04418 3.57264,-2.01824 5.35896,-3.02736 1.41242,-0.41551 2.94648,-0.6908 4.40499,-0.31416 0.24774,0.064 0.47893,0.18027 0.7184,0.27041 1.24559,0.6801 1.60647,1.55792 1.27505,2.90026 -0.33894,0.95988 -1.04631,1.66349 -1.80596,2.30396 -0.42932,0.40197 -0.89224,0.36132 -0.10545,0.67831 1.52149,0.50973 3.014,1.05304 4.44181,1.78892 1.27076,0.7104 2.3401,1.35667 2.73977,2.82864 0.0961,1.20682 -0.65076,2.01425 -1.57132,2.66856 -4.01114,2.49387 -5.64741,3.54278 -9.80606,4.05581 -1.792,0.22409 -3.57283,0.0832 -5.34229,-0.21973 -0.20063,-0.0373 -0.40126,-0.0746 -0.60189,-0.11194 0,0 4.46973,-3.1196 4.46973,-3.1196 v 0 c 0.19226,0.0382 0.38451,0.0763 0.57676,0.11446 1.7256,0.28654 3.46766,0.36413 5.20647,0.11358 0.966,-0.15236 1.92589,-0.32566 2.86332,-0.61247 1.88129,-0.57561 5.16134,-2.60952 -2.44324,1.73884 0.85956,-0.42568 1.66747,-1.02677 1.82286,-2.03796 -0.17821,-1.25686 -1.42705,-1.87745 -2.42874,-2.45164 -1.45369,-0.72621 -2.98956,-1.20134 -4.51364,-1.7521 -0.66949,-0.41411 -1.29242,-1.04924 -0.39618,-1.63923 0.75209,-0.57316 1.49385,-1.16179 1.94965,-2.01324 0.44138,-1.11812 0.30878,-1.61536 -0.82562,-2.18779 -1.62891,-0.48892 -3.30317,-0.27661 -4.86498,0.37365 1.31025,-0.78238 2.62004,-1.56552 3.93074,-2.34715 0.36061,-0.21506 -0.66805,0.31411 -0.99618,0.70865 -0.29562,0.35544 -0.3809,0.81127 -0.33812,1.25571 0,0 -4.86598,2.56695 -4.86598,2.56695 z"
       inkscape:connector-curvature="0" />
    <path
       style="fill:#68b6d9;stroke-width:0.26458332"
       id="path1537"
       d="m 170.35556,159.31624 c 0.62114,1.83039 1.04144,3.71208 1.3504,5.61729 0.2971,1.82828 0.13759,3.68039 0.22261,5.52151 0.0791,0.7818 -0.0523,1.65225 0.73275,2.05351 0.91868,0.23951 1.88123,0.21511 2.8236,0.22448 0.52698,-0.0327 1.02911,-0.11644 1.53131,-0.27287 0,0 -4.3519,3.31951 -4.3519,3.31951 v 0 c -0.52874,0.0887 -1.05887,0.16085 -1.59707,0.15313 -1.02213,-0.0196 -2.09736,0.01 -3.03346,-0.45842 -0.8958,-0.69255 -0.89228,-1.45891 -0.93278,-2.53587 -0.0585,-1.83253 0.12312,-3.6722 -0.13843,-5.49419 -0.28452,-1.8699 -0.68126,-3.72955 -1.40944,-5.48319 0,0 4.80241,-2.64489 4.80241,-2.64489 z"
       inkscape:connector-curvature="0" />
    <path
       style="fill:#68b6d9;stroke-width:0.26458332"
       id="path1539"
       d="m 178.56173,171.04416 c -0.83215,-0.0415 -1.65044,0.0801 -2.40441,0.44332 -0.19996,0.0963 -0.77575,0.43173 -0.58274,0.32215 1.38332,-0.78542 2.76913,-1.56643 4.15369,-2.34965 -0.89962,0.74881 -1.3037,1.35281 -0.68053,2.44161 0.90098,1.12584 2.27589,1.25423 3.62278,1.21518 0.56808,-0.1289 0.9619,-0.19157 1.50324,-0.4243 0.24343,-0.10466 0.93299,-0.50278 0.70247,-0.37211 -6.65331,3.77145 -4.36421,2.79433 -2.94112,1.21765 0.49653,-0.72361 1.02961,-1.75379 0.47328,-2.60629 -0.0965,-0.14785 -0.24465,-0.2546 -0.36698,-0.3819 -1.16964,-0.8951 -2.6506,-1.17326 -4.09145,-1.05839 0,0 4.38705,-3.20628 4.38705,-3.20628 v 0 c 1.56834,0.0328 3.14391,0.4011 4.36323,1.44182 0.15462,0.17896 0.33676,0.33743 0.46386,0.53687 0.65085,1.02126 0.30565,2.18193 -0.23124,3.15551 -1.81142,2.27406 -2.72295,2.25185 -6.29399,4.27227 -0.71245,0.40309 -1.55697,0.53017 -2.35598,0.60759 -1.52888,-0.0658 -2.98827,-0.37936 -3.96352,-1.667 -0.75356,-1.29095 -0.63957,-2.05743 0.33516,-3.18585 2.96292,-1.73655 5.03125,-3.79934 8.39156,-3.57583 0,0 -4.48436,3.17363 -4.48436,3.17363 z"
       inkscape:connector-curvature="0" />
    <path
       style="fill:#68b6d9;stroke-width:0.26458332"
       id="path1541"
       d="m 191.5275,170.89299 c -1.90257,-0.45917 -3.81415,0.002 -5.64554,0.53617 -1.85075,0.8478 -3.03763,1.42223 3.02695,-1.81023 0.20498,-0.10925 -0.38307,0.26571 -0.55254,0.42455 -0.42797,0.40115 -0.55009,0.76289 -0.55265,1.32455 0.50122,1.36511 2.1389,1.51292 3.39236,1.66555 1.38752,0.10368 2.74606,-0.16167 4.0902,-0.46628 0,0 -4.27719,3.24475 -4.27719,3.24475 v 0 c -1.39,0.26855 -2.79222,0.49543 -4.21273,0.32698 -1.56461,-0.23929 -3.22454,-0.61111 -3.84064,-2.25402 -0.0278,-0.20765 -0.0909,-0.41358 -0.0835,-0.62296 0.0223,-0.63165 0.44263,-1.37223 0.98685,-1.70347 4.71451,-2.86946 3.57987,-2.39016 6.2758,-3.39657 1.94468,-0.49904 3.99032,-0.89105 5.96712,-0.31756 0,0 -4.57453,3.04854 -4.57453,3.04854 z"
       inkscape:connector-curvature="0" />
    <path
       style="fill:#68b6d9;stroke-width:0.26458332"
       id="path1543"
       d="m 198.74319,155.29507 c -0.56545,2.04956 -0.32997,4.21782 -0.1209,6.30184 0.32406,2.7403 0.91834,5.44102 1.84204,8.04078 0.42155,0.95003 0.87705,1.89299 1.46326,2.7541 0.0236,0.0316 0.05,0.12826 0.0706,0.0947 0.0251,-0.041 -0.0306,-0.0912 -0.0446,-0.13717 -0.0203,-0.0668 0.003,-0.23418 -0.0585,-0.20113 -1.57359,0.84545 -3.05842,1.84819 -4.62036,2.71496 -0.0682,0.0379 0.0787,-0.13577 0.10496,-0.20924 0.0456,-0.12754 0.0733,-0.26082 0.10996,-0.39124 0.36143,-1.54955 0.24143,-3.17318 0.2238,-4.7533 0.0377,-1.26119 -0.0737,-2.68294 0.75226,-3.744 0.1303,-0.16739 0.29953,-0.30047 0.4493,-0.4507 1.75727,-0.97758 3.46652,-2.04697 5.27181,-2.93273 0.2288,-0.11226 0.50931,-0.0373 0.76401,-0.0287 1.16119,0.0391 2.17233,0.45282 3.1479,1.04924 1.25117,1.05035 1.46039,2.20461 0.94983,3.70073 -1.25096,2.34262 -4.23685,3.24791 -6.35986,4.44909 -0.42357,0.23966 -0.60994,0.24153 -1.07111,0.3358 -0.76072,0.10752 -1.55787,0.1266 -2.10503,-0.48154 -0.19312,-0.34956 -0.25673,-0.87955 0.16166,-1.11923 4.97921,-2.85239 3.16739,-2.69773 5.50714,-2.81722 1.33645,0.0958 2.47038,0.85574 3.57672,1.54471 1.51015,0.98459 3.10562,1.82166 4.76456,2.52362 1.15609,0.51423 2.36599,0.92999 3.46108,1.56929 0.26693,0.10472 0.7605,0.53004 1.00734,0.23922 1.75284,-1.29568 -6.11787,3.83631 -4.36082,2.42154 0,0 5.12697,-2.05806 5.12697,-2.05806 v 0 c -1.55427,1.24005 -3.18644,2.88224 -5.19139,2.95101 -0.42877,-0.12354 -0.8149,-0.32634 -1.19138,-0.56644 -1.05773,-0.63067 -2.22535,-1.06117 -3.34452,-1.56671 -1.66399,-0.7475 -3.2808,-1.58884 -4.81924,-2.57222 -1.05398,-0.61298 -2.14594,-1.33868 -3.42078,-1.19985 -2.04123,0.49635 -0.34659,0.12333 4.00254,-2.49252 0.0821,-0.0494 -0.17522,0.0784 -0.26617,0.10856 -0.0991,0.0329 -0.23141,0.0103 -0.3005,0.0886 -0.0141,0.016 4e-5,0.0425 6e-5,0.0638 0.45845,0.36561 1.22009,0.1164 1.72339,0.0317 1.75322,-0.64229 4.36967,-2.44071 -3.15047,1.97853 -0.21361,0.12553 0.50362,-0.16924 0.95898,-0.67603 0.13077,-0.14553 0.22615,-0.31934 0.33923,-0.47901 0.63118,-1.18857 0.55649,-2.15826 -0.546,-3.02718 -0.69932,-0.38726 -1.37379,-0.67957 -2.18354,-0.75659 -2.10973,-0.20068 -4.75616,2.0386 2.60227,-2.31412 -0.16845,0.10814 -0.35276,0.19485 -0.50535,0.32441 -1.00161,0.85048 -0.89816,2.26808 -0.95561,3.45089 0.029,1.60941 0.14298,3.24247 -0.0684,4.84043 -0.0305,0.12631 -0.0691,0.25092 -0.0914,0.37893 -0.0184,0.10587 0.058,0.25989 -0.0305,0.32095 -0.68963,0.47618 -3.99406,4.59941 -5.16522,2.5681 -0.52584,-0.94649 -0.97584,-1.93443 -1.38193,-2.93752 -0.88422,-2.6572 -1.47077,-5.39911 -1.84107,-8.17487 -0.25648,-2.11512 -0.50975,-4.27936 -0.15507,-6.3986 0,0 4.96803,-2.35957 4.96803,-2.35957 z"
       inkscape:connector-curvature="0" />
    <path
       style="fill:#002b5c;stroke-width:0.26458332"
       id="path1547"
       d="m 21.429955,162.3833 c 1.340077,-0.11507 2.6667,-0.30339 4.01104,-0.35498 1.469122,-0.0312 2.93875,-0.0131 4.40804,-0.005 1.367829,0.0598 2.716545,-0.14015 4.083206,-0.11219 0.622096,0.0215 1.24411,0.0504 1.865241,0.0917 0.443126,0.002 0.880247,0.0452 1.312293,-0.0627 0.495224,-0.12553 0.907407,-0.29584 1.368899,-0.014 0.115408,-0.0437 0.148534,0.28647 0.204208,0.21473 0.07278,-0.0938 -0.09382,-0.10679 0.07553,-0.11714 1.841522,-0.0724 0.146818,-0.0131 -4.668803,2.59357 -0.04856,0.0263 0.06745,-0.10732 0.12251,-0.11148 0.30592,0.55072 0.155403,0.42059 -0.156556,0.0399 -0.497478,-0.60068 -0.968002,-1.21012 -1.519452,-1.76397 -0.476448,-0.49662 -1.042937,-0.89824 -1.640575,-1.23568 -2.113045,-0.74616 2.98468,-4.03666 4.722256,-3.00386 0.85466,0.46217 1.63725,1.04324 2.437353,1.59187 0.727641,0.60569 1.543052,1.08934 2.305058,1.64538 0.490132,0.3458 1.006871,0.67135 1.404482,1.12505 1.591715,2.12495 -3.1984,2.95517 -5.195438,3.65468 -1.001826,0.33111 -1.990547,0.7371 -2.939385,1.20143 -1.685634,0.89166 -4.566039,2.4923 3.052489,-1.7814 0.171387,-0.0961 -0.328641,0.21556 -0.491812,0.32507 -0.296519,0.199 -0.590251,0.40212 -0.88577,0.6026 -0.469315,0.30251 -0.899099,0.66133 -1.36163,0.97281 0,0 -5.021091,2.31298 -5.021091,2.31298 v 0 c 0.07719,-0.65048 0.838976,-0.91256 1.297197,-1.28782 2.442051,-1.69812 4.998767,-3.24205 7.678309,-4.53811 0.983559,-0.43389 1.976852,-0.85341 3.003827,-1.17436 3.035763,-0.97542 -5.477242,1.12275 -3.728823,2.75983 0.05692,0.0533 -0.217456,-0.29688 -0.133866,-0.19183 -0.370612,-0.41571 -0.871103,-0.7019 -1.30819,-1.0403 -0.764402,-0.54334 -1.540504,-1.06962 -2.283095,-1.64352 -0.784857,-0.53574 -1.549857,-1.11904 -2.429203,-1.49416 -2.096039,-0.72139 3.021584,-4.36556 4.523428,-3.02768 0.589161,0.41151 1.160857,0.85324 1.66202,1.37044 0.548185,0.55835 1.021649,1.17734 1.570318,1.73414 0.02551,0.0172 0.05177,0.0697 0.07649,0.0515 0.02503,-0.0185 -0.04102,-0.0641 -0.0241,-0.0902 0.06277,-0.0969 0.336442,0.30424 0.362252,0.42245 0.01479,0.0711 0.03049,0.287 -0.04317,0.33147 -4.782783,2.88741 -3.055506,3.34271 -4.928079,2.8326 -0.143436,-0.0491 -0.223364,-0.20868 -0.338275,-0.1944 -0.393348,0.0176 -0.773583,0.22522 -1.174422,0.22009 -0.469503,0.018 -0.941848,0.0309 -1.410329,-0.0132 -0.59131,-0.0565 -1.184458,-0.0923 -1.778297,-0.10766 -1.353992,-0.003 -2.702594,0.1698 -4.058478,0.0984 -1.464159,-0.007 -2.92923,-0.026 -4.392667,0.0309 -1.36613,0.0838 -2.719928,0.29221 -4.086231,0.37624 0,0 4.451296,-3.23406 4.451296,-3.23406 z"
       inkscape:connector-curvature="0" />
  </g>
</svg>
