<?xml version="1.0" encoding="UTF-8" standalone="no"?>
<!-- Created with Inkscape (http://www.inkscape.org/) -->

<svg
   xmlns:dc="http://purl.org/dc/elements/1.1/"
   xmlns:cc="http://creativecommons.org/ns#"
   xmlns:rdf="http://www.w3.org/1999/02/22-rdf-syntax-ns#"
   xmlns:svg="http://www.w3.org/2000/svg"
   xmlns="http://www.w3.org/2000/svg"
   xmlns:sodipodi="http://sodipodi.sourceforge.net/DTD/sodipodi-0.dtd"
   xmlns:inkscape="http://www.inkscape.org/namespaces/inkscape"
   width="297mm"
   height="210mm"
   viewBox="0 0 297 210"
   version="1.1"
   id="svg8"
   inkscape:version="0.92.4 (5da689c313, 2019-01-14)"
   sodipodi:docname="mmc_example.svg">
  <defs
     id="defs2" />
  <sodipodi:namedview
     id="base"
     pagecolor="#ffffff"
     bordercolor="#666666"
     borderopacity="1.0"
     inkscape:pageopacity="0.0"
     inkscape:pageshadow="2"
     inkscape:zoom="0.35355339"
     inkscape:cx="902.78964"
     inkscape:cy="160.68644"
     inkscape:document-units="mm"
     inkscape:current-layer="layer1"
     showgrid="false"
     inkscape:window-width="1872"
     inkscape:window-height="1008"
     inkscape:window-x="24"
     inkscape:window-y="24"
     inkscape:window-maximized="0" />
  <metadata
     id="metadata5">
    <rdf:RDF>
      <cc:Work
         rdf:about="">
        <dc:format>image/svg+xml</dc:format>
        <dc:type
           rdf:resource="http://purl.org/dc/dcmitype/StillImage" />
        <dc:title></dc:title>
      </cc:Work>
    </rdf:RDF>
  </metadata>
  <g
     inkscape:label="Layer 1"
     inkscape:groupmode="layer"
     id="layer1"
     transform="translate(0,-87)">
    <g
       id="g981"
       transform="translate(6.6145791,23.547925)">
      <path
         inkscape:connector-curvature="0"
         d="m 127.81899,73.99814 c -0.42572,-0.15201 -1.1674,-0.219 -1.27026,-0.7792 -0.021,-0.11454 0.009,-0.23271 0.0142,-0.34906 0.21066,-0.46655 0.61394,-0.74172 1.05042,-0.98372 2.86495,-1.58844 3.04649,-2.08792 5.39163,-2.44483 1.08614,-0.0357 2.23703,0.24528 2.90194,1.18083 0.10604,0.1492 0.17278,0.32275 0.25917,0.48412 0.43568,1.16147 0.13907,2.05404 -0.50698,3.04779 -0.53093,0.59929 -0.25158,0.32091 -0.83538,0.8378 0,0 -3.58587,1.44407 -3.58587,1.44407 v 0 c 0.60582,-0.45889 0.31473,-0.21283 0.87253,-0.73905 0.6356,-0.83897 1.0483,-1.59842 0.68819,-2.66525 -0.0673,-0.13273 -0.11538,-0.27706 -0.2018,-0.3982 -0.60212,-0.84395 -1.70523,-0.97252 -2.65444,-0.8832 -0.23844,0.0491 -0.48007,0.0846 -0.71532,0.14726 -0.23701,0.0631 -0.89999,0.37 -0.69919,0.22917 0.85903,-0.60252 1.8023,-1.07519 2.69395,-1.62829 0.40502,-0.25124 -1.51625,0.83591 -1.11292,0.68904 -0.0405,0.0397 -0.0937,0.0697 -0.12152,0.11914 -0.12177,0.2166 0.90679,0.40489 1.04225,0.42784 0,0 -3.21061,2.26374 -3.21061,2.26374 z"
         id="path845"
         style="fill:#000000;stroke-width:0.26458332" />
      <path
         inkscape:connector-curvature="0"
         d="m 139.16872,70.82433 c -0.1242,0.0273 -0.25014,0.0477 -0.37261,0.0819 -0.17225,0.0482 -0.34497,0.0975 -0.51057,0.16503 -0.20724,0.0846 -0.79833,0.40395 -0.60547,0.29037 0.86629,-0.5102 1.73078,-1.02628 2.62734,-1.48116 0.2496,-0.12664 -0.46322,0.31558 -0.67969,0.493 -0.22054,0.18075 -0.4194,0.38644 -0.6291,0.57967 -0.47277,0.55684 -1.50053,1.84782 -0.87853,2.62765 0.0916,0.11491 0.2321,0.18039 0.34816,0.27059 0.66221,0.34026 1.38167,0.32617 2.10483,0.34743 0,0 -3.09315,2.22516 -3.09315,2.22516 v 0 c -0.80871,-0.0516 -1.59308,-0.0741 -2.30091,-0.52463 -0.14693,-0.13782 -0.32281,-0.25017 -0.4408,-0.41345 -0.72584,-1.00441 0.1268,-2.27838 0.73483,-3.07908 1.65715,-1.68472 2.6691,-2.02368 5.22155,-3.43126 0.50812,-0.28021 1.10109,-0.41314 1.67614,-0.41736 0,0 -3.20202,2.26611 -3.20202,2.26611 z"
         id="path847"
         style="fill:#000000;stroke-width:0.26458332" />
    </g>
    <g
       id="g977"
       transform="rotate(90,148.82003,76.486453)">
      <path
         inkscape:connector-curvature="0"
         d="m 181.8116,82.12307 c 1.78688,0.2187 3.58938,0.14518 5.38419,0.11266 2.80676,-0.0936 5.61349,0.0119 8.41964,0.0729 2.24845,0.0155 4.49506,-0.12106 6.7243,-0.40854 0,0 -3.01212,2.24324 -3.01212,2.24324 v 0 c -2.22979,0.24118 -4.47257,0.36947 -6.71625,0.33782 -2.81352,-0.0623 -5.62823,-0.15132 -8.44184,-0.0368 -1.85089,0.0453 -3.70466,0.10985 -5.55222,-0.054 0,0 3.1943,-2.26721 3.1943,-2.26721 z"
         id="path849"
         style="fill:#000000;stroke-width:0.26458332" />
      <path
         inkscape:connector-curvature="0"
         d="m 200.28209,78.53559 c 0.98459,0.57574 2.08711,0.90127 3.16721,1.24715 1.66182,0.53195 3.37706,0.85964 5.10529,1.07882 0.44843,0.10669 1.93526,-0.0778 2.036,0.58598 0.0166,0.10945 -0.0293,0.21945 -0.0439,0.32918 -0.68587,0.71709 -1.53466,1.25959 -2.28543,1.91008 -1.23613,1.1996 -2.44871,2.41679 -3.75677,3.53916 -0.93386,0.78155 -0.4773,0.39937 -1.36969,1.14653 0,0 -3.53673,1.42748 -3.53673,1.42748 v 0 c 0.90639,-0.75141 0.44431,-0.36822 1.38621,-1.1496 1.30854,-1.09669 2.52369,-2.28464 3.71304,-3.50874 0.70024,-0.65794 1.45927,-1.24398 2.24225,-1.79943 0.0822,-7.9e-4 0.32102,0.0405 0.24642,0.006 -0.5378,-0.24832 -1.19528,-0.12186 -1.75422,-0.28225 -1.73985,-0.2567 -3.46721,-0.60484 -5.1485,-1.12783 -1.11896,-0.34859 -2.23936,-0.70376 -3.28463,-1.24221 0,0 3.2835,-2.16042 3.2835,-2.16042 z"
         id="path851"
         style="fill:#000000;stroke-width:0.26458332" />
    </g>
    <path
       style="fill:#000000;stroke-width:0.26458332"
       id="path853"
       d="m 54.704772,123.84972 c 0.264877,1.45024 0.320511,2.92565 0.3702,4.39549 0.01791,2.32265 0.183094,4.6383 0.446227,6.94494 0.355714,3.14952 0.657627,6.30414 0.859804,9.46729 0.20548,4.10358 0.348046,8.20975 0.505089,12.31536 0.25023,4.82089 0.374401,9.64589 0.441674,14.47233 0.03324,5.286 0.0572,10.57127 0.204656,15.85557 0.286842,5.47265 0.445881,10.94721 0.401211,16.42717 -0.08323,4.59561 -0.468553,9.17832 -0.556167,13.77359 0,0 -3.238884,1.63942 -3.238884,1.63942 v 0 c 0.158041,-4.61649 0.586491,-9.21893 0.696061,-13.8376 0.05647,-5.47547 -0.101955,-10.94471 -0.401209,-16.41236 -0.155554,-5.28167 -0.188693,-10.56425 -0.229958,-15.84779 -0.08194,-4.81446 -0.21704,-9.62788 -0.494265,-14.43562 -0.170344,-4.09143 -0.329909,-8.18337 -0.568674,-12.27154 -0.220941,-3.1455 -0.538959,-6.28209 -0.925978,-9.41155 -0.28357,-2.30508 -0.479193,-4.61845 -0.516946,-6.942 -0.06162,-1.43164 -0.114483,-2.87822 -0.442471,-4.27892 0,0 3.44963,-1.85378 3.44963,-1.85378 z"
       inkscape:connector-curvature="0" />
    <path
       style="fill:#000000;stroke-width:0.26458332"
       id="path855"
       d="m 57.350113,216.49052 c 0.173471,2.00208 0.07161,4.01356 0.01008,6.01827 -0.182825,2.98727 -0.174363,5.97961 -0.09344,8.96971 0.131873,2.85416 0.4338,5.6963 0.610065,8.54792 0.09645,1.03435 0.144786,2.07198 0.190725,3.10946 0,0 -3.387518,1.73813 -3.387518,1.73813 v 0 c -0.0131,-1.04456 -0.02975,-2.08975 -0.126082,-3.13089 -0.145532,-2.86332 -0.418341,-5.71668 -0.572521,-8.57917 -0.08493,-2.98939 -0.104077,-5.98151 0.04973,-8.96943 0.03793,-1.95258 0.13235,-3.91819 -0.129686,-5.86019 0,0 3.448645,-1.84381 3.448645,-1.84381 z"
       inkscape:connector-curvature="0" />
    <path
       style="fill:#000000;stroke-width:0.26458332"
       id="path857"
       d="m 61.424995,243.03071 c 2.236097,0.37281 4.517433,0.38823 6.778437,0.44944 4.765067,0.11082 9.528027,0.26607 14.29471,0.28669 7.748135,-0.0369 15.48599,-0.4712 23.218168,-0.92992 10.24062,-0.69745 20.47533,-1.48088 30.71162,-2.23929 11.53193,-0.83895 23.06936,-1.59864 34.60394,-2.39922 11.10841,-0.80945 22.22227,-1.52233 33.34997,-2.00238 7.99419,-0.3385 15.99593,-0.477 23.99472,-0.25901 2.50665,0.0602 5.00984,0.20694 7.51313,0.34278 0,0 -2.90754,2.08496 -2.90754,2.08496 v 0 c -2.45486,-0.17283 -4.91006,-0.34769 -7.37,-0.43289 -7.89231,-0.29557 -15.7917,-0.23551 -23.68382,0.0622 -11.09203,0.43349 -22.16903,1.12837 -33.24017,1.93202 -11.55257,0.79699 -23.10646,1.57536 -34.65435,2.43855 -10.28717,0.78274 -20.57175,1.60074 -30.86175,2.34479 -7.810113,0.49752 -15.625414,0.97519 -23.452874,1.07615 -4.828548,0.014 -9.654698,-0.0966 -14.482542,-0.15958 -2.344031,-0.0368 -4.703874,-0.0353 -7.029477,-0.36323 0,0 3.217828,-2.23205 3.217828,-2.23205 z"
       inkscape:connector-curvature="0" />
    <path
       style="fill:#000000;stroke-width:0.26458332"
       id="path859"
       d="m 56.414237,121.8022 c 2.358728,0.37135 4.755761,0.4129 7.13794,0.48398 4.937553,3.7e-4 9.874972,-0.0562 14.812568,-0.0732 7.930655,0.007 15.860798,0.0144 23.791275,-0.0388 10.95602,-0.11654 21.91018,-0.35172 32.86473,-0.55807 12.34214,-0.30048 24.68675,-0.45415 37.03198,-0.54411 11.73845,-0.0657 23.47708,-0.0847 35.21567,-0.10985 8.89726,0.006 17.79497,0.0947 26.68735,0.39758 5.19842,0.17375 10.39402,0.45596 15.58267,0.81827 0,0 -2.96612,2.11949 -2.96612,2.11949 v 0 c -5.09206,-0.45031 -10.19483,-0.78915 -15.3024,-1.00211 -8.80126,-0.37798 -17.60989,-0.52888 -26.41888,-0.57684 -11.70189,-0.0212 -23.40393,-0.0369 -35.10571,0.0324 -12.35581,0.0874 -24.71109,0.24128 -37.06314,0.57146 -11.01733,0.23827 -22.03402,0.50846 -33.052487,0.69102 -8.010385,0.1027 -16.020958,0.14766 -24.031739,0.21289 -5.001887,0.0573 -10.003129,0.16397 -15.005153,0.19892 -2.458083,-0.0472 -4.91866,-0.0981 -7.365733,-0.35562 0,0 3.187179,-2.26744 3.187179,-2.26744 z"
       inkscape:connector-curvature="0" />
    <path
       style="fill:#000000;stroke-width:0.26458332"
       id="path861"
       d="m 251.06908,123.77109 c 0.94718,0.65026 1.35441,1.71497 1.64438,2.77848 0.28714,1.92663 0.0659,3.89109 -0.0813,5.82224 -0.26571,3.02784 -0.21519,6.07064 -0.13899,9.10535 0.15682,3.99062 0.11221,7.9821 0.0486,11.97383 -0.21419,4.85034 -0.21489,9.70232 -0.12747,14.55525 0.19507,5.39885 0.43405,10.79603 0.6369,16.19482 0.16764,5.36319 0.36903,10.72491 0.59613,16.0859 0.23101,4.90661 0.37926,9.81251 0.40283,14.72441 -0.0119,4.00204 0.0331,8.0048 -0.0286,12.00648 -0.0237,2.8009 -0.20335,5.59602 -0.32224,8.39349 -0.0858,1.44072 -0.0254,2.88653 -0.14958,4.3247 -0.21376,1.89795 -2.16263,2.98642 -4.15788,3.13275 -0.90581,-0.11192 -1.81161,-0.21392 -2.71728,-0.32719 -1.71122,-0.31729 -3.43098,-0.57595 -5.15364,-0.8229 -2.36723,-0.37635 -4.75376,-0.62714 -7.14267,-0.81664 -2.14893,-0.10981 -4.29285,-0.1809 -6.43331,-0.40798 0,0 3.10382,-2.20383 3.10382,-2.20383 v 0 c 2.12102,0.23878 4.24985,0.29587 6.37876,0.4342 2.39987,0.20239 4.79655,0.45588 7.1781,0.81786 1.7423,0.23713 3.48069,0.49511 5.21744,0.7686 0.89068,0.10194 1.80094,0.2471 2.69631,0.18704 1.37901,-0.50092 0.17913,-0.0805 -2.94258,1.79911 -0.0519,0.0313 0.11785,-0.0375 0.16576,-0.0746 0.22634,-0.17525 0.2414,-0.51439 0.32662,-0.75968 0.18647,-1.44609 0.16547,-2.90636 0.26775,-4.35982 0.16843,-2.81017 0.36869,-5.61881 0.42753,-8.43424 0.10922,-4.01342 0.0813,-8.02946 0.12118,-12.04396 -1.5e-4,-4.91537 -0.11992,-9.82551 -0.35087,-14.73578 -0.21204,-5.36562 -0.40551,-10.73168 -0.57286,-16.0989 -0.21081,-5.396 -0.43958,-10.79086 -0.66843,-16.18598 -0.10211,-4.8453 -0.13494,-9.69068 0.0614,-14.53463 0.0426,-3.97476 0.0677,-7.94946 -0.11745,-11.9217 -0.097,-3.03047 -0.18527,-6.06902 0.0396,-9.09632 0.12404,-1.88028 0.30574,-3.78854 0.0542,-5.66411 -0.25792,-0.95666 -0.61018,-1.96664 -1.54563,-2.45579 0,0 3.2835,-2.16042 3.2835,-2.16042 z"
       inkscape:connector-curvature="0" />
    <path
       style="fill:#000000;stroke-width:0.26458332"
       id="path863"
       d="m 89.152931,150.39459 c 0.790806,0.95028 1.848083,1.58065 2.916394,2.16803 0.982367,0.53339 2.028111,0.9837 2.911155,1.6786 0.422137,0.32617 0.663467,0.76907 0.489507,1.29131 -1.382121,1.76089 -3.753589,2.32667 -5.80963,2.84062 -1.494824,0.34022 -2.935247,0.85908 -4.38251,1.35403 -0.512382,0.15873 -0.98038,0.41987 -1.457344,0.65872 0,0 3.040012,-2.42562 3.040012,-2.42562 v 0 c 0.473716,-0.22197 0.950082,-0.43943 1.451325,-0.59406 1.450877,-0.49673 2.909751,-0.96774 4.400832,-1.33165 0.565977,-0.15286 1.147214,-0.2871 1.691821,-0.50902 0.1229,-0.0501 0.473637,-0.23859 0.359877,-0.17026 -3.010482,1.80802 -4.258866,2.14402 -2.900852,1.75906 0.406847,-0.28105 0.0944,-0.5403 -0.1854,-0.79444 -0.862774,-0.67457 -1.864929,-1.14131 -2.822343,-1.66279 -1.111075,-0.62328 -2.191292,-1.30247 -3.067235,-2.24255 0,0 3.364391,-2.01998 3.364391,-2.01998 z"
       inkscape:connector-curvature="0" />
    <path
       style="fill:#000000;stroke-width:0.26458332"
       id="path865"
       d="m 96.045124,150.06802 c 0.845484,0.81842 1.781301,1.53014 2.740705,2.20801 0.974154,0.7521 2.073731,1.31151 3.143601,1.91056 0.0979,0.14561 0.67259,0.28826 0.77401,0.43175 0.0441,0.0624 0.072,0.1347 0.10804,0.20205 -1.14925,0.71479 -2.28839,1.44608 -3.447724,2.14437 -0.11834,0.0713 -0.2675,0.0701 -0.3983,0.11455 -0.407447,0.13849 -0.809764,0.28897 -1.213951,0.43686 -0.17753,0.0691 -0.35482,0.13881 -0.532587,0.20731 -0.708747,0.27307 -0.487667,0.16767 -1.189374,0.504 -0.20328,0.0974 -0.800424,0.41417 -0.606407,0.29938 4.007829,-2.37116 3.395672,-1.98782 2.218038,-1.22339 -0.594577,0.40059 -1.129754,0.88942 -1.512541,1.49808 0,0 -3.575849,1.59571 -3.575849,1.59571 v 0 c 0.349807,-0.68127 0.873104,-1.24094 1.496921,-1.68624 2.094818,-1.46722 4.348876,-2.71293 6.753404,-3.58165 1.60765,-0.60128 4.75108,-1.85688 -1.534894,1.47113 0.0367,0.0546 0.0826,0.10399 0.11022,0.1637 0.0225,0.0487 -0.0888,-0.0601 -0.13366,-0.0895 -0.19209,-0.12595 -0.386567,-0.24824 -0.582037,-0.36887 -1.048974,-0.63834 -2.134568,-1.22213 -3.112312,-1.9706 -0.975214,-0.68958 -1.924808,-1.40975 -2.832495,-2.18654 0,0 3.327192,-2.08065 3.327192,-2.08065 z"
       inkscape:connector-curvature="0" />
    <path
       style="fill:#000000;stroke-width:0.26458332"
       id="path867"
       d="m 104.00163,153.78745 c -0.57222,-0.21744 -1.08513,-0.53681 -1.59665,-0.86535 -0.35842,-0.29467 -0.69565,-0.60401 -0.77708,-1.07554 0.009,-0.0665 0.001,-0.13744 0.027,-0.19936 0.0239,-0.0574 0.0631,-0.11398 0.11656,-0.14572 3.06058,-1.81572 2.57434,-1.74753 4.61251,-2.34515 1.07441,-0.31425 2.12551,-0.24233 3.18796,0.0576 1.08706,0.36704 1.62121,0.80608 2.03811,1.87602 0.26379,1.2013 -0.21732,2.33223 -0.71097,3.40411 -0.609,1.22612 -1.58051,2.18949 -2.64386,3.02561 -1.74668,1.16966 -3.50011,2.50534 -5.55809,3.02015 -0.51167,0.008 -0.61579,-0.55929 -0.34461,-0.91538 0.0664,-0.0872 0.15497,-0.15514 0.23245,-0.23271 1.72825,-1.28142 3.50021,-2.67157 5.67047,-2.46948 0.82401,0.14125 1.48764,0.67158 2.23631,1.00142 0.79061,0.38272 1.6474,0.59357 2.47548,0.87746 0.5276,0.17364 1.07419,0.26618 1.6202,0.35735 0,0 -3.16735,2.21668 -3.16735,2.21668 v 0 c -0.55985,-0.10657 -1.11953,-0.21628 -1.66165,-0.39664 -0.84808,-0.2736 -1.71684,-0.50088 -2.51652,-0.90353 -0.69654,-0.34087 -1.34975,-0.81921 -2.1476,-0.87843 -0.4112,0.002 -0.79799,0.0226 -1.19132,0.15893 -0.13092,0.0454 -0.50073,0.23502 -0.38241,0.16293 0.88973,-0.54208 4.20216,-2.4832 2.69983,-1.57479 -0.0218,0.0118 -0.5078,0.32903 -0.53071,0.32943 -0.14344,0.002 -0.0783,-0.0702 -0.0392,-0.0844 0.0505,-0.0183 0.10378,-0.0277 0.15566,-0.0415 0.23399,-0.0748 0.27813,-0.0834 0.51945,-0.18671 0.11163,-0.0478 0.43508,-0.21467 0.33101,-0.1521 -5.41981,3.25867 -3.16084,1.87307 -1.98911,1.14052 1.07201,-0.7855 2.08745,-1.67895 2.73086,-2.86334 0.47801,-0.96468 0.96604,-2.0007 0.80729,-3.10523 -0.34982,-0.99321 -0.84458,-1.25528 -1.82408,-1.56882 -1.03992,-0.23943 -2.05823,-0.2218 -3.07929,0.12299 -0.266,0.0803 -0.49622,0.14388 -0.75398,0.2431 -0.0952,0.0366 -0.36824,0.17398 -0.2809,0.12132 1.04697,-0.63133 2.10798,-1.23909 3.16197,-1.85863 -0.18349,0.0717 -0.0931,0.061 -0.26906,0.046 -0.21496,0.15955 0.43435,0.62192 0.5472,0.71765 0.49585,0.33189 1.01852,0.61044 1.57755,0.82307 0,0 -3.28349,2.16042 -3.28349,2.16042 z"
       inkscape:connector-curvature="0" />
    <path
       style="fill:#000000;stroke-width:0.26458332"
       id="path869"
       d="m 59.269337,140.16706 c 1.440847,0.44775 3.011228,0.31382 4.497739,0.2385 2.963664,-0.13456 5.908125,-0.51926 8.852234,-0.86656 4.199072,-0.55844 8.379108,-1.24683 12.566057,-1.88769 3.526295,-0.53144 7.042338,-1.12885 10.57259,-1.63365 1.929668,-0.27724 3.876596,-0.3733 5.822503,-0.44412 0,0 -3.054321,2.2351 -3.054321,2.2351 v 0 c -1.919468,0.0614 -3.838286,0.17071 -5.742317,0.43375 -3.492016,0.47873 -6.97294,1.03224 -10.458707,1.55393 -4.208446,0.64017 -8.407513,1.34246 -12.625498,1.9184 -2.983516,0.37326 -5.968254,0.77127 -8.973413,0.92325 -1.568815,0.076 -3.208073,0.20683 -4.723307,-0.2941 0,0 3.26644,-2.17681 3.26644,-2.17681 z"
       inkscape:connector-curvature="0" />
    <path
       style="fill:#000000;stroke-width:0.26458332"
       id="path871"
       d="m 101.72286,137.10005 c -0.30251,1.12125 -0.43482,2.28422 -0.50538,3.44107 -0.0442,1.00792 0.11863,1.97877 0.4837,2.91463 0.14662,0.30952 0.28894,0.63134 0.50425,0.90126 0,0 -3.411451,2.00679 -3.411451,2.00679 v 0 c -0.19733,-0.32053 -0.35068,-0.66612 -0.497437,-1.01191 -0.37998,-0.99025 -0.554707,-2.01891 -0.517357,-3.08284 0.0588,-1.16953 0.196347,-2.33001 0.396237,-3.48414 0,0 3.547438,-1.68486 3.547438,-1.68486 z"
       inkscape:connector-curvature="0" />
    <path
       style="fill:#000000;stroke-width:0.26458332"
       id="path873"
       d="m 103.23989,136.18777 c 1.92731,0.66677 3.98265,0.82797 5.99697,1.04408 3.81817,0.38798 7.6305,0.82933 11.44194,1.27779 4.15885,0.52545 8.34796,0.63251 12.53199,0.47005 2.95683,-0.13445 5.90292,-0.43265 8.85335,-0.6619 1.0416,-0.0751 0.55312,-0.0404 1.4654,-0.10441 0,0 -3.10729,2.28447 -3.10729,2.28447 v 0 c -0.87301,0.0368 -0.40421,0.0151 -1.4063,0.0667 -2.90885,0.17241 -5.81143,0.4446 -8.724,0.55108 -4.18782,0.12264 -8.37744,-0.0113 -12.53871,-0.5314 -3.84009,-0.43579 -7.68071,-0.86974 -11.5309,-1.20828 -2.09052,-0.1992 -4.20147,-0.38099 -6.22185,-0.99023 0,0 3.2394,-2.1979 3.2394,-2.1979 z"
       inkscape:connector-curvature="0" />
    <path
       style="fill:#000000;stroke-width:0.26458332"
       id="path875"
       d="m 123.83407,183.98247 c 0.99037,0.79111 2.27822,0.97565 3.49673,1.13965 1.69504,0.21924 3.39717,0.0927 5.08871,-0.0786 0.96911,-0.004 2.094,-0.3805 3.05242,-0.20414 0.96072,1.19004 0.16643,0.10871 -3.21722,2.41891 0,0 3.11002,-2.43978 3.11002,-2.43978 v 0 c -3.19508,2.23075 -3.94135,1.18201 -3.10822,2.29126 -0.9674,-0.0708 -1.93994,0.17889 -2.90427,0.20701 -1.71436,0.15244 -3.43924,0.24814 -5.15227,0.0125 -1.30665,-0.19951 -2.64585,-0.45494 -3.70855,-1.29836 0,0 3.34265,-2.04838 3.34265,-2.04838 z"
       inkscape:connector-curvature="0" />
    <path
       style="fill:#000000;stroke-width:0.26458332"
       id="path877"
       d="m 129.5811,181.98184 c 0.25949,1.14527 0.33116,2.31991 0.38856,3.4892 0.0495,1.38803 0.0597,2.77709 0.0796,4.16577 0.0926,0.25525 -0.10589,0.68515 0.0673,0.92479 0,0 -3.43241,1.95817 -3.43241,1.95817 v 0 c -0.16671,-0.35831 -0.0724,-0.7418 -0.0808,-1.1262 0.0132,-1.38733 0.0137,-2.77531 -0.0465,-4.16171 -0.0599,-1.12989 -0.11699,-2.27526 -0.42411,-3.37041 0,0 3.44823,-1.87961 3.44823,-1.87961 z"
       inkscape:connector-curvature="0" />
    <path
       style="fill:#000000;stroke-width:0.26458332"
       id="path879"
       d="m 129.13704,179.45204 c -1.17838,-0.54145 -2.42868,-0.48494 -3.68674,-0.35962 -1.24839,0.21367 -2.44312,0.70145 -3.56242,1.28626 -0.30919,0.16154 -1.21582,0.68468 -0.90927,0.51818 0.78132,-0.42438 1.5558,-0.86124 2.33369,-1.29186 -1.33448,0.92518 -2.55381,2.08417 -3.1483,3.63189 -0.10846,0.28238 -0.17096,0.58033 -0.25644,0.8705 -0.26815,1.65782 0.14797,3.29376 0.9276,4.76275 0.17564,0.33095 0.38779,0.6412 0.58168,0.9618 1.126,1.56435 2.61425,2.8286 4.4353,3.50457 0.37905,0.1407 0.77388,0.23457 1.16082,0.35185 2.70711,0.60651 5.26644,0.24024 7.9177,-0.41144 1.25255,-0.33048 2.45511,-0.82332 3.60402,-1.41859 0.33875,-0.17551 1.33147,-0.74571 0.9981,-0.56018 -2.58008,1.43588 -3.07867,1.84009 -1.59305,0.76701 1.01224,-0.78162 1.80496,-1.77082 2.10913,-3.03254 0.0592,-0.24544 0.0825,-0.49815 0.12373,-0.74722 0.0812,-1.30055 -0.0707,-2.65866 -0.77658,-3.78612 -0.13576,-0.21683 -0.30406,-0.41149 -0.45609,-0.61724 -1.28936,-1.41298 -3.05921,-2.27356 -4.71406,-3.18466 0,0 3.15493,-2.05853 3.15493,-2.05853 v 0 c 1.71077,0.93632 3.54348,1.80636 4.85072,3.29447 0.16219,0.22249 0.34173,0.43331 0.48655,0.66747 0.73806,1.19335 0.93327,2.61774 0.89011,3.99527 -0.22638,1.84973 -0.68945,2.84338 -2.13684,4.06691 -1.96934,1.4972 -0.7545,0.62044 -4.86905,2.99679 -1.44679,0.83559 -3.01296,1.45616 -4.6293,1.87278 -2.68285,0.60947 -5.3434,0.94517 -8.05628,0.26489 -0.3984,-0.12862 -0.80558,-0.23265 -1.19518,-0.38586 -1.87119,-0.73588 -3.39316,-2.07345 -4.55858,-3.69073 -0.2033,-0.33134 -0.42449,-0.65235 -0.60991,-0.99402 -0.83168,-1.53259 -1.285,-3.23915 -1.07676,-4.98405 0.0769,-0.30859 0.12933,-0.62432 0.23066,-0.92576 0.5425,-1.61386 1.73706,-2.85859 3.0868,-3.84071 2.74001,-1.62863 5.49123,-3.65388 8.72622,-4.1552 1.33275,-0.10041 2.65535,-0.0829 3.90059,0.47051 0,0 -3.2835,2.16043 -3.2835,2.16043 z"
       inkscape:connector-curvature="0" />
    <path
       style="fill:#000000;stroke-width:0.26458332"
       id="path881"
       d="m 102.21415,163.84656 c -0.63528,0.90355 -0.67535,2.00254 -0.73971,3.06607 -0.0457,2.19667 -0.0931,4.39146 -0.22077,6.58535 -0.1782,2.49575 -0.29782,4.99273 -0.24081,7.49457 0.002,1.19317 0.18218,2.37129 0.37143,3.54541 0.0396,0.2265 0.0726,0.45437 0.11833,0.67979 -0.24667,-0.37897 -0.0824,-0.23374 0.29655,-0.23063 0.94307,-0.15669 1.9015,-0.17416 2.85489,-0.2003 1.73591,0.0229 3.45538,0.27313 5.18978,0.31828 1.47857,0.0578 2.93406,-0.12758 4.36058,-0.49957 0.70517,-0.22558 1.40965,-0.45339 2.11861,-0.66658 0,0 -3.08454,2.38389 -3.08454,2.38389 v 0 c -0.70058,0.21739 -1.40064,0.43766 -2.10851,0.6303 -1.43582,0.32279 -2.90096,0.44019 -4.37284,0.37831 -1.73669,-0.0748 -3.46541,-0.3096 -5.20649,-0.27232 -0.98044,0.0455 -1.955297,0.13095 -2.929801,0.24329 -0.403097,0.0132 -0.384287,0.14485 -0.626547,-0.23988 -0.0136,-0.23444 -0.0465,-0.46746 -0.0695,-0.70102 -0.143327,-1.21138 -0.288807,-2.42638 -0.274347,-3.64863 -0.0271,-2.51656 0.10483,-5.02792 0.267597,-7.53887 0.1184,-2.17745 0.14373,-4.35505 0.13096,-6.53539 0.0325,-1.09754 0.0341,-2.22453 0.566877,-3.2177 0,0 3.598271,-1.57437 3.598271,-1.57437 z"
       inkscape:connector-curvature="0" />
    <path
       style="fill:#000000;stroke-width:0.26458332"
       id="path883"
       d="m 144.14853,141.43634 c 0.38369,0.86259 0.39306,1.82718 0.42948,2.75448 -0.006,1.54094 0.027,3.07846 0.14193,4.61533 0.20288,2.18404 0.27264,4.37675 0.31615,6.56874 -0.0592,2.51496 0.24903,5.00543 0.57518,7.49202 0.3781,2.3856 0.62165,4.7898 0.68055,7.2043 0.009,1.73261 -0.0926,3.46329 0.0666,5.1913 0.20709,1.02446 0.42095,2.0425 0.53011,3.083 0.0628,0.98442 -0.10071,1.95985 -0.15006,2.94 -0.0364,0.54996 0.0115,1.10159 -0.0212,1.65115 -0.0451,0.41051 -0.20973,0.7877 -0.34389,1.17319 -0.0562,0.2725 -0.2275,0.49309 -0.33426,0.74314 -0.51398,1.33915 -0.40843,0.30885 -3.60224,1.79423 -0.0312,-0.31284 0.21579,-0.54807 0.27942,-0.83603 -0.18587,-0.11635 -0.50224,-0.0986 -0.72186,-0.10908 -0.0452,-7.9e-4 -0.0904,-0.002 -0.13556,-0.002 0,0 3.20613,-2.29687 3.20613,-2.29687 v 0 c 0.0463,0.005 0.0926,0.0106 0.13893,0.0159 0.41456,0.0617 0.81986,0.16076 1.01229,0.57598 0.0604,0.31765 -0.0359,0.6265 -0.26223,0.85934 -1.76652,0.93701 -3.9346,3.19567 -3.49795,1.66807 0.0854,-0.26647 0.20641,-0.49557 0.36405,-0.72794 0.0955,-0.38699 0.29329,-0.73114 0.36669,-1.12437 0.14096,-0.52346 -0.0151,-1.1014 0.0728,-1.63609 0.0596,-0.96555 0.21463,-1.92251 0.19109,-2.89295 -0.0996,-1.04556 -0.30511,-2.06949 -0.50739,-3.09915 -0.15457,-1.75111 -0.009,-3.50248 0.002,-5.25689 -0.0332,-2.40483 -0.27352,-4.7984 -0.64867,-7.17396 -0.32559,-2.49747 -0.64269,-4.99947 -0.59995,-7.52488 -0.0517,-2.17779 -0.12534,-4.35647 -0.35199,-6.52442 -0.13863,-1.53129 -0.19629,-3.06374 -0.2054,-4.60107 -0.0343,-0.8622 -0.0216,-1.78795 -0.40605,-2.57911 0,0 3.41563,-1.94481 3.41563,-1.94481 z"
       inkscape:connector-curvature="0" />
    <path
       style="fill:#000000;stroke-width:0.26458332"
       id="path885"
       d="m 133.1543,196.39418 c -0.88537,0.99983 -0.98284,2.42184 -1.12645,3.69054 -0.13734,1.65495 -0.0985,3.32879 0.0692,4.98046 0.0551,0.45135 0.13955,0.8982 0.25245,1.33843 0,0 -3.46502,1.86174 -3.46502,1.86174 v 0 c -0.0891,-0.46994 -0.1558,-0.94373 -0.20242,-1.41985 -0.14421,-1.68166 -0.16511,-3.38326 -0.0623,-5.06723 0.11754,-1.32152 0.20463,-2.71615 0.90521,-3.88075 0,0 3.62939,-1.50334 3.62939,-1.50334 z"
       inkscape:connector-curvature="0" />
    <path
       style="fill:#000000;stroke-width:0.26458332"
       id="path887"
       d="m 129.40026,210.02649 c -0.45041,-0.44792 -0.84838,-0.91029 -0.99654,-1.53653 -0.0674,-1.72083 2.33891,-3.49891 3.94661,-2.92823 0.67498,0.40829 0.71695,1.26373 0.79296,1.971 0.0986,1.56041 0.0572,3.12599 0.0461,4.68843 0.0206,2.80286 -0.12435,5.60141 -0.27865,8.3988 -0.15856,3.29592 -0.30397,6.59256 -0.48096,9.88758 -0.16686,4.01802 -0.55613,8.0212 -0.82499,12.03259 -0.26448,3.41853 -0.42698,6.84282 -0.5114,10.27014 -0.0796,2.33084 -0.0418,4.65924 0.0911,6.98672 0.0809,1.00161 0.24775,1.99286 0.40316,2.98473 0.0865,0.55344 0.0731,1.11118 0.005,1.66508 -0.0542,0.37393 -0.11136,0.74736 -0.15517,1.1227 0,0 -3.54726,1.74315 -3.54726,1.74315 v 0 c 0.0659,-0.37877 0.12394,-0.75882 0.19257,-1.13708 0.0792,-0.52366 0.10502,-1.04127 0.0342,-1.56918 -0.10371,-1.0225 -0.24766,-2.04108 -0.31171,-3.06742 -0.0896,-2.3514 -0.11953,-4.70172 -0.0225,-7.05404 0.11485,-3.44993 0.33139,-6.89442 0.6094,-10.33505 0.26897,-3.9996 0.64388,-7.99269 0.77448,-12.00065 0.15805,-3.29101 0.29771,-6.58283 0.45196,-9.874 0.1431,-2.77683 0.27214,-5.55561 0.20148,-8.3371 -0.0136,-1.53557 -0.0136,-3.07358 -0.11623,-4.60635 -0.0394,-0.36607 -0.0384,-1.41355 -0.54926,-1.46381 -1.15088,0.7385 0.001,-0.002 3.09941,-1.85047 0.0498,-0.0297 -0.10474,0.0534 -0.14661,0.0935 -0.14367,0.13755 -0.22489,0.3374 -0.24226,0.53066 0.0789,0.56373 0.47964,0.95618 0.88447,1.33221 0,0 -3.34953,2.0526 -3.34953,2.0526 z"
       inkscape:connector-curvature="0" />
    <path
       style="fill:#000000;stroke-width:0.26458332"
       id="path889"
       d="m 130.59603,266.39946 c 0.73141,-1.04176 1.71597,-1.89119 2.63767,-2.76252 0.55886,-0.5639 1.14976,-1.10355 1.65483,-1.71832 0.1639,-0.19949 0.0626,-0.20329 0.18266,-0.18475 0.0126,0.11391 0.0848,0.23723 0.0378,0.34173 -0.0457,0.10148 -0.18402,0.12519 -0.27603,0.18779 0.95699,-0.54155 1.89808,-1.11219 2.87096,-1.62463 0.21199,-0.11166 -0.39313,0.27426 -0.58349,0.41977 -0.34602,0.26448 -1.04849,0.85262 -1.37279,1.12141 -1.18896,1.02991 -2.34003,2.10889 -3.34792,3.31876 -0.10666,-0.002 -0.65275,1.07023 -0.57284,0.76254 0.26407,0.008 0.45118,-0.0973 0.67682,-0.21982 -6.34972,3.32165 -2.29787,2.66969 -3.47357,1.69608 -0.1957,-0.16206 -0.62787,-0.40752 -0.81626,-0.52085 -1.58038,-0.93273 -3.15596,-1.86536 -4.68253,-2.88449 -0.66859,-0.43725 -1.31378,-0.91453 -1.9399,-1.41012 0,0 3.34015,-2.0806 3.34015,-2.0806 v 0 c 0.55717,0.53171 1.17384,1.00289 1.80694,1.43961 1.51854,1.03461 3.09899,1.961 4.71533,2.8351 0.46188,0.26559 1.05968,0.53915 1.30656,1.05319 0.0365,0.0759 0.13994,0.19482 0.0706,0.24263 -1.09904,0.7575 -2.28488,1.38064 -3.42733,2.07097 -0.30071,0.0871 -0.61854,0.0894 -0.89409,-0.0775 -0.51988,-0.55672 -0.0214,-0.87552 0.33017,-1.39021 1.00484,-1.25189 2.1951,-2.3348 3.3811,-3.41156 0.44474,-0.37346 0.88256,-0.7552 1.33073,-1.12454 0.17945,-0.14788 0.34832,-0.31195 0.54657,-0.43346 1.2469,-0.76429 2.51175,-1.49938 3.78389,-2.22087 0.11223,-0.0636 0.23738,-0.15632 0.36402,-0.1316 0.1474,0.0288 0.23912,0.18179 0.35868,0.27268 0.008,0.067 0.0449,0.13647 0.0251,0.20102 -0.0275,0.0896 -0.10115,0.15798 -0.15821,0.23228 -0.50013,0.65128 -1.13765,1.18474 -1.6956,1.78337 -0.89492,0.83602 -1.78717,1.67888 -2.5989,2.59674 0,0 -3.58104,1.62017 -3.58104,1.62017 z"
       inkscape:connector-curvature="0" />
    <path
       style="fill:#000000;stroke-width:0.26458332"
       id="path891"
       d="m 121.94761,276.32071 c 1.24239,0.10935 2.50021,0.0354 3.74719,0.0153 0.92278,-0.0171 1.84566,-0.0273 2.76845,-0.0438 0,0 -3.12389,2.27402 -3.12389,2.27402 v 0 c -0.9127,2.5e-4 -1.82536,0.009 -2.73793,0.0258 -1.28674,0.0262 -2.58068,0.10596 -3.86442,-0.008 0,0 3.2106,-2.26375 3.2106,-2.26375 z"
       inkscape:connector-curvature="0" />
    <path
       style="fill:#000000;stroke-width:0.26458332"
       id="path893"
       d="m 124.14964,276.84356 c -0.76919,0.96735 -1.27015,2.11448 -1.8247,3.21134 -0.0249,0.0426 -0.51649,1.04572 -0.53262,1.03587 -0.009,-0.006 -0.15282,-0.36999 -0.16285,-0.39507 0.61005,-0.16911 1.23323,-0.10767 1.84973,-0.0181 1.3522,0.18739 2.5162,0.79888 3.59183,1.60911 0.86239,0.74753 1.36661,1.77322 1.24344,2.93162 -0.0233,0.21922 -0.09,0.43164 -0.13494,0.64746 -0.2582,0.69137 -0.67075,1.31205 -1.31821,1.70201 -2.99931,1.80645 -3.22334,2.23773 -5.79903,2.6899 -1.37516,0.14607 -2.76357,0.0682 -4.10608,-0.25706 0,0 3.17224,-2.19456 3.17224,-2.19456 v 0 c 1.30003,0.29645 2.64147,0.35958 3.9633,0.1582 0.30362,-0.0679 0.61199,-0.11721 0.91086,-0.20363 0.28166,-0.0815 1.06558,-0.46968 0.82721,-0.29896 -0.79992,0.57291 -1.68096,1.02334 -2.53084,1.51913 -0.21391,0.12479 0.43114,-0.24837 0.62233,-0.40576 0.46932,-0.38637 0.49505,-0.53672 0.78135,-1.04395 0.0572,-0.19202 0.13585,-0.37893 0.17165,-0.57608 0.1887,-1.03889 -0.27249,-1.94982 -1.05211,-2.61036 -1.05086,-0.76184 -2.19356,-1.30357 -3.5044,-1.42089 -0.61092,-0.0405 -1.23533,-0.0487 -1.80469,0.21259 -0.37765,-0.35708 -0.36352,-0.34356 -0.12014,-0.74009 0.0365,-0.0594 0.41153,-0.75393 0.41217,-0.7551 0.57775,-1.08775 1.08122,-2.21669 1.73277,-3.26307 0,0 3.61173,-1.53454 3.61173,-1.53454 z"
       inkscape:connector-curvature="0" />
    <path
       style="fill:#000000;stroke-width:0.26458332"
       id="path895"
       d="m 134.01617,282.18381 c 1.21592,-0.22162 2.4601,0.01 3.6276,0.35878 0.97956,0.38793 1.92843,1.06038 1.90523,2.23127 -0.004,0.21717 -0.0709,0.42859 -0.10641,0.64289 -0.0856,0.21182 -0.15225,0.43235 -0.25687,0.63545 -1.12963,2.19281 -4.15928,3.38923 -6.00545,4.45898 -0.81597,0.36293 -1.75262,0.79517 -2.65053,0.48483 -0.0493,-0.0628 -0.0987,-0.12559 -0.14801,-0.18838 0,0 3.38231,-2.03491 3.38231,-2.03491 v 0 c 0.002,-0.002 0.004,-0.004 0.006,-0.007 0.84254,0.12344 1.66079,-0.31487 2.39337,-0.66541 -5.19366,3.05277 -1.91789,1.31327 -0.8899,0.11527 0.39887,-0.46483 0.42635,-0.59499 0.69167,-1.12201 0.0511,-0.17684 0.13049,-0.34786 0.15335,-0.53051 0.12799,-1.02259 -0.82579,-1.55345 -1.64184,-1.8499 -1.13416,-0.29605 -2.40837,-0.53919 -3.5302,-0.0746 0,0 3.06934,-2.45518 3.06934,-2.45518 z"
       inkscape:connector-curvature="0" />
    <path
       style="fill:#000000;stroke-width:0.26458332"
       id="path897"
       d="m 141.28476,285.55814 c -0.56826,-0.17204 -1.17118,-0.15014 -1.72839,0.0645 -0.15041,0.0579 -0.5685,0.30399 -0.42817,0.2247 0.97293,-0.54968 1.95075,-1.09065 2.92612,-1.63598 -1.0342,0.86657 -0.83073,1.78139 -0.33669,2.8971 0.79848,1.36032 1.64413,1.86332 3.07888,2.40801 0,0 -3.16564,2.12132 -3.16564,2.12132 v 0 c -1.52007,-0.63391 -2.38629,-1.20003 -3.25982,-2.63909 -0.44158,-0.93732 -0.82426,-1.99284 -0.24378,-2.98062 0.0843,-0.14346 0.21015,-0.25808 0.31522,-0.38712 2.09641,-1.23081 3.69958,-2.98597 6.10871,-2.2496 0,0 -3.26644,2.1768 -3.26644,2.1768 z"
       inkscape:connector-curvature="0" />
    <path
       style="fill:#000000;stroke-width:0.26458332"
       id="path899"
       d="m 147.11038,138.47162 c 1.60759,0.18428 3.2289,0.18787 4.84345,0.27055 3.3847,0.16553 6.76045,0.47362 10.1408,0.7085 4.66181,0.33713 9.33665,0.30062 14.00348,0.11905 3.01541,-0.1769 6.02926,-0.3775 9.04498,-0.54931 0,0 -2.90238,2.13237 -2.90238,2.13237 v 0 c -2.99633,0.14809 -5.99044,0.33211 -8.98575,0.49913 -4.69625,0.17361 -9.39939,0.21219 -14.0916,-0.10133 -3.41794,-0.21989 -6.83312,-0.50458 -10.25709,-0.61378 -1.6662,-0.0553 -3.33603,-0.0527 -4.9979,-0.19908 0,0 3.20201,-2.2661 3.20201,-2.2661 z"
       inkscape:connector-curvature="0" />
    <path
       style="fill:#000000;stroke-width:0.26458332"
       id="path901"
       d="m 182.02493,150.81151 c 0.98994,0.62232 2.00431,1.19822 2.93949,1.90379 0.96294,0.7856 1.7769,1.72838 2.70933,2.54868 0.58662,0.43611 1.26056,0.72876 1.89628,1.0832 0.11493,0.18126 0.26504,0.48685 0.005,0.6406 -1.9303,1.14104 -2.81557,1.74971 -4.50389,2.38655 -1.28187,0.45974 -2.51102,1.05245 -3.75207,1.61005 -0.65779,0.32193 -0.34527,0.16551 -0.93827,0.46779 0,0 3.03435,-2.42584 3.03435,-2.42584 v 0 c 0.58096,-0.28069 0.27349,-0.13472 0.92309,-0.43647 1.24987,-0.56085 2.49691,-1.13176 3.7816,-1.60977 0.16035,-0.0654 0.32149,-0.12887 0.48104,-0.19618 0.12906,-0.0544 0.50455,-0.24158 0.38472,-0.16906 -1.01659,0.6152 -2.05177,1.19914 -3.07766,1.79871 0.0617,-0.007 0.12404,-0.0338 0.18496,-0.0218 0.0652,0.0128 0.10694,0.0858 0.17452,0.0964 -0.62917,-0.39177 -1.30865,-0.70745 -1.88279,-1.18313 -0.90928,-0.82552 -1.70363,-1.77111 -2.67046,-2.53225 -0.94873,-0.69637 -1.97337,-1.26563 -2.99688,-1.84335 0,0 3.3077,-2.11788 3.3077,-2.11788 z"
       inkscape:connector-curvature="0" />
    <path
       style="fill:#000000;stroke-width:0.26458332"
       id="path903"
       d="m 192.12497,152.64583 c 1.17199,0.69675 2.10685,1.70438 2.99318,2.72419 0.79276,0.98664 1.55433,2.00175 2.20461,3.08865 0.47138,0.92309 0.50374,1.50533 0.0725,2.44333 -1.19967,1.71187 -3.28399,2.79248 -5.33903,3.07775 0,0 3.09249,-2.33416 3.09249,-2.33416 v 0 c 0.16667,-0.0388 0.33698,-0.0643 0.50001,-0.11632 0.15685,-0.05 0.59595,-0.27615 0.45641,-0.18878 -5.24874,3.28666 -3.18453,2.10669 -2.25967,1.16 0.48225,-0.81082 0.53088,-1.22351 0.12048,-2.09909 -0.62639,-1.07215 -1.3428,-2.08876 -2.12492,-3.05342 -0.86519,-0.98531 -1.79117,-1.97013 -2.9889,-2.54874 0,0 3.27285,-2.15341 3.27285,-2.15341 z"
       inkscape:connector-curvature="0" />
    <path
       style="fill:#000000;stroke-width:0.26458332"
       id="path905"
       d="m 198.35239,155.51615 c 0.26596,-0.37829 0.63156,-0.66014 1.03153,-0.88648 2.31204,-1.30837 3.01662,-2.09493 5.09402,-2.40866 1.19267,-0.15353 2.35499,0.0267 3.41766,0.58325 0.45783,0.31308 0.9728,0.83949 0.75048,1.45604 -0.0382,0.10587 -0.11483,0.1936 -0.17224,0.29039 -0.57977,0.60004 -1.35419,0.94287 -2.00519,1.45482 -0.69207,0.65051 -0.41235,1.06112 0.0896,1.71692 0.7652,0.78243 1.5989,1.49476 2.40891,2.23012 0.37346,0.45583 1.16442,1.05162 1.2587,1.67736 0.0156,0.10341 -0.008,0.20899 -0.0119,0.31348 -1.30385,2.45215 -4.2344,2.48846 -6.53199,2.54656 -1.47096,0.0274 -2.94224,0.0236 -4.41339,0.0275 0,0 3.0906,-2.24507 3.0906,-2.24507 v 0 c 1.46767,0.006 2.93575,0.009 4.40287,-0.0375 0.73326,-0.0351 1.48474,-0.0448 2.20648,-0.19765 0.1603,-0.034 0.60862,-0.22743 0.47216,-0.13674 -2.39186,1.58962 -4.12876,2.26243 -2.77529,1.72703 0.038,-0.0407 0.0998,-0.0682 0.11388,-0.12199 0.0978,-0.37384 -0.89079,-1.2682 -1.10366,-1.51587 -0.82053,-0.75766 -1.67883,-1.4767 -2.4567,-2.27866 -0.57193,-0.73212 -1.00826,-1.38798 -0.36319,-2.2393 0.60251,-0.57035 1.34164,-0.91881 2.01015,-1.40086 0.0864,-0.0603 0.30372,-0.18365 0.35089,-0.30711 0.13986,-0.36606 -0.34008,-0.66323 -0.56988,-0.82302 -1.02122,-0.49026 -2.12915,-0.59229 -3.24447,-0.39722 -0.20402,0.0457 -0.41138,0.0785 -0.61206,0.13721 -0.20027,0.0586 -0.76278,0.32829 -0.5883,0.21386 0.90685,-0.59476 1.86667,-1.10456 2.79676,-1.66227 0.76931,-0.46131 -0.66917,0.37278 -0.809,0.47873 -0.0883,0.0669 -0.15943,0.15386 -0.23915,0.23079 0,0 -3.59828,1.57437 -3.59828,1.57437 z"
       inkscape:connector-curvature="0" />
    <path
       style="fill:#000000;stroke-width:0.26458332"
       id="path907"
       d="m 182.55048,138.94921 c 1.77658,-0.003 3.55421,-0.10305 5.33105,-0.15128 1.98327,-0.0456 3.96705,-0.0626 5.95068,-0.0863 0.77294,-0.0514 1.54904,-0.11666 2.30835,-0.27635 0.0761,-0.0132 0.13775,-0.0285 0.17984,-0.0813 0,0 -3.12317,2.44459 -3.12317,2.44459 v 0 c -0.0686,-0.013 -0.13531,-0.009 -0.20698,0.006 -0.74882,0.0905 -1.50186,0.1506 -2.25635,0.16008 -1.96549,-0.008 -3.9312,0.002 -5.89603,0.0584 -1.82152,0.0576 -3.64052,0.16047 -5.46127,0.2322 0,0 3.17388,-2.30596 3.17388,-2.30596 z"
       inkscape:connector-curvature="0" />
    <path
       style="fill:#000000;stroke-width:0.26458332"
       id="path909"
       d="m 195.72693,139.91309 c 0.1657,0.82225 0.35257,1.64017 0.51912,2.46226 0.18346,0.74714 0.13664,1.50581 0.0727,2.26306 -0.0568,0.0206 -0.0151,1.14313 -0.0894,0.86231 -0.008,-0.0315 -0.0161,-0.063 -0.0241,-0.0945 0,0 -3.22808,2.29606 -3.22808,2.29606 v 0 c -0.0352,-0.0343 -0.0705,-0.0685 -0.10571,-0.10277 -0.2612,-0.37187 -0.0609,-0.78833 -0.0528,-1.218 0.0726,-0.72528 0.16727,-1.45034 -0.007,-2.17082 -0.15684,-0.80986 -0.32869,-1.61953 -0.53318,-2.41795 0,0 3.44823,-1.87961 3.44823,-1.87961 z"
       inkscape:connector-curvature="0" />
    <path
       style="fill:#000000;stroke-width:0.26458332"
       id="path911"
       d="m 195.72763,167.99764 c 0.20779,1.06758 0.36883,2.14559 0.50744,3.22443 0.12564,1.35982 0.26118,2.71945 0.35748,4.0819 0.0862,1.23308 0.10837,2.46902 0.12923,3.70451 0.0451,1.01461 -0.0178,2.02313 -0.10744,3.03289 -0.0955,0.73119 -0.0839,1.45933 0.0243,2.18683 0.60869,1.46818 -3.5302,3.49104 -3.52185,1.8184 0.0295,-0.099 0.0157,-0.0496 0.0415,-0.14812 0,0 3.56737,-1.70738 3.56737,-1.70738 v 0 c -0.025,0.10172 -0.0129,0.0503 -0.0362,0.15423 -0.0469,0.0442 -0.0255,0.019 -0.0631,0.0769 -1.1838,0.60351 -2.36759,1.20702 -3.55138,1.81053 -0.0634,0.0339 0.41803,0.0824 0.0893,-0.17662 -0.0882,-0.76158 -0.13486,-1.52251 -0.0192,-2.28535 0.0874,-0.99969 0.17165,-1.99603 0.12753,-3.00118 -5.2e-4,-1.23313 -0.0173,-2.46681 -0.0904,-3.69806 -0.093,-1.35425 -0.23906,-2.70342 -0.35941,-4.05525 -0.13763,-1.05678 -0.29196,-2.1177 -0.54486,-3.15321 0,0 3.44962,-1.86548 3.44962,-1.86548 z"
       inkscape:connector-curvature="0" />
    <path
       style="fill:#000000;stroke-width:0.26458332"
       id="path913"
       d="m 171.26002,219.15093 c -0.33486,0.002 -1.26406,0.4114 -1.53418,0.35732 1.08431,-0.7977 2.13964,-1.63638 3.25295,-2.3931 0.0745,-0.0506 0.18052,0.006 0.27026,-0.002 0.13723,-0.0122 0.27225,-0.043 0.40914,-0.0586 0.76638,-0.0869 1.53539,-0.16107 2.30319,-0.23468 2.48974,-0.21412 4.98177,-0.3732 7.4788,-0.46994 1.74845,-0.0193 3.52701,-0.11922 5.267,0.10952 0.35063,0.0911 0.78063,0.0942 1.08385,0.32166 0.0542,0.0625 0.0271,0.0266 0.0783,0.11 0,0 -3.43679,1.98089 -3.43679,1.98089 v 0 c 0.0102,0.0162 0.0204,0.0324 0.0306,0.0485 8e-4,0.004 0.002,0.009 0.003,0.0131 -0.30206,-0.1029 -0.60906,-0.19118 -0.92696,-0.23286 -1.69267,-0.20624 -3.40897,-0.19637 -5.11025,-0.14476 -2.51072,0.1002 -5.01672,0.26997 -7.51644,0.52898 -0.79111,0.0925 -1.58052,0.19184 -2.36947,0.30126 -1.73446,0.24053 -2.01079,0.8141 2.36284,-2.23959 0.0515,-0.0858 1.29188,-0.29727 1.46615,-0.39205 0,0 -3.11174,2.39588 -3.11174,2.39588 z"
       inkscape:connector-curvature="0" />
    <path
       style="fill:#000000;stroke-width:0.26458332"
       id="path915"
       d="m 182.47714,211.97444 c 0.0704,1.52332 0.21213,3.04183 0.32091,4.56268 0.12017,1.18618 0.1081,2.37338 0.0255,3.56064 0,0 -3.49034,1.73979 -3.49034,1.73979 v 0 c 0.12658,-1.17959 0.195,-2.36058 0.0778,-3.54574 -0.0958,-1.50353 -0.23552,-3.00363 -0.40417,-4.50053 0,0 3.47028,-1.81684 3.47028,-1.81684 z"
       inkscape:connector-curvature="0" />
    <path
       style="fill:#000000;stroke-width:0.26458332"
       id="path917"
       d="m 183.38262,210.97517 c -0.92591,-1.15275 -2.47009,-1.29052 -3.84073,-1.3879 -1.5781,0.0143 -3.15422,0.29564 -4.57891,0.99975 -0.37023,0.18297 -1.45025,0.785 -1.06901,0.62623 0.7625,-0.31754 1.47869,-0.7365 2.21803,-1.10476 -1.16293,1.07432 -2.11801,2.3892 -2.3958,3.98296 -0.16751,0.96107 -0.054,1.26525 0.0708,2.2184 0.13032,0.35419 0.22503,0.7236 0.39097,1.06256 0.78383,1.60116 2.22231,2.70401 3.84519,3.3672 0.4739,0.19366 0.97177,0.32252 1.45766,0.48378 2.72607,0.67165 5.5428,0.59717 8.28372,0.054 0.5188,-0.10282 1.02983,-0.24157 1.54475,-0.36235 -0.87345,0.77813 3.34463,-1.51646 2.56169,-1.03219 -0.72981,0.4514 -1.46104,0.92146 -2.26234,1.22855 -0.29995,0.11496 0.5085,-0.39826 0.72203,-0.63824 0.53076,-0.5965 0.47534,-0.72902 0.66562,-1.46342 -0.0271,-0.27837 -0.0113,-0.56435 -0.0814,-0.83512 -0.48987,-1.89272 -2.43299,-3.44234 -3.89948,-4.57631 -1.44372,-0.90548 -0.72377,-0.48517 -2.15654,-1.26662 0,0 3.14437,-2.04748 3.14437,-2.04748 v 0 c 1.42938,0.82455 0.70859,0.38271 2.15873,1.33147 1.55702,1.21584 3.52211,2.81269 4.12261,4.78728 0.0928,0.30504 0.0986,0.63 0.14784,0.94501 -0.0499,0.2949 -0.0502,0.60263 -0.14966,0.8847 -0.19002,0.53886 -0.6899,1.20358 -1.16654,1.51244 -2.23152,1.44604 -4.22517,2.7232 -6.73797,3.40026 -0.5161,0.11134 -1.0287,0.24038 -1.54831,0.33402 -2.78877,0.50257 -5.6465,0.52993 -8.40145,-0.18709 -0.50009,-0.17252 -1.01312,-0.31134 -1.50028,-0.51757 -1.70007,-0.71973 -3.19735,-1.90251 -4.03479,-3.57734 -0.1808,-0.36159 -0.28873,-0.75523 -0.43308,-1.13285 -0.15369,-1.00459 -0.27927,-1.33333 -0.13528,-2.35396 0.23342,-1.6545 1.14922,-3.05399 2.3102,-4.21049 1.39082,-0.8798 2.76844,-1.78084 4.17247,-2.63939 0.35426,-0.21663 0.72095,-0.41511 1.09999,-0.58467 1.48162,-0.66279 3.09852,-0.90968 4.71168,-0.88667 1.52099,0.1393 3.12773,0.37683 4.16131,1.62595 0,0 -3.3981,1.95988 -3.3981,1.95988 z"
       inkscape:connector-curvature="0" />
    <path
       style="fill:#000000;stroke-width:0.26458332"
       id="path927"
       d="m 133.91418,215.10528 c 2.20459,-0.19122 4.39919,-0.47719 6.59953,-0.71033 3.55103,-0.34743 7.12065,-0.40533 10.68549,-0.45934 3.32098,-0.0356 6.64217,-0.0433 9.9633,-0.0535 2.18728,-0.009 4.36263,-0.19065 6.52604,-0.49875 0.55719,-0.0864 1.11739,-0.15642 1.67297,-0.25331 0.20813,-0.0363 0.36346,-0.13853 0.53938,-0.0202 0.0569,0.13811 0.11382,0.27622 0.17073,0.41433 0,0 -3.66968,1.48835 -3.66968,1.48835 v 0 c 0.0814,0.11703 0.16274,0.23405 0.2441,0.35108 0.006,0.1011 -0.34988,0.0933 -0.40199,0.0999 -0.53935,0.068 -1.07846,0.13794 -1.61763,0.20736 -2.14574,0.26705 -4.30377,0.39645 -6.46684,0.39277 -3.29891,-0.0142 -6.59803,-0.0279 -9.89682,0.0123 -3.57436,0.0554 -7.15384,0.13626 -10.71086,0.52154 -2.2614,0.26448 -4.51994,0.55585 -6.77907,0.83832 0,0 3.14135,-2.33052 3.14135,-2.33052 z"
       inkscape:connector-curvature="0" />
    <path
       style="fill:#000000;stroke-width:0.26458332"
       id="path929"
       d="m 169.0708,210.70287 c 1.15647,0.22633 2.26125,0.63526 3.37149,1.01851 0.50876,0.21208 1.71422,0.532 1.4988,1.33974 -0.0367,0.13746 -0.14186,0.24666 -0.21278,0.36999 -0.13319,0.12161 -0.25813,0.25292 -0.39956,0.36482 -0.56314,0.44557 -1.21376,0.78003 -1.8176,1.16454 -0.605,0.38524 -0.7,0.46076 -1.27787,0.86499 -0.50595,0.34541 -0.93656,0.77097 -1.34879,1.21908 0,0 -3.56853,1.50612 -3.56853,1.50612 v 0 c 0.40569,-0.48659 0.83306,-0.94651 1.35175,-1.31853 1.12734,-0.80774 2.31668,-1.5108 3.46654,-2.28127 0.0246,-0.0173 0.39363,-0.26619 0.39845,-0.29904 0.0446,-0.30336 -1.10308,-0.69511 -1.28637,-0.76923 -1.09946,-0.39154 -2.2104,-0.78454 -3.37755,-0.91362 0,0 3.20202,-2.2661 3.20202,-2.2661 z"
       inkscape:connector-curvature="0" />
    <path
       style="fill:#000000;stroke-width:0.26458332"
       id="path931"
       d="m 193.79606,187.57871 c 0.011,-0.18419 0.24322,-1.15526 0.10661,-1.26657 -0.27122,1.55654 4.45735,-2.64915 3.17614,-1.57849 -0.0691,0.023 -0.10717,-0.11331 -0.13514,-0.16206 0.0988,0.2885 0.23172,0.55322 0.40152,0.81103 0.32,0.48116 0.38211,1.03997 0.41827,1.60169 0.0658,1.2327 0.14494,2.46392 0.18904,3.69803 0.0464,1.71552 0.089,3.43237 0.036,5.14803 -0.13395,1.93414 -0.16459,3.86706 -0.0696,5.80306 0.14814,1.98418 0.46055,3.9498 0.69327,5.9246 0.12742,1.06154 0.20273,2.12856 0.2396,3.19686 -0.0102,0.72356 -0.16028,1.43087 -0.31111,2.13496 -0.11147,0.46442 -0.13909,0.94141 -0.20081,1.41316 -0.0695,0.24839 -0.18853,0.45331 -0.22899,0.71138 -0.0301,0.27158 -0.0335,0.54536 -0.0289,0.81831 0.0622,1.37101 -3.61207,3.04496 -3.52573,1.58045 0.001,-0.0948 -0.001,-0.18973 0.004,-0.28447 -0.13925,-0.31955 -0.45345,-0.5094 -0.69173,-0.75006 -0.3258,-0.2662 -0.58868,-0.59855 -0.86681,-0.9121 -0.20303,-0.16438 -0.45788,-0.12623 -0.70432,-0.13199 -0.33934,0.15983 -0.74906,0.13524 -1.08686,-0.0152 -0.27449,-0.0673 -0.37704,-0.32537 -0.58393,-0.47893 -0.12215,-0.0138 -0.24127,-0.0477 -0.36505,-0.044 -0.65683,-0.0902 -0.182,-0.51854 0.002,-0.5852 0.12965,-0.047 0.14901,-0.18632 0.22531,-0.27059 0.0381,-0.0421 0.10147,-0.0529 0.14523,-0.0891 0.0855,-0.12502 0.0374,-0.0712 0.14123,-0.16422 0,0 3.68616,-1.42366 3.68616,-1.42366 v 0 c -0.1197,0.0433 -0.0583,0.0249 -0.18421,0.0549 -0.0386,0.0565 -0.0495,0.13942 -0.1083,0.17449 -0.025,0.0149 -0.0599,-0.0217 -0.0869,-0.0106 -0.0722,0.0298 -0.092,0.1976 -0.16253,0.23375 -0.1723,0.30305 0.0477,-0.0161 -0.14671,0.1163 -0.17425,0.1187 0.37325,0.71908 -0.31912,-0.33227 -0.01,-0.0148 0.0681,0.043 0.05,0.0184 0.17009,0.0542 0.34025,0.11244 0.47742,0.23216 0.15685,0.15053 0.24838,0.3065 0.48119,0.34405 0.35515,0.0288 0.68651,-0.0518 1.03842,-0.0539 0.34325,0.0386 0.64336,0.12066 0.87769,0.39262 0.25847,0.3142 0.52178,0.62757 0.8336,0.89091 0.29233,0.27509 0.64103,0.51412 0.80732,0.89378 0.0606,0.13791 0.0773,0.24851 0.0676,0.39657 0.0779,1.38318 -3.5974,3.45546 -3.5307,2.01163 0.008,-0.28679 0.0212,-0.57343 0.0296,-0.86022 0.0147,-0.28043 0.006,-0.54671 0.19813,-0.76813 0.20224,-0.42014 0.0716,-0.96853 0.23837,-1.40794 0.14663,-0.68166 0.31457,-1.35703 0.35663,-2.05641 -0.007,-1.07038 -0.0465,-2.14047 -0.14807,-3.20651 -0.19439,-1.98952 -0.49323,-3.96643 -0.67205,-5.95768 -0.12176,-1.94149 -0.0969,-3.8803 0.0321,-5.82157 0.0582,-1.70492 0.009,-3.41154 -0.0374,-5.1164 -0.0533,-1.22015 -0.15826,-2.43489 -0.25625,-3.65121 -0.035,-0.4914 -0.0616,-0.99095 -0.34288,-1.4143 -0.0849,-0.13056 -0.445,-0.653 -0.45388,-0.80668 -0.002,-0.0393 0.045,0.0647 0.0674,0.097 -0.0561,-0.0945 -0.12442,-0.18914 -0.10303,-0.30426 0.41223,-1.43119 2.80095,-3.26268 3.85394,-2.0216 0.25666,0.47197 0.044,1.0098 0.003,1.51448 0,0 -3.5252,1.73362 -3.5252,1.73362 z"
       inkscape:connector-curvature="0" />
    <path
       style="fill:#000000;stroke-width:0.26458332"
       id="path933"
       d="m 185.9527,223.19259 c 0.41731,1.25951 0.37646,2.62611 0.40812,3.93885 0.10769,1.82397 0.19003,3.6483 0.22563,5.47515 0.003,2.22777 -0.2789,4.44112 -0.48196,6.65593 -0.16655,1.9421 0.002,3.88491 0.12336,5.82346 0.115,1.83796 0.0922,3.68042 0.16627,5.51965 0.0412,1.51219 0.22945,3.01244 0.39286,4.51449 0.10911,0.96999 0.13679,1.9452 0.14839,2.9203 0.0142,0.84749 -0.0322,1.69513 0.08,2.53704 0.0463,0.26437 0.0929,0.53105 0.178,0.78634 0.0252,0.011 0.0426,0.18677 0.0424,0.28512 0.0263,0.18972 0.13242,0.35909 0.18977,0.54262 0.0706,0.32258 0.0586,0.65669 0.0677,0.98521 0.31594,1.37778 -3.40177,3.34689 -3.519,1.90209 0.0463,-0.57401 0.70181,-1.08932 1.07701,-1.48485 0.65359,-0.69027 1.3593,-1.33215 2.10857,-1.917 0.086,-0.0602 0.16723,-0.12774 0.25785,-0.18068 1.18668,-0.69316 2.38542,-1.36553 3.57307,-2.05705 1.07219,-0.6243 -3.97351,0.86459 -3.22673,1.85539 1.35615,1.7993 4.62784,-3.05938 3.24782,-0.80599 -0.54219,0.92787 -1.17695,1.79032 -1.87275,2.60735 -1.37576,1.54974 -3.01084,2.17594 -4.91002,3.25721 -0.22265,0.087 -0.43942,0.0951 -0.67071,0.0748 -0.17382,0.024 -0.20139,-0.14777 -0.29011,-0.258 -0.0477,-0.0592 -0.12554,-0.0858 -0.18821,-0.12882 -0.82151,-0.46001 -1.66246,-0.85391 -2.43686,-1.39577 -1.02755,-0.82831 -1.99374,-1.72369 -3.0299,-2.54256 -0.58612,-0.42377 -1.14758,-0.95793 -1.82844,-1.23184 -0.15906,-0.0462 -0.0842,-0.0291 -0.22381,-0.0546 0,0 3.2642,-2.22356 3.2642,-2.22356 v 0 c 0.15496,0.0666 0.0722,0.0288 0.24723,0.11562 0.64593,0.38201 1.21854,0.88082 1.80565,1.34401 1.01716,0.82639 1.97585,1.7212 3.02055,2.51241 0.7996,0.52614 1.67078,0.89591 2.50066,1.36696 0.57886,0.42855 0.0745,0.17417 0.35746,0.1688 0.19205,-0.0229 0.37297,-0.1169 0.54664,-0.19555 -7.64437,4.44271 -3.54283,2.18561 -2.69065,1.55028 0.34264,-0.25545 0.64237,-0.56756 0.95848,-0.85317 0.70315,-0.78572 1.36189,-1.60696 1.8714,-2.53474 0.66618,-1.09714 2.94593,-4.26542 3.99861,-2.18637 0.60923,1.20322 -2.31687,1.3832 -3.50646,2.01864 -1.0642,0.56847 2.08801,-1.2095 3.13007,-1.81758 0.0918,-0.0536 -0.18608,0.10263 -0.27912,0.15394 -0.77344,0.55158 -1.49236,1.17948 -2.15195,1.86326 -0.37137,0.38994 -0.72691,0.83639 -1.13386,1.17786 -0.0741,1.38361 -3.82534,3.20071 -3.51611,1.69209 0.002,-0.29629 0.002,-0.59373 -0.0297,-0.88867 -0.0523,-0.2224 -0.17236,-0.41839 -0.24055,-0.63649 -0.001,-0.29352 0.0702,0.0215 0.005,-0.17938 -0.0791,-0.28353 -0.11522,-0.57745 -0.16259,-0.86723 -0.1118,-0.86069 -0.069,-1.72399 -0.0777,-2.59033 -0.0117,-0.96772 -0.0323,-1.93599 -0.11473,-2.90076 -0.12976,-1.51967 -0.31231,-3.03493 -0.34803,-4.56138 -0.08,-1.83543 -0.0568,-3.67435 -0.17353,-5.50869 -0.10845,-1.96241 -0.26667,-3.92786 -0.11185,-5.8931 0.20104,-2.19954 0.49716,-4.3969 0.48656,-6.60962 -0.0505,-1.82177 -0.13343,-3.64173 -0.25203,-5.46043 -0.0355,-1.24036 0.008,-2.55877 -0.42741,-3.73585 0,0 3.41563,-1.94481 3.41563,-1.94481 z"
       inkscape:connector-curvature="0" />
    <path
       style="fill:#000000;stroke-width:0.26458332"
       id="path935"
       d="m 179.24398,280.44746 c 0.0963,-0.61245 0.14369,-1.22823 0.30637,-1.82813 0.43775,-1.44765 0.53064,-0.76967 3.65565,-1.90352 0.10575,-0.0384 0.0705,0.21372 0.10131,0.32192 0.0783,0.27518 0.21886,0.84794 0.28139,1.09766 0.37962,1.51908 0.81354,3.02385 1.39005,4.48039 0.42367,0.96482 0.90639,1.90334 1.37231,2.84858 0.13527,0.32964 0.32672,0.58194 0.61378,0.78486 0,0 -3.33213,2.08824 -3.33213,2.08824 v 0 c -0.29488,-0.26941 -0.52544,-0.57169 -0.66738,-0.95104 -0.45763,-0.9622 -0.92285,-1.92236 -1.34059,-2.9025 -0.55914,-1.47521 -0.9966,-2.98991 -1.42246,-4.50822 -0.11668,-0.39656 -0.1908,-0.66803 -0.32096,-1.04737 -0.0304,-0.0887 -0.17743,-0.2115 -0.0992,-0.26324 4.90007,-3.24164 3.91512,-3.0419 3.32669,-1.71948 -0.22016,0.56981 -0.30002,1.15986 -0.3396,1.76822 0,0 -3.52521,1.73363 -3.52521,1.73363 z"
       inkscape:connector-curvature="0" />
    <path
       style="fill:#000000;stroke-width:0.26458332"
       id="path937"
       d="m 186.84509,280.5847 c -0.28869,-0.68429 -0.60696,-1.35678 -0.94077,-2.02025 -0.41712,-0.72336 -0.31901,-1.43205 0.0204,-2.15527 1.09722,-1.45762 3.06965,-2.14591 4.55274,-2.97588 0.68153,-0.3814 1.45934,-0.52784 2.21464,-0.67045 1.30159,-0.13998 2.66324,-0.003 3.74779,0.79465 0.17861,0.13145 0.331,0.29524 0.4965,0.44286 0.73453,0.86139 0.85104,1.69294 0.30249,2.67418 -0.41987,0.60196 -1.11986,0.88522 -1.63102,1.38627 -0.0229,0.0435 -0.0648,0.0814 -0.0687,0.13034 -0.034,0.4201 1.33589,1.19886 1.60338,1.36697 1.24534,0.75948 2.58038,1.40544 3.72544,2.32075 0.21799,0.17425 0.41408,0.37426 0.62112,0.5614 0.71628,0.78513 1.42258,1.77302 1.16632,2.89916 -0.0408,0.17932 -0.12627,0.34545 -0.18941,0.51817 -0.2643,0.36824 -0.36863,0.59061 -0.77644,0.83349 -2.88506,1.71822 -3.39621,2.37491 -6.09908,2.55499 -1.44734,0.0807 -2.8721,-0.077 -4.12412,-0.8389 -0.10148,-0.10207 -0.20295,-0.20415 -0.30442,-0.30623 0,0 3.32545,-2.03718 3.32545,-2.03718 v 0 c 0.0786,0.0785 0.1571,0.15692 0.23565,0.23539 1.19971,0.70153 2.58098,0.77 3.94311,0.66951 0.66725,-0.077 0.86405,-0.0712 1.50753,-0.25718 0.22477,-0.065 0.85502,-0.36664 0.66122,-0.23555 -0.88112,0.59601 -1.82231,1.09803 -2.73762,1.64006 -0.16197,0.0959 0.32784,-0.18733 0.47741,-0.30161 0.1333,-0.10183 0.24494,-0.22924 0.36741,-0.34386 0.0776,-0.14238 0.17454,-0.27579 0.23264,-0.42715 0.37834,-0.9856 -0.31163,-1.89375 -0.93404,-2.58918 -1.30304,-1.17023 -2.80022,-1.9732 -4.32595,-2.81408 -0.60897,-0.37179 -1.7079,-0.93923 -1.90041,-1.71422 -0.025,-0.10076 -0.005,-0.2076 -0.007,-0.31139 0.37688,-0.6715 1.11714,-0.85813 1.65735,-1.38237 0.66172,-0.7763 0.64173,-1.39301 -0.002,-2.19583 -0.14979,-0.12883 -0.28708,-0.27381 -0.44936,-0.3865 -1.04217,-0.72368 -2.35451,-0.76018 -3.56402,-0.57555 -0.74153,0.1809 -0.82739,0.16935 -1.52629,0.46706 -0.21971,0.0936 -0.84682,0.44004 -0.64396,0.31401 5.07244,-3.15112 2.95204,-1.89635 2.00384,-1.03745 -0.38418,0.58192 -0.55294,1.17311 -0.18648,1.81516 0.33092,0.66443 0.63168,1.34333 0.96464,2.00685 0,0 -3.41563,1.94481 -3.41563,1.94481 z"
       inkscape:connector-curvature="0" />
    <path
       style="fill:#000000;stroke-width:0.26458332"
       id="path939"
       d="m 202.7919,281.50579 c 0.13359,-0.60026 0.43968,-1.1379 0.99412,-1.4457 3.88236,-2.15526 2.43316,-1.97344 4.52321,-2.10352 1.86568,0.10224 3.24238,1.16087 4.51721,2.42867 0.84437,0.95653 1.52988,2.17166 1.24777,3.49312 -0.0447,0.20914 -0.1352,0.40578 -0.2028,0.60867 -0.29813,0.5532 -0.70272,1.0704 -1.25102,1.3998 -2.28265,1.37133 -2.92521,2.13091 -4.95632,2.45253 -0.72713,-0.005 -1.52044,0.0595 -2.17736,-0.30159 0,0 3.28677,-2.16694 3.28677,-2.16694 v 0 c 0.61419,0.25122 1.3318,0.18711 1.97483,0.13452 1.48446,-0.35459 2.9865,-1.39879 -1.7153,1.30145 -0.17568,0.10089 0.34454,-0.21416 0.50657,-0.33576 0.49727,-0.37317 0.44916,-0.37648 0.83132,-0.86089 0.0802,-0.17729 0.18038,-0.34682 0.24044,-0.53189 0.38883,-1.19794 -0.25518,-2.32621 -1.02502,-3.20402 -1.23674,-1.20509 -2.55853,-2.17668 -4.36638,-2.11649 -1.73024,0.31159 -0.67222,0.19881 2.18189,-1.59988 0.13863,-0.0874 -0.30159,0.13173 -0.43949,0.22025 -0.33761,0.21671 -0.53734,0.51354 -0.64524,0.89405 0,0 -3.5252,1.73362 -3.5252,1.73362 z"
       inkscape:connector-curvature="0" />
    <path
       style="fill:#000000;stroke-width:0.26458332"
       id="path941"
       d="m 217.24192,282.78691 c -0.72268,-0.60427 -1.63813,-0.44245 -2.49239,-0.2795 -0.20169,0.0645 -0.40753,0.11721 -0.60505,0.19352 -0.21019,0.0812 -0.41703,0.17261 -0.61607,0.27821 -0.19989,0.10605 -0.77852,0.46091 -0.57832,0.35546 4.71928,-2.48555 3.11032,-2.05836 2.29591,-1.0397 -0.12613,0.15776 -0.21654,0.34102 -0.3248,0.51153 -0.0542,0.17797 -0.13485,0.34996 -0.16275,0.5339 -0.19086,1.25854 0.7555,2.14642 1.62293,2.87139 1.50304,1.05755 3.31057,1.45652 5.09135,1.76338 0,0 -3.13035,2.18768 -3.13035,2.18768 v 0 c -1.82541,-0.36325 -3.66601,-0.81463 -5.19462,-1.93174 -0.99506,-0.84739 -1.95825,-1.78941 -1.8706,-3.22171 0.0131,-0.21385 0.0831,-0.42038 0.12458,-0.63058 0.0981,-0.19757 0.17339,-0.40818 0.29419,-0.59273 0.88127,-1.34637 3.6303,-2.49828 4.24465,-2.86965 0.5856,-0.35398 1.22819,-0.59173 1.89727,-0.72862 0.9863,-0.12951 1.96226,-0.15265 2.75361,0.54656 0,0 -3.34954,2.0526 -3.34954,2.0526 z"
       inkscape:connector-curvature="0" />
    <path
       style="fill:#0078ae;stroke-width:0.26458332"
       id="path943"
       d="m 29.900026,203.55912 c 1.185329,0.20591 2.37625,0.33642 3.57685,0.41405 2.214451,0.10704 4.43226,0.11065 6.648775,0.1199 2.187734,0.005 4.375483,0.006 6.563212,-2.7e-4 0,0 -3.025699,2.19852 -3.025699,2.19852 v 0 c -2.187196,-0.005 -4.374395,-4e-5 -6.561597,-0.002 -2.243926,-0.004 -4.489432,0.01 -6.731717,-0.0879 -1.230654,-0.0748 -2.448663,-0.2294 -3.671843,-0.37575 0,0 3.202019,-2.26611 3.202019,-2.26611 z"
       inkscape:connector-curvature="0" />
    <path
       style="fill:#0078ae;stroke-width:0.26458332"
       id="path945"
       d="m 68.250539,204.56587 c 1.212474,0.0262 2.425372,0.0226 3.638066,0.025 1.78005,0.005 3.560095,0.0102 5.340138,0.0173 2.287024,0.0482 4.570732,-0.0317 6.855473,-0.11963 1.562838,-0.0502 0.787035,-0.0264 2.32741,-0.0715 0,0 -3.037766,2.22022 -3.037766,2.22022 v 0 c -1.534223,0.0419 -0.760174,0.0179 -2.322134,0.0723 -2.293009,0.087 -4.585335,0.14963 -6.880426,0.12001 -1.795883,0.007 -3.591766,0.0128 -5.387655,0.0172 -1.23567,0.002 -2.471523,-7.9e-4 -3.706984,0.025 0,0 3.173878,-2.30596 3.173878,-2.30596 z"
       inkscape:connector-curvature="0" />
    <path
       style="fill:#0078ae;stroke-width:0.26458332"
       id="path947"
       d="m 115.84614,202.9767 c 1.37492,-0.12833 2.75707,-0.1537 4.13687,-0.18284 2.18374,-0.0702 4.36594,0.0592 6.54785,0.13178 2.11602,0.0662 4.23302,0.0878 6.34992,0.0998 0,0 -3.02147,2.19217 -3.02147,2.19217 v 0 c -2.12536,-0.0162 -4.25099,-0.0282 -6.37556,-0.0932 -2.18893,-0.0691 -4.37882,-0.18225 -6.56901,-0.0889 -1.41821,0.0454 -2.83431,0.11606 -4.24709,0.25043 0,0 3.17849,-2.30931 3.17849,-2.30931 z"
       inkscape:connector-curvature="0" />
    <path
       style="fill:#0078ae;stroke-width:0.26458332"
       id="path949"
       d="m 163.47114,200.86003 c 1.26036,-0.11677 2.52626,-0.15913 3.79116,-0.19026 2.01834,0.016 4.03029,-0.12798 6.04186,-0.27189 2.58618,-0.2545 5.16994,-0.5383 7.75257,-0.82793 0.44116,-0.0461 0.88232,-0.0922 1.32348,-0.13823 0,0 -2.99439,2.22339 -2.99439,2.22339 v 0 c -0.43897,0.0456 -0.87794,0.0912 -1.31691,0.13676 -2.59596,0.2882 -5.19087,0.59094 -7.79092,0.83883 -2.03129,0.15394 -4.06357,0.28348 -6.10159,0.29564 -1.29692,0.0478 -2.59145,0.12297 -3.88375,0.243 0,0 3.17849,-2.30931 3.17849,-2.30931 z"
       inkscape:connector-curvature="0" />
    <path
       style="fill:#0078ae;stroke-width:0.26458332"
       id="path951"
       d="m 212.4048,197.80112 c 1.03225,-0.31615 2.07483,-0.56289 3.14284,-0.7199 1.41902,-0.21631 2.83676,-0.44446 4.26017,-0.63131 1.95853,-0.1924 3.91985,-0.3567 5.88528,-0.46032 0.98302,-0.0496 1.96699,-0.0734 2.95089,-0.0963 0,0 -3.06879,2.24019 -3.06879,2.24019 v 0 c -0.97641,0.0212 -1.95295,0.0428 -2.92833,0.0953 -1.96928,0.11539 -3.93647,0.27944 -5.896,0.50697 -1.43214,0.20812 -2.86154,0.43563 -4.29056,0.66393 -1.0686,0.18352 -2.12235,0.44628 -3.14218,0.81785 0,0 3.08668,-2.41641 3.08668,-2.41641 z"
       inkscape:connector-curvature="0" />
    <path
       style="fill:#0078ae;stroke-width:0.26458332"
       id="path953"
       d="m 252.92965,195.83462 c 1.20896,0.0248 2.41834,0.0215 3.62748,0.027 1.94151,-0.0239 3.8816,-0.12855 5.82327,-0.17464 2.58437,-0.045 5.16919,-0.0538 7.7539,-0.063 1.18341,0.0232 2.36609,0.0725 3.54886,0.11596 0,0 -3.05628,2.20207 -3.05628,2.20207 v 0 c -1.17221,-0.0499 -2.34447,-0.10362 -3.5178,-0.11898 -2.58796,0.003 -5.17633,0.009 -7.76345,0.0817 -1.96313,0.0624 -3.92409,0.1938 -5.88812,0.20884 -1.23392,0.006 -2.46802,0.003 -3.70174,0.027 0,0 3.17388,-2.30596 3.17388,-2.30596 z"
       inkscape:connector-curvature="0" />
    <path
       style="fill:#0078ae;stroke-width:0.26458332"
       id="path955"
       d="m 31.474969,232.98303 c 1.293337,0.30339 2.62962,0.36624 3.953111,0.36615 2.120757,-0.0104 4.23614,-0.14889 6.353315,-0.25401 0.393917,-0.0168 0.787834,-0.0335 1.181751,-0.0503 0,0 -3.028667,2.22086 -3.028667,2.22086 v 0 c -0.393719,0.0179 -0.787434,0.0358 -1.18115,0.0537 -2.134296,0.11739 -4.26801,0.25378 -6.406454,0.26586 -1.377292,-0.0144 -2.763616,-0.0801 -4.11211,-0.38323 0,0 3.240204,-2.21907 3.240204,-2.21907 z"
       inkscape:connector-curvature="0" />
    <path
       style="fill:#0078ae;stroke-width:0.26458332"
       id="path957"
       d="m 74.894464,231.81963 c 1.456156,0.0814 2.911618,0.17903 4.370028,0.2318 2.126239,0.0101 4.249364,0.14329 6.374775,0.16746 1.119611,0.002 2.239077,-0.0172 3.358494,-0.035 0,0 -3.049159,2.22157 -3.049159,2.22157 v 0 c -1.119378,0.0121 -2.238795,0.0279 -3.358274,0.0221 -2.135915,-0.0356 -4.270383,-0.13958 -6.407057,-0.15362 -1.486083,-0.0485 -2.971379,-0.15751 -4.458073,-0.15168 0,0 3.169266,-2.30261 3.169266,-2.30261 z"
       inkscape:connector-curvature="0" />
    <path
       style="fill:#0078ae;stroke-width:0.26458332"
       id="path959"
       d="m 121.41845,231.87071 c 1.02904,0.23519 2.05702,0.48045 3.09298,0.6851 1.5683,0.26181 3.16314,0.33403 4.7506,0.3029 2.11362,-0.10672 4.22546,-0.13691 6.3407,-0.0858 0.38742,0.0225 0.77484,0.045 1.16226,0.0674 0,0 -3.05355,2.19345 -3.05355,2.19345 v 0 c -0.38491,-0.0192 -0.76982,-0.0385 -1.15473,-0.0577 -2.12636,-0.0394 -4.2482,0.0303 -6.37254,0.12494 -1.61572,0.0103 -3.23918,-0.0581 -4.83282,-0.34262 -1.04752,-0.20924 -2.08681,-0.46379 -3.14351,-0.62392 0,0 3.21061,-2.26375 3.21061,-2.26375 z"
       inkscape:connector-curvature="0" />
    <path
       style="fill:#0078ae;stroke-width:0.26458332"
       id="path961"
       d="m 167.98379,232.03135 c 1.32775,-0.0602 2.64997,-0.1866 3.975,-0.28673 1.82092,-0.0777 3.64001,-0.1835 5.4605,-0.27152 2.23238,-0.0998 4.46727,-0.1172 6.70149,-0.13135 0.37187,0.01 0.74373,0.0196 1.11559,0.0294 0,0 -3.05443,2.20788 -3.05443,2.20788 v 0 c -0.36753,-0.008 -0.73507,-0.0162 -1.10261,-0.0243 -2.23743,0.0168 -4.47564,0.0414 -6.71048,0.15923 -1.82894,0.10375 -3.65813,0.19729 -5.48677,0.30322 -1.34829,0.11056 -2.69862,0.21088 -4.04296,0.35923 0,0 3.14467,-2.34503 3.14467,-2.34503 z"
       inkscape:connector-curvature="0" />
    <path
       style="fill:#0078ae;stroke-width:0.26458332"
       id="path963"
       d="m 211.09614,230.22878 c 1.19308,-0.0204 2.38017,-0.14779 3.57582,-0.13253 1.76028,0.0665 3.52108,-0.0304 5.27809,-0.13014 2.4871,-0.14883 4.97275,-0.3027 7.4632,-0.38663 1.29208,-0.0374 2.58458,-0.0563 3.877,-0.0763 0,0 -3.0289,2.20662 -3.0289,2.20662 v 0 c -1.28591,0.0133 -2.5719,0.0276 -3.85722,0.0723 -2.50369,0.093 -5.00205,0.25971 -7.50168,0.42597 -1.77513,0.10975 -3.55339,0.19426 -5.33249,0.14241 -1.2206,0.0181 -2.43268,0.15124 -3.65231,0.18765 0,0 3.17849,-2.30931 3.17849,-2.30931 z"
       inkscape:connector-curvature="0" />
    <path
       style="fill:#0078ae;stroke-width:0.26458332"
       id="path965"
       d="m 251.88594,229.33164 c 1.26694,0.44537 2.6258,0.49086 3.94975,0.62569 2.22012,0.23592 4.44929,0.2662 6.67877,0.22279 2.38922,-10e-4 4.77716,0.0282 7.16333,0.14902 0.3215,0.0164 0.64299,0.0328 0.96449,0.0491 0,0 -3.08359,2.21398 -3.08359,2.21398 v 0 c -0.31639,-0.0195 -0.63278,-0.039 -0.94916,-0.0585 -2.37128,-0.13075 -4.74589,-0.16285 -7.12066,-0.14661 -2.25438,0.0416 -4.50799,-0.001 -6.7539,-0.22202 -1.38284,-0.12503 -2.79339,-0.19339 -4.11547,-0.65661 0,0 3.26644,-2.17682 3.26644,-2.17682 z"
       inkscape:connector-curvature="0" />
  </g>
</svg>
